G04 #@! TF.GenerationSoftware,KiCad,Pcbnew,(5.0.2)-1*
G04 #@! TF.CreationDate,2019-02-12T20:31:54-06:00*
G04 #@! TF.ProjectId,Nixie-PSU,4e697869-652d-4505-9355-2e6b69636164,rev?*
G04 #@! TF.SameCoordinates,Original*
G04 #@! TF.FileFunction,Paste,Bot*
G04 #@! TF.FilePolarity,Positive*
%FSLAX46Y46*%
G04 Gerber Fmt 4.6, Leading zero omitted, Abs format (unit mm)*
G04 Created by KiCad (PCBNEW (5.0.2)-1) date 2/12/2019 8:31:54 PM*
%MOMM*%
%LPD*%
G01*
G04 APERTURE LIST*
%ADD10C,0.100000*%
%ADD11C,1.425000*%
%ADD12C,1.150000*%
G04 APERTURE END LIST*
D10*
G04 #@! TO.C,C1*
G36*
X133433504Y-92216204D02*
X133457773Y-92219804D01*
X133481571Y-92225765D01*
X133504671Y-92234030D01*
X133526849Y-92244520D01*
X133547893Y-92257133D01*
X133567598Y-92271747D01*
X133585777Y-92288223D01*
X133602253Y-92306402D01*
X133616867Y-92326107D01*
X133629480Y-92347151D01*
X133639970Y-92369329D01*
X133648235Y-92392429D01*
X133654196Y-92416227D01*
X133657796Y-92440496D01*
X133659000Y-92465000D01*
X133659000Y-93390000D01*
X133657796Y-93414504D01*
X133654196Y-93438773D01*
X133648235Y-93462571D01*
X133639970Y-93485671D01*
X133629480Y-93507849D01*
X133616867Y-93528893D01*
X133602253Y-93548598D01*
X133585777Y-93566777D01*
X133567598Y-93583253D01*
X133547893Y-93597867D01*
X133526849Y-93610480D01*
X133504671Y-93620970D01*
X133481571Y-93629235D01*
X133457773Y-93635196D01*
X133433504Y-93638796D01*
X133409000Y-93640000D01*
X131259000Y-93640000D01*
X131234496Y-93638796D01*
X131210227Y-93635196D01*
X131186429Y-93629235D01*
X131163329Y-93620970D01*
X131141151Y-93610480D01*
X131120107Y-93597867D01*
X131100402Y-93583253D01*
X131082223Y-93566777D01*
X131065747Y-93548598D01*
X131051133Y-93528893D01*
X131038520Y-93507849D01*
X131028030Y-93485671D01*
X131019765Y-93462571D01*
X131013804Y-93438773D01*
X131010204Y-93414504D01*
X131009000Y-93390000D01*
X131009000Y-92465000D01*
X131010204Y-92440496D01*
X131013804Y-92416227D01*
X131019765Y-92392429D01*
X131028030Y-92369329D01*
X131038520Y-92347151D01*
X131051133Y-92326107D01*
X131065747Y-92306402D01*
X131082223Y-92288223D01*
X131100402Y-92271747D01*
X131120107Y-92257133D01*
X131141151Y-92244520D01*
X131163329Y-92234030D01*
X131186429Y-92225765D01*
X131210227Y-92219804D01*
X131234496Y-92216204D01*
X131259000Y-92215000D01*
X133409000Y-92215000D01*
X133433504Y-92216204D01*
X133433504Y-92216204D01*
G37*
D11*
X132334000Y-92927500D03*
D10*
G36*
X133433504Y-89241204D02*
X133457773Y-89244804D01*
X133481571Y-89250765D01*
X133504671Y-89259030D01*
X133526849Y-89269520D01*
X133547893Y-89282133D01*
X133567598Y-89296747D01*
X133585777Y-89313223D01*
X133602253Y-89331402D01*
X133616867Y-89351107D01*
X133629480Y-89372151D01*
X133639970Y-89394329D01*
X133648235Y-89417429D01*
X133654196Y-89441227D01*
X133657796Y-89465496D01*
X133659000Y-89490000D01*
X133659000Y-90415000D01*
X133657796Y-90439504D01*
X133654196Y-90463773D01*
X133648235Y-90487571D01*
X133639970Y-90510671D01*
X133629480Y-90532849D01*
X133616867Y-90553893D01*
X133602253Y-90573598D01*
X133585777Y-90591777D01*
X133567598Y-90608253D01*
X133547893Y-90622867D01*
X133526849Y-90635480D01*
X133504671Y-90645970D01*
X133481571Y-90654235D01*
X133457773Y-90660196D01*
X133433504Y-90663796D01*
X133409000Y-90665000D01*
X131259000Y-90665000D01*
X131234496Y-90663796D01*
X131210227Y-90660196D01*
X131186429Y-90654235D01*
X131163329Y-90645970D01*
X131141151Y-90635480D01*
X131120107Y-90622867D01*
X131100402Y-90608253D01*
X131082223Y-90591777D01*
X131065747Y-90573598D01*
X131051133Y-90553893D01*
X131038520Y-90532849D01*
X131028030Y-90510671D01*
X131019765Y-90487571D01*
X131013804Y-90463773D01*
X131010204Y-90439504D01*
X131009000Y-90415000D01*
X131009000Y-89490000D01*
X131010204Y-89465496D01*
X131013804Y-89441227D01*
X131019765Y-89417429D01*
X131028030Y-89394329D01*
X131038520Y-89372151D01*
X131051133Y-89351107D01*
X131065747Y-89331402D01*
X131082223Y-89313223D01*
X131100402Y-89296747D01*
X131120107Y-89282133D01*
X131141151Y-89269520D01*
X131163329Y-89259030D01*
X131186429Y-89250765D01*
X131210227Y-89244804D01*
X131234496Y-89241204D01*
X131259000Y-89240000D01*
X133409000Y-89240000D01*
X133433504Y-89241204D01*
X133433504Y-89241204D01*
G37*
D11*
X132334000Y-89952500D03*
G04 #@! TD*
D10*
G04 #@! TO.C,C2*
G36*
X110456505Y-80706204D02*
X110480773Y-80709804D01*
X110504572Y-80715765D01*
X110527671Y-80724030D01*
X110549850Y-80734520D01*
X110570893Y-80747132D01*
X110590599Y-80761747D01*
X110608777Y-80778223D01*
X110625253Y-80796401D01*
X110639868Y-80816107D01*
X110652480Y-80837150D01*
X110662970Y-80859329D01*
X110671235Y-80882428D01*
X110677196Y-80906227D01*
X110680796Y-80930495D01*
X110682000Y-80954999D01*
X110682000Y-81605001D01*
X110680796Y-81629505D01*
X110677196Y-81653773D01*
X110671235Y-81677572D01*
X110662970Y-81700671D01*
X110652480Y-81722850D01*
X110639868Y-81743893D01*
X110625253Y-81763599D01*
X110608777Y-81781777D01*
X110590599Y-81798253D01*
X110570893Y-81812868D01*
X110549850Y-81825480D01*
X110527671Y-81835970D01*
X110504572Y-81844235D01*
X110480773Y-81850196D01*
X110456505Y-81853796D01*
X110432001Y-81855000D01*
X109531999Y-81855000D01*
X109507495Y-81853796D01*
X109483227Y-81850196D01*
X109459428Y-81844235D01*
X109436329Y-81835970D01*
X109414150Y-81825480D01*
X109393107Y-81812868D01*
X109373401Y-81798253D01*
X109355223Y-81781777D01*
X109338747Y-81763599D01*
X109324132Y-81743893D01*
X109311520Y-81722850D01*
X109301030Y-81700671D01*
X109292765Y-81677572D01*
X109286804Y-81653773D01*
X109283204Y-81629505D01*
X109282000Y-81605001D01*
X109282000Y-80954999D01*
X109283204Y-80930495D01*
X109286804Y-80906227D01*
X109292765Y-80882428D01*
X109301030Y-80859329D01*
X109311520Y-80837150D01*
X109324132Y-80816107D01*
X109338747Y-80796401D01*
X109355223Y-80778223D01*
X109373401Y-80761747D01*
X109393107Y-80747132D01*
X109414150Y-80734520D01*
X109436329Y-80724030D01*
X109459428Y-80715765D01*
X109483227Y-80709804D01*
X109507495Y-80706204D01*
X109531999Y-80705000D01*
X110432001Y-80705000D01*
X110456505Y-80706204D01*
X110456505Y-80706204D01*
G37*
D12*
X109982000Y-81280000D03*
D10*
G36*
X110456505Y-78656204D02*
X110480773Y-78659804D01*
X110504572Y-78665765D01*
X110527671Y-78674030D01*
X110549850Y-78684520D01*
X110570893Y-78697132D01*
X110590599Y-78711747D01*
X110608777Y-78728223D01*
X110625253Y-78746401D01*
X110639868Y-78766107D01*
X110652480Y-78787150D01*
X110662970Y-78809329D01*
X110671235Y-78832428D01*
X110677196Y-78856227D01*
X110680796Y-78880495D01*
X110682000Y-78904999D01*
X110682000Y-79555001D01*
X110680796Y-79579505D01*
X110677196Y-79603773D01*
X110671235Y-79627572D01*
X110662970Y-79650671D01*
X110652480Y-79672850D01*
X110639868Y-79693893D01*
X110625253Y-79713599D01*
X110608777Y-79731777D01*
X110590599Y-79748253D01*
X110570893Y-79762868D01*
X110549850Y-79775480D01*
X110527671Y-79785970D01*
X110504572Y-79794235D01*
X110480773Y-79800196D01*
X110456505Y-79803796D01*
X110432001Y-79805000D01*
X109531999Y-79805000D01*
X109507495Y-79803796D01*
X109483227Y-79800196D01*
X109459428Y-79794235D01*
X109436329Y-79785970D01*
X109414150Y-79775480D01*
X109393107Y-79762868D01*
X109373401Y-79748253D01*
X109355223Y-79731777D01*
X109338747Y-79713599D01*
X109324132Y-79693893D01*
X109311520Y-79672850D01*
X109301030Y-79650671D01*
X109292765Y-79627572D01*
X109286804Y-79603773D01*
X109283204Y-79579505D01*
X109282000Y-79555001D01*
X109282000Y-78904999D01*
X109283204Y-78880495D01*
X109286804Y-78856227D01*
X109292765Y-78832428D01*
X109301030Y-78809329D01*
X109311520Y-78787150D01*
X109324132Y-78766107D01*
X109338747Y-78746401D01*
X109355223Y-78728223D01*
X109373401Y-78711747D01*
X109393107Y-78697132D01*
X109414150Y-78684520D01*
X109436329Y-78674030D01*
X109459428Y-78665765D01*
X109483227Y-78659804D01*
X109507495Y-78656204D01*
X109531999Y-78655000D01*
X110432001Y-78655000D01*
X110456505Y-78656204D01*
X110456505Y-78656204D01*
G37*
D12*
X109982000Y-79230000D03*
G04 #@! TD*
D10*
G04 #@! TO.C,C3*
G36*
X163034505Y-89106204D02*
X163058773Y-89109804D01*
X163082572Y-89115765D01*
X163105671Y-89124030D01*
X163127850Y-89134520D01*
X163148893Y-89147132D01*
X163168599Y-89161747D01*
X163186777Y-89178223D01*
X163203253Y-89196401D01*
X163217868Y-89216107D01*
X163230480Y-89237150D01*
X163240970Y-89259329D01*
X163249235Y-89282428D01*
X163255196Y-89306227D01*
X163258796Y-89330495D01*
X163260000Y-89354999D01*
X163260000Y-90005001D01*
X163258796Y-90029505D01*
X163255196Y-90053773D01*
X163249235Y-90077572D01*
X163240970Y-90100671D01*
X163230480Y-90122850D01*
X163217868Y-90143893D01*
X163203253Y-90163599D01*
X163186777Y-90181777D01*
X163168599Y-90198253D01*
X163148893Y-90212868D01*
X163127850Y-90225480D01*
X163105671Y-90235970D01*
X163082572Y-90244235D01*
X163058773Y-90250196D01*
X163034505Y-90253796D01*
X163010001Y-90255000D01*
X162109999Y-90255000D01*
X162085495Y-90253796D01*
X162061227Y-90250196D01*
X162037428Y-90244235D01*
X162014329Y-90235970D01*
X161992150Y-90225480D01*
X161971107Y-90212868D01*
X161951401Y-90198253D01*
X161933223Y-90181777D01*
X161916747Y-90163599D01*
X161902132Y-90143893D01*
X161889520Y-90122850D01*
X161879030Y-90100671D01*
X161870765Y-90077572D01*
X161864804Y-90053773D01*
X161861204Y-90029505D01*
X161860000Y-90005001D01*
X161860000Y-89354999D01*
X161861204Y-89330495D01*
X161864804Y-89306227D01*
X161870765Y-89282428D01*
X161879030Y-89259329D01*
X161889520Y-89237150D01*
X161902132Y-89216107D01*
X161916747Y-89196401D01*
X161933223Y-89178223D01*
X161951401Y-89161747D01*
X161971107Y-89147132D01*
X161992150Y-89134520D01*
X162014329Y-89124030D01*
X162037428Y-89115765D01*
X162061227Y-89109804D01*
X162085495Y-89106204D01*
X162109999Y-89105000D01*
X163010001Y-89105000D01*
X163034505Y-89106204D01*
X163034505Y-89106204D01*
G37*
D12*
X162560000Y-89680000D03*
D10*
G36*
X163034505Y-87056204D02*
X163058773Y-87059804D01*
X163082572Y-87065765D01*
X163105671Y-87074030D01*
X163127850Y-87084520D01*
X163148893Y-87097132D01*
X163168599Y-87111747D01*
X163186777Y-87128223D01*
X163203253Y-87146401D01*
X163217868Y-87166107D01*
X163230480Y-87187150D01*
X163240970Y-87209329D01*
X163249235Y-87232428D01*
X163255196Y-87256227D01*
X163258796Y-87280495D01*
X163260000Y-87304999D01*
X163260000Y-87955001D01*
X163258796Y-87979505D01*
X163255196Y-88003773D01*
X163249235Y-88027572D01*
X163240970Y-88050671D01*
X163230480Y-88072850D01*
X163217868Y-88093893D01*
X163203253Y-88113599D01*
X163186777Y-88131777D01*
X163168599Y-88148253D01*
X163148893Y-88162868D01*
X163127850Y-88175480D01*
X163105671Y-88185970D01*
X163082572Y-88194235D01*
X163058773Y-88200196D01*
X163034505Y-88203796D01*
X163010001Y-88205000D01*
X162109999Y-88205000D01*
X162085495Y-88203796D01*
X162061227Y-88200196D01*
X162037428Y-88194235D01*
X162014329Y-88185970D01*
X161992150Y-88175480D01*
X161971107Y-88162868D01*
X161951401Y-88148253D01*
X161933223Y-88131777D01*
X161916747Y-88113599D01*
X161902132Y-88093893D01*
X161889520Y-88072850D01*
X161879030Y-88050671D01*
X161870765Y-88027572D01*
X161864804Y-88003773D01*
X161861204Y-87979505D01*
X161860000Y-87955001D01*
X161860000Y-87304999D01*
X161861204Y-87280495D01*
X161864804Y-87256227D01*
X161870765Y-87232428D01*
X161879030Y-87209329D01*
X161889520Y-87187150D01*
X161902132Y-87166107D01*
X161916747Y-87146401D01*
X161933223Y-87128223D01*
X161951401Y-87111747D01*
X161971107Y-87097132D01*
X161992150Y-87084520D01*
X162014329Y-87074030D01*
X162037428Y-87065765D01*
X162061227Y-87059804D01*
X162085495Y-87056204D01*
X162109999Y-87055000D01*
X163010001Y-87055000D01*
X163034505Y-87056204D01*
X163034505Y-87056204D01*
G37*
D12*
X162560000Y-87630000D03*
G04 #@! TD*
D10*
G04 #@! TO.C,C4*
G36*
X163034505Y-64686204D02*
X163058773Y-64689804D01*
X163082572Y-64695765D01*
X163105671Y-64704030D01*
X163127850Y-64714520D01*
X163148893Y-64727132D01*
X163168599Y-64741747D01*
X163186777Y-64758223D01*
X163203253Y-64776401D01*
X163217868Y-64796107D01*
X163230480Y-64817150D01*
X163240970Y-64839329D01*
X163249235Y-64862428D01*
X163255196Y-64886227D01*
X163258796Y-64910495D01*
X163260000Y-64934999D01*
X163260000Y-65585001D01*
X163258796Y-65609505D01*
X163255196Y-65633773D01*
X163249235Y-65657572D01*
X163240970Y-65680671D01*
X163230480Y-65702850D01*
X163217868Y-65723893D01*
X163203253Y-65743599D01*
X163186777Y-65761777D01*
X163168599Y-65778253D01*
X163148893Y-65792868D01*
X163127850Y-65805480D01*
X163105671Y-65815970D01*
X163082572Y-65824235D01*
X163058773Y-65830196D01*
X163034505Y-65833796D01*
X163010001Y-65835000D01*
X162109999Y-65835000D01*
X162085495Y-65833796D01*
X162061227Y-65830196D01*
X162037428Y-65824235D01*
X162014329Y-65815970D01*
X161992150Y-65805480D01*
X161971107Y-65792868D01*
X161951401Y-65778253D01*
X161933223Y-65761777D01*
X161916747Y-65743599D01*
X161902132Y-65723893D01*
X161889520Y-65702850D01*
X161879030Y-65680671D01*
X161870765Y-65657572D01*
X161864804Y-65633773D01*
X161861204Y-65609505D01*
X161860000Y-65585001D01*
X161860000Y-64934999D01*
X161861204Y-64910495D01*
X161864804Y-64886227D01*
X161870765Y-64862428D01*
X161879030Y-64839329D01*
X161889520Y-64817150D01*
X161902132Y-64796107D01*
X161916747Y-64776401D01*
X161933223Y-64758223D01*
X161951401Y-64741747D01*
X161971107Y-64727132D01*
X161992150Y-64714520D01*
X162014329Y-64704030D01*
X162037428Y-64695765D01*
X162061227Y-64689804D01*
X162085495Y-64686204D01*
X162109999Y-64685000D01*
X163010001Y-64685000D01*
X163034505Y-64686204D01*
X163034505Y-64686204D01*
G37*
D12*
X162560000Y-65260000D03*
D10*
G36*
X163034505Y-66736204D02*
X163058773Y-66739804D01*
X163082572Y-66745765D01*
X163105671Y-66754030D01*
X163127850Y-66764520D01*
X163148893Y-66777132D01*
X163168599Y-66791747D01*
X163186777Y-66808223D01*
X163203253Y-66826401D01*
X163217868Y-66846107D01*
X163230480Y-66867150D01*
X163240970Y-66889329D01*
X163249235Y-66912428D01*
X163255196Y-66936227D01*
X163258796Y-66960495D01*
X163260000Y-66984999D01*
X163260000Y-67635001D01*
X163258796Y-67659505D01*
X163255196Y-67683773D01*
X163249235Y-67707572D01*
X163240970Y-67730671D01*
X163230480Y-67752850D01*
X163217868Y-67773893D01*
X163203253Y-67793599D01*
X163186777Y-67811777D01*
X163168599Y-67828253D01*
X163148893Y-67842868D01*
X163127850Y-67855480D01*
X163105671Y-67865970D01*
X163082572Y-67874235D01*
X163058773Y-67880196D01*
X163034505Y-67883796D01*
X163010001Y-67885000D01*
X162109999Y-67885000D01*
X162085495Y-67883796D01*
X162061227Y-67880196D01*
X162037428Y-67874235D01*
X162014329Y-67865970D01*
X161992150Y-67855480D01*
X161971107Y-67842868D01*
X161951401Y-67828253D01*
X161933223Y-67811777D01*
X161916747Y-67793599D01*
X161902132Y-67773893D01*
X161889520Y-67752850D01*
X161879030Y-67730671D01*
X161870765Y-67707572D01*
X161864804Y-67683773D01*
X161861204Y-67659505D01*
X161860000Y-67635001D01*
X161860000Y-66984999D01*
X161861204Y-66960495D01*
X161864804Y-66936227D01*
X161870765Y-66912428D01*
X161879030Y-66889329D01*
X161889520Y-66867150D01*
X161902132Y-66846107D01*
X161916747Y-66826401D01*
X161933223Y-66808223D01*
X161951401Y-66791747D01*
X161971107Y-66777132D01*
X161992150Y-66764520D01*
X162014329Y-66754030D01*
X162037428Y-66745765D01*
X162061227Y-66739804D01*
X162085495Y-66736204D01*
X162109999Y-66735000D01*
X163010001Y-66735000D01*
X163034505Y-66736204D01*
X163034505Y-66736204D01*
G37*
D12*
X162560000Y-67310000D03*
G04 #@! TD*
M02*
