G04 #@! TF.GenerationSoftware,KiCad,Pcbnew,(5.0.2)-1*
G04 #@! TF.CreationDate,2019-02-12T20:31:54-06:00*
G04 #@! TF.ProjectId,Nixie-PSU,4e697869-652d-4505-9355-2e6b69636164,rev?*
G04 #@! TF.SameCoordinates,Original*
G04 #@! TF.FileFunction,Legend,Bot*
G04 #@! TF.FilePolarity,Positive*
%FSLAX46Y46*%
G04 Gerber Fmt 4.6, Leading zero omitted, Abs format (unit mm)*
G04 Created by KiCad (PCBNEW (5.0.2)-1) date 2/12/2019 8:31:54 PM*
%MOMM*%
%LPD*%
G01*
G04 APERTURE LIST*
%ADD10C,0.300000*%
%ADD11C,0.120000*%
%ADD12C,0.150000*%
G04 APERTURE END LIST*
D10*
X141877142Y-55553571D02*
X141591428Y-56553571D01*
X141305714Y-55839285D01*
X141020000Y-56553571D01*
X140734285Y-55553571D01*
X140305714Y-55553571D02*
X140020000Y-56553571D01*
X139734285Y-55839285D01*
X139448571Y-56553571D01*
X139162857Y-55553571D01*
X138734285Y-55553571D02*
X138448571Y-56553571D01*
X138162857Y-55839285D01*
X137877142Y-56553571D01*
X137591428Y-55553571D01*
X137020000Y-56410714D02*
X136948571Y-56482142D01*
X137020000Y-56553571D01*
X137091428Y-56482142D01*
X137020000Y-56410714D01*
X137020000Y-56553571D01*
X136305714Y-56553571D02*
X136305714Y-55053571D01*
X135805714Y-56125000D01*
X135305714Y-55053571D01*
X135305714Y-56553571D01*
X133948571Y-56553571D02*
X133948571Y-55767857D01*
X134020000Y-55625000D01*
X134162857Y-55553571D01*
X134448571Y-55553571D01*
X134591428Y-55625000D01*
X133948571Y-56482142D02*
X134091428Y-56553571D01*
X134448571Y-56553571D01*
X134591428Y-56482142D01*
X134662857Y-56339285D01*
X134662857Y-56196428D01*
X134591428Y-56053571D01*
X134448571Y-55982142D01*
X134091428Y-55982142D01*
X133948571Y-55910714D01*
X133234285Y-56553571D02*
X133234285Y-55553571D01*
X133234285Y-55839285D02*
X133162857Y-55696428D01*
X133091428Y-55625000D01*
X132948571Y-55553571D01*
X132805714Y-55553571D01*
X132305714Y-56553571D02*
X132305714Y-55053571D01*
X132162857Y-55982142D02*
X131734285Y-56553571D01*
X131734285Y-55553571D02*
X132305714Y-56125000D01*
X130591428Y-55767857D02*
X131091428Y-55767857D01*
X131091428Y-56553571D02*
X131091428Y-55053571D01*
X130377142Y-55053571D01*
X129805714Y-56553571D02*
X129805714Y-55553571D01*
X129805714Y-55839285D02*
X129734285Y-55696428D01*
X129662857Y-55625000D01*
X129520000Y-55553571D01*
X129377142Y-55553571D01*
X128662857Y-56553571D02*
X128805714Y-56482142D01*
X128877142Y-56410714D01*
X128948571Y-56267857D01*
X128948571Y-55839285D01*
X128877142Y-55696428D01*
X128805714Y-55625000D01*
X128662857Y-55553571D01*
X128448571Y-55553571D01*
X128305714Y-55625000D01*
X128234285Y-55696428D01*
X128162857Y-55839285D01*
X128162857Y-56267857D01*
X128234285Y-56410714D01*
X128305714Y-56482142D01*
X128448571Y-56553571D01*
X128662857Y-56553571D01*
X127520000Y-56553571D02*
X127520000Y-55553571D01*
X127520000Y-55696428D02*
X127448571Y-55625000D01*
X127305714Y-55553571D01*
X127091428Y-55553571D01*
X126948571Y-55625000D01*
X126877142Y-55767857D01*
X126877142Y-56553571D01*
X126877142Y-55767857D02*
X126805714Y-55625000D01*
X126662857Y-55553571D01*
X126448571Y-55553571D01*
X126305714Y-55625000D01*
X126234285Y-55767857D01*
X126234285Y-56553571D01*
X125591428Y-56482142D02*
X125377142Y-56553571D01*
X125020000Y-56553571D01*
X124877142Y-56482142D01*
X124805714Y-56410714D01*
X124734285Y-56267857D01*
X124734285Y-56125000D01*
X124805714Y-55982142D01*
X124877142Y-55910714D01*
X125020000Y-55839285D01*
X125305714Y-55767857D01*
X125448571Y-55696428D01*
X125520000Y-55625000D01*
X125591428Y-55482142D01*
X125591428Y-55339285D01*
X125520000Y-55196428D01*
X125448571Y-55125000D01*
X125305714Y-55053571D01*
X124948571Y-55053571D01*
X124734285Y-55125000D01*
X123448571Y-56553571D02*
X123448571Y-55767857D01*
X123520000Y-55625000D01*
X123662857Y-55553571D01*
X123948571Y-55553571D01*
X124091428Y-55625000D01*
X123448571Y-56482142D02*
X123591428Y-56553571D01*
X123948571Y-56553571D01*
X124091428Y-56482142D01*
X124162857Y-56339285D01*
X124162857Y-56196428D01*
X124091428Y-56053571D01*
X123948571Y-55982142D01*
X123591428Y-55982142D01*
X123448571Y-55910714D01*
X122520000Y-56553571D02*
X122662857Y-56482142D01*
X122734285Y-56339285D01*
X122734285Y-55053571D01*
X121377142Y-56482142D02*
X121520000Y-56553571D01*
X121805714Y-56553571D01*
X121948571Y-56482142D01*
X122020000Y-56339285D01*
X122020000Y-55767857D01*
X121948571Y-55625000D01*
X121805714Y-55553571D01*
X121520000Y-55553571D01*
X121377142Y-55625000D01*
X121305714Y-55767857D01*
X121305714Y-55910714D01*
X122020000Y-56053571D01*
X120734285Y-56482142D02*
X120591428Y-56553571D01*
X120305714Y-56553571D01*
X120162857Y-56482142D01*
X120091428Y-56339285D01*
X120091428Y-56267857D01*
X120162857Y-56125000D01*
X120305714Y-56053571D01*
X120520000Y-56053571D01*
X120662857Y-55982142D01*
X120734285Y-55839285D01*
X120734285Y-55767857D01*
X120662857Y-55625000D01*
X120520000Y-55553571D01*
X120305714Y-55553571D01*
X120162857Y-55625000D01*
X119448571Y-56410714D02*
X119377142Y-56482142D01*
X119448571Y-56553571D01*
X119520000Y-56482142D01*
X119448571Y-56410714D01*
X119448571Y-56553571D01*
X118091428Y-56482142D02*
X118234285Y-56553571D01*
X118520000Y-56553571D01*
X118662857Y-56482142D01*
X118734285Y-56410714D01*
X118805714Y-56267857D01*
X118805714Y-55839285D01*
X118734285Y-55696428D01*
X118662857Y-55625000D01*
X118520000Y-55553571D01*
X118234285Y-55553571D01*
X118091428Y-55625000D01*
X117234285Y-56553571D02*
X117377142Y-56482142D01*
X117448571Y-56410714D01*
X117520000Y-56267857D01*
X117520000Y-55839285D01*
X117448571Y-55696428D01*
X117377142Y-55625000D01*
X117234285Y-55553571D01*
X117020000Y-55553571D01*
X116877142Y-55625000D01*
X116805714Y-55696428D01*
X116734285Y-55839285D01*
X116734285Y-56267857D01*
X116805714Y-56410714D01*
X116877142Y-56482142D01*
X117020000Y-56553571D01*
X117234285Y-56553571D01*
X116091428Y-56553571D02*
X116091428Y-55553571D01*
X116091428Y-55696428D02*
X116020000Y-55625000D01*
X115877142Y-55553571D01*
X115662857Y-55553571D01*
X115520000Y-55625000D01*
X115448571Y-55767857D01*
X115448571Y-56553571D01*
X115448571Y-55767857D02*
X115377142Y-55625000D01*
X115234285Y-55553571D01*
X115020000Y-55553571D01*
X114877142Y-55625000D01*
X114805714Y-55767857D01*
X114805714Y-56553571D01*
X141055714Y-59103571D02*
X141055714Y-57603571D01*
X140198571Y-59103571D01*
X140198571Y-57603571D01*
X139484285Y-59103571D02*
X139484285Y-58103571D01*
X139484285Y-57603571D02*
X139555714Y-57675000D01*
X139484285Y-57746428D01*
X139412857Y-57675000D01*
X139484285Y-57603571D01*
X139484285Y-57746428D01*
X138912857Y-59103571D02*
X138127142Y-58103571D01*
X138912857Y-58103571D02*
X138127142Y-59103571D01*
X137555714Y-59103571D02*
X137555714Y-58103571D01*
X137555714Y-57603571D02*
X137627142Y-57675000D01*
X137555714Y-57746428D01*
X137484285Y-57675000D01*
X137555714Y-57603571D01*
X137555714Y-57746428D01*
X136270000Y-59032142D02*
X136412857Y-59103571D01*
X136698571Y-59103571D01*
X136841428Y-59032142D01*
X136912857Y-58889285D01*
X136912857Y-58317857D01*
X136841428Y-58175000D01*
X136698571Y-58103571D01*
X136412857Y-58103571D01*
X136270000Y-58175000D01*
X136198571Y-58317857D01*
X136198571Y-58460714D01*
X136912857Y-58603571D01*
X134412857Y-59103571D02*
X134412857Y-57603571D01*
X133841428Y-57603571D01*
X133698571Y-57675000D01*
X133627142Y-57746428D01*
X133555714Y-57889285D01*
X133555714Y-58103571D01*
X133627142Y-58246428D01*
X133698571Y-58317857D01*
X133841428Y-58389285D01*
X134412857Y-58389285D01*
X132984285Y-59032142D02*
X132770000Y-59103571D01*
X132412857Y-59103571D01*
X132270000Y-59032142D01*
X132198571Y-58960714D01*
X132127142Y-58817857D01*
X132127142Y-58675000D01*
X132198571Y-58532142D01*
X132270000Y-58460714D01*
X132412857Y-58389285D01*
X132698571Y-58317857D01*
X132841428Y-58246428D01*
X132912857Y-58175000D01*
X132984285Y-58032142D01*
X132984285Y-57889285D01*
X132912857Y-57746428D01*
X132841428Y-57675000D01*
X132698571Y-57603571D01*
X132341428Y-57603571D01*
X132127142Y-57675000D01*
X131484285Y-57603571D02*
X131484285Y-58817857D01*
X131412857Y-58960714D01*
X131341428Y-59032142D01*
X131198571Y-59103571D01*
X130912857Y-59103571D01*
X130770000Y-59032142D01*
X130698571Y-58960714D01*
X130627142Y-58817857D01*
X130627142Y-57603571D01*
X128912857Y-58103571D02*
X128555714Y-59103571D01*
X128198571Y-58103571D01*
X127698571Y-57746428D02*
X127627142Y-57675000D01*
X127484285Y-57603571D01*
X127127142Y-57603571D01*
X126984285Y-57675000D01*
X126912857Y-57746428D01*
X126841428Y-57889285D01*
X126841428Y-58032142D01*
X126912857Y-58246428D01*
X127770000Y-59103571D01*
X126841428Y-59103571D01*
X125912857Y-57603571D02*
X125770000Y-57603571D01*
X125627142Y-57675000D01*
X125555714Y-57746428D01*
X125484285Y-57889285D01*
X125412857Y-58175000D01*
X125412857Y-58532142D01*
X125484285Y-58817857D01*
X125555714Y-58960714D01*
X125627142Y-59032142D01*
X125770000Y-59103571D01*
X125912857Y-59103571D01*
X126055714Y-59032142D01*
X126127142Y-58960714D01*
X126198571Y-58817857D01*
X126270000Y-58532142D01*
X126270000Y-58175000D01*
X126198571Y-57889285D01*
X126127142Y-57746428D01*
X126055714Y-57675000D01*
X125912857Y-57603571D01*
X123984285Y-59103571D02*
X124841428Y-59103571D01*
X124412857Y-59103571D02*
X124412857Y-57603571D01*
X124555714Y-57817857D01*
X124698571Y-57960714D01*
X124841428Y-58032142D01*
X123127142Y-58246428D02*
X123270000Y-58175000D01*
X123341428Y-58103571D01*
X123412857Y-57960714D01*
X123412857Y-57889285D01*
X123341428Y-57746428D01*
X123270000Y-57675000D01*
X123127142Y-57603571D01*
X122841428Y-57603571D01*
X122698571Y-57675000D01*
X122627142Y-57746428D01*
X122555714Y-57889285D01*
X122555714Y-57960714D01*
X122627142Y-58103571D01*
X122698571Y-58175000D01*
X122841428Y-58246428D01*
X123127142Y-58246428D01*
X123270000Y-58317857D01*
X123341428Y-58389285D01*
X123412857Y-58532142D01*
X123412857Y-58817857D01*
X123341428Y-58960714D01*
X123270000Y-59032142D01*
X123127142Y-59103571D01*
X122841428Y-59103571D01*
X122698571Y-59032142D01*
X122627142Y-58960714D01*
X122555714Y-58817857D01*
X122555714Y-58532142D01*
X122627142Y-58389285D01*
X122698571Y-58317857D01*
X122841428Y-58246428D01*
X121912857Y-58960714D02*
X121841428Y-59032142D01*
X121912857Y-59103571D01*
X121984285Y-59032142D01*
X121912857Y-58960714D01*
X121912857Y-59103571D01*
X120912857Y-57603571D02*
X120770000Y-57603571D01*
X120627142Y-57675000D01*
X120555714Y-57746428D01*
X120484285Y-57889285D01*
X120412857Y-58175000D01*
X120412857Y-58532142D01*
X120484285Y-58817857D01*
X120555714Y-58960714D01*
X120627142Y-59032142D01*
X120770000Y-59103571D01*
X120912857Y-59103571D01*
X121055714Y-59032142D01*
X121127142Y-58960714D01*
X121198571Y-58817857D01*
X121270000Y-58532142D01*
X121270000Y-58175000D01*
X121198571Y-57889285D01*
X121127142Y-57746428D01*
X121055714Y-57675000D01*
X120912857Y-57603571D01*
X119841428Y-57746428D02*
X119770000Y-57675000D01*
X119627142Y-57603571D01*
X119270000Y-57603571D01*
X119127142Y-57675000D01*
X119055714Y-57746428D01*
X118984285Y-57889285D01*
X118984285Y-58032142D01*
X119055714Y-58246428D01*
X119912857Y-59103571D01*
X118984285Y-59103571D01*
X118341428Y-58960714D02*
X118270000Y-59032142D01*
X118341428Y-59103571D01*
X118412857Y-59032142D01*
X118341428Y-58960714D01*
X118341428Y-59103571D01*
X116841428Y-59103571D02*
X117698571Y-59103571D01*
X117270000Y-59103571D02*
X117270000Y-57603571D01*
X117412857Y-57817857D01*
X117555714Y-57960714D01*
X117698571Y-58032142D01*
X116270000Y-57746428D02*
X116198571Y-57675000D01*
X116055714Y-57603571D01*
X115698571Y-57603571D01*
X115555714Y-57675000D01*
X115484285Y-57746428D01*
X115412857Y-57889285D01*
X115412857Y-58032142D01*
X115484285Y-58246428D01*
X116341428Y-59103571D01*
X115412857Y-59103571D01*
D11*
G04 #@! TO.C,C1*
X133694000Y-92042064D02*
X133694000Y-90837936D01*
X130974000Y-92042064D02*
X130974000Y-90837936D01*
G04 #@! TO.C,C2*
X110692000Y-80516252D02*
X110692000Y-79993748D01*
X109272000Y-80516252D02*
X109272000Y-79993748D01*
G04 #@! TO.C,C3*
X163270000Y-88393748D02*
X163270000Y-88916252D01*
X161850000Y-88393748D02*
X161850000Y-88916252D01*
G04 #@! TO.C,C4*
X161850000Y-66023748D02*
X161850000Y-66546252D01*
X163270000Y-66023748D02*
X163270000Y-66546252D01*
G04 #@! TO.C,C1*
D12*
X130405142Y-91273333D02*
X130452761Y-91225714D01*
X130500380Y-91082857D01*
X130500380Y-90987619D01*
X130452761Y-90844761D01*
X130357523Y-90749523D01*
X130262285Y-90701904D01*
X130071809Y-90654285D01*
X129928952Y-90654285D01*
X129738476Y-90701904D01*
X129643238Y-90749523D01*
X129548000Y-90844761D01*
X129500380Y-90987619D01*
X129500380Y-91082857D01*
X129548000Y-91225714D01*
X129595619Y-91273333D01*
X130500380Y-92225714D02*
X130500380Y-91654285D01*
X130500380Y-91940000D02*
X129500380Y-91940000D01*
X129643238Y-91844761D01*
X129738476Y-91749523D01*
X129786095Y-91654285D01*
G04 #@! TO.C,C2*
X108561142Y-80097333D02*
X108608761Y-80049714D01*
X108656380Y-79906857D01*
X108656380Y-79811619D01*
X108608761Y-79668761D01*
X108513523Y-79573523D01*
X108418285Y-79525904D01*
X108227809Y-79478285D01*
X108084952Y-79478285D01*
X107894476Y-79525904D01*
X107799238Y-79573523D01*
X107704000Y-79668761D01*
X107656380Y-79811619D01*
X107656380Y-79906857D01*
X107704000Y-80049714D01*
X107751619Y-80097333D01*
X107751619Y-80478285D02*
X107704000Y-80525904D01*
X107656380Y-80621142D01*
X107656380Y-80859238D01*
X107704000Y-80954476D01*
X107751619Y-81002095D01*
X107846857Y-81049714D01*
X107942095Y-81049714D01*
X108084952Y-81002095D01*
X108656380Y-80430666D01*
X108656380Y-81049714D01*
G04 #@! TO.C,C3*
X161139142Y-88479333D02*
X161186761Y-88431714D01*
X161234380Y-88288857D01*
X161234380Y-88193619D01*
X161186761Y-88050761D01*
X161091523Y-87955523D01*
X160996285Y-87907904D01*
X160805809Y-87860285D01*
X160662952Y-87860285D01*
X160472476Y-87907904D01*
X160377238Y-87955523D01*
X160282000Y-88050761D01*
X160234380Y-88193619D01*
X160234380Y-88288857D01*
X160282000Y-88431714D01*
X160329619Y-88479333D01*
X160234380Y-88812666D02*
X160234380Y-89431714D01*
X160615333Y-89098380D01*
X160615333Y-89241238D01*
X160662952Y-89336476D01*
X160710571Y-89384095D01*
X160805809Y-89431714D01*
X161043904Y-89431714D01*
X161139142Y-89384095D01*
X161186761Y-89336476D01*
X161234380Y-89241238D01*
X161234380Y-88955523D01*
X161186761Y-88860285D01*
X161139142Y-88812666D01*
G04 #@! TO.C,C4*
X161139142Y-66118333D02*
X161186761Y-66070714D01*
X161234380Y-65927857D01*
X161234380Y-65832619D01*
X161186761Y-65689761D01*
X161091523Y-65594523D01*
X160996285Y-65546904D01*
X160805809Y-65499285D01*
X160662952Y-65499285D01*
X160472476Y-65546904D01*
X160377238Y-65594523D01*
X160282000Y-65689761D01*
X160234380Y-65832619D01*
X160234380Y-65927857D01*
X160282000Y-66070714D01*
X160329619Y-66118333D01*
X160567714Y-66975476D02*
X161234380Y-66975476D01*
X160186761Y-66737380D02*
X160901047Y-66499285D01*
X160901047Y-67118333D01*
G04 #@! TD*
M02*
