G04 #@! TF.GenerationSoftware,KiCad,Pcbnew,(5.0.2)-1*
G04 #@! TF.CreationDate,2019-02-12T20:31:54-06:00*
G04 #@! TF.ProjectId,Nixie-PSU,4e697869-652d-4505-9355-2e6b69636164,rev?*
G04 #@! TF.SameCoordinates,Original*
G04 #@! TF.FileFunction,Copper,L2,Bot*
G04 #@! TF.FilePolarity,Positive*
%FSLAX46Y46*%
G04 Gerber Fmt 4.6, Leading zero omitted, Abs format (unit mm)*
G04 Created by KiCad (PCBNEW (5.0.2)-1) date 2/12/2019 8:31:54 PM*
%MOMM*%
%LPD*%
G01*
G04 APERTURE LIST*
G04 #@! TA.AperFunction,Conductor*
%ADD10C,0.100000*%
G04 #@! TD*
G04 #@! TA.AperFunction,SMDPad,CuDef*
%ADD11C,1.425000*%
G04 #@! TD*
G04 #@! TA.AperFunction,SMDPad,CuDef*
%ADD12C,1.150000*%
G04 #@! TD*
G04 #@! TA.AperFunction,ComponentPad*
%ADD13C,3.000000*%
G04 #@! TD*
G04 #@! TA.AperFunction,ComponentPad*
%ADD14R,3.000000X3.000000*%
G04 #@! TD*
G04 #@! TA.AperFunction,ComponentPad*
%ADD15C,1.800000*%
G04 #@! TD*
G04 #@! TA.AperFunction,ComponentPad*
%ADD16R,1.600000X1.600000*%
G04 #@! TD*
G04 #@! TA.AperFunction,ComponentPad*
%ADD17O,1.600000X1.600000*%
G04 #@! TD*
G04 #@! TA.AperFunction,ComponentPad*
%ADD18R,2.000000X2.000000*%
G04 #@! TD*
G04 #@! TA.AperFunction,ComponentPad*
%ADD19C,2.000000*%
G04 #@! TD*
G04 #@! TA.AperFunction,ComponentPad*
%ADD20C,6.000000*%
G04 #@! TD*
G04 #@! TA.AperFunction,ComponentPad*
%ADD21C,2.700000*%
G04 #@! TD*
G04 #@! TA.AperFunction,ComponentPad*
%ADD22R,1.905000X2.000000*%
G04 #@! TD*
G04 #@! TA.AperFunction,ComponentPad*
%ADD23O,1.905000X2.000000*%
G04 #@! TD*
G04 #@! TA.AperFunction,ComponentPad*
%ADD24R,2.100000X2.100000*%
G04 #@! TD*
G04 #@! TA.AperFunction,ComponentPad*
%ADD25C,2.100000*%
G04 #@! TD*
G04 #@! TA.AperFunction,Conductor*
%ADD26C,1.000000*%
G04 #@! TD*
G04 #@! TA.AperFunction,Conductor*
%ADD27C,2.000000*%
G04 #@! TD*
G04 #@! TA.AperFunction,Conductor*
%ADD28C,0.254000*%
G04 #@! TD*
G04 APERTURE END LIST*
D10*
G04 #@! TO.N,Net-(C1-Pad1)*
G04 #@! TO.C,C1*
G36*
X133433504Y-92216204D02*
X133457773Y-92219804D01*
X133481571Y-92225765D01*
X133504671Y-92234030D01*
X133526849Y-92244520D01*
X133547893Y-92257133D01*
X133567598Y-92271747D01*
X133585777Y-92288223D01*
X133602253Y-92306402D01*
X133616867Y-92326107D01*
X133629480Y-92347151D01*
X133639970Y-92369329D01*
X133648235Y-92392429D01*
X133654196Y-92416227D01*
X133657796Y-92440496D01*
X133659000Y-92465000D01*
X133659000Y-93390000D01*
X133657796Y-93414504D01*
X133654196Y-93438773D01*
X133648235Y-93462571D01*
X133639970Y-93485671D01*
X133629480Y-93507849D01*
X133616867Y-93528893D01*
X133602253Y-93548598D01*
X133585777Y-93566777D01*
X133567598Y-93583253D01*
X133547893Y-93597867D01*
X133526849Y-93610480D01*
X133504671Y-93620970D01*
X133481571Y-93629235D01*
X133457773Y-93635196D01*
X133433504Y-93638796D01*
X133409000Y-93640000D01*
X131259000Y-93640000D01*
X131234496Y-93638796D01*
X131210227Y-93635196D01*
X131186429Y-93629235D01*
X131163329Y-93620970D01*
X131141151Y-93610480D01*
X131120107Y-93597867D01*
X131100402Y-93583253D01*
X131082223Y-93566777D01*
X131065747Y-93548598D01*
X131051133Y-93528893D01*
X131038520Y-93507849D01*
X131028030Y-93485671D01*
X131019765Y-93462571D01*
X131013804Y-93438773D01*
X131010204Y-93414504D01*
X131009000Y-93390000D01*
X131009000Y-92465000D01*
X131010204Y-92440496D01*
X131013804Y-92416227D01*
X131019765Y-92392429D01*
X131028030Y-92369329D01*
X131038520Y-92347151D01*
X131051133Y-92326107D01*
X131065747Y-92306402D01*
X131082223Y-92288223D01*
X131100402Y-92271747D01*
X131120107Y-92257133D01*
X131141151Y-92244520D01*
X131163329Y-92234030D01*
X131186429Y-92225765D01*
X131210227Y-92219804D01*
X131234496Y-92216204D01*
X131259000Y-92215000D01*
X133409000Y-92215000D01*
X133433504Y-92216204D01*
X133433504Y-92216204D01*
G37*
D11*
G04 #@! TD*
G04 #@! TO.P,C1,1*
G04 #@! TO.N,Net-(C1-Pad1)*
X132334000Y-92927500D03*
D10*
G04 #@! TO.N,+12V*
G04 #@! TO.C,C1*
G36*
X133433504Y-89241204D02*
X133457773Y-89244804D01*
X133481571Y-89250765D01*
X133504671Y-89259030D01*
X133526849Y-89269520D01*
X133547893Y-89282133D01*
X133567598Y-89296747D01*
X133585777Y-89313223D01*
X133602253Y-89331402D01*
X133616867Y-89351107D01*
X133629480Y-89372151D01*
X133639970Y-89394329D01*
X133648235Y-89417429D01*
X133654196Y-89441227D01*
X133657796Y-89465496D01*
X133659000Y-89490000D01*
X133659000Y-90415000D01*
X133657796Y-90439504D01*
X133654196Y-90463773D01*
X133648235Y-90487571D01*
X133639970Y-90510671D01*
X133629480Y-90532849D01*
X133616867Y-90553893D01*
X133602253Y-90573598D01*
X133585777Y-90591777D01*
X133567598Y-90608253D01*
X133547893Y-90622867D01*
X133526849Y-90635480D01*
X133504671Y-90645970D01*
X133481571Y-90654235D01*
X133457773Y-90660196D01*
X133433504Y-90663796D01*
X133409000Y-90665000D01*
X131259000Y-90665000D01*
X131234496Y-90663796D01*
X131210227Y-90660196D01*
X131186429Y-90654235D01*
X131163329Y-90645970D01*
X131141151Y-90635480D01*
X131120107Y-90622867D01*
X131100402Y-90608253D01*
X131082223Y-90591777D01*
X131065747Y-90573598D01*
X131051133Y-90553893D01*
X131038520Y-90532849D01*
X131028030Y-90510671D01*
X131019765Y-90487571D01*
X131013804Y-90463773D01*
X131010204Y-90439504D01*
X131009000Y-90415000D01*
X131009000Y-89490000D01*
X131010204Y-89465496D01*
X131013804Y-89441227D01*
X131019765Y-89417429D01*
X131028030Y-89394329D01*
X131038520Y-89372151D01*
X131051133Y-89351107D01*
X131065747Y-89331402D01*
X131082223Y-89313223D01*
X131100402Y-89296747D01*
X131120107Y-89282133D01*
X131141151Y-89269520D01*
X131163329Y-89259030D01*
X131186429Y-89250765D01*
X131210227Y-89244804D01*
X131234496Y-89241204D01*
X131259000Y-89240000D01*
X133409000Y-89240000D01*
X133433504Y-89241204D01*
X133433504Y-89241204D01*
G37*
D11*
G04 #@! TD*
G04 #@! TO.P,C1,2*
G04 #@! TO.N,+12V*
X132334000Y-89952500D03*
D10*
G04 #@! TO.N,+12V*
G04 #@! TO.C,C2*
G36*
X110456505Y-80706204D02*
X110480773Y-80709804D01*
X110504572Y-80715765D01*
X110527671Y-80724030D01*
X110549850Y-80734520D01*
X110570893Y-80747132D01*
X110590599Y-80761747D01*
X110608777Y-80778223D01*
X110625253Y-80796401D01*
X110639868Y-80816107D01*
X110652480Y-80837150D01*
X110662970Y-80859329D01*
X110671235Y-80882428D01*
X110677196Y-80906227D01*
X110680796Y-80930495D01*
X110682000Y-80954999D01*
X110682000Y-81605001D01*
X110680796Y-81629505D01*
X110677196Y-81653773D01*
X110671235Y-81677572D01*
X110662970Y-81700671D01*
X110652480Y-81722850D01*
X110639868Y-81743893D01*
X110625253Y-81763599D01*
X110608777Y-81781777D01*
X110590599Y-81798253D01*
X110570893Y-81812868D01*
X110549850Y-81825480D01*
X110527671Y-81835970D01*
X110504572Y-81844235D01*
X110480773Y-81850196D01*
X110456505Y-81853796D01*
X110432001Y-81855000D01*
X109531999Y-81855000D01*
X109507495Y-81853796D01*
X109483227Y-81850196D01*
X109459428Y-81844235D01*
X109436329Y-81835970D01*
X109414150Y-81825480D01*
X109393107Y-81812868D01*
X109373401Y-81798253D01*
X109355223Y-81781777D01*
X109338747Y-81763599D01*
X109324132Y-81743893D01*
X109311520Y-81722850D01*
X109301030Y-81700671D01*
X109292765Y-81677572D01*
X109286804Y-81653773D01*
X109283204Y-81629505D01*
X109282000Y-81605001D01*
X109282000Y-80954999D01*
X109283204Y-80930495D01*
X109286804Y-80906227D01*
X109292765Y-80882428D01*
X109301030Y-80859329D01*
X109311520Y-80837150D01*
X109324132Y-80816107D01*
X109338747Y-80796401D01*
X109355223Y-80778223D01*
X109373401Y-80761747D01*
X109393107Y-80747132D01*
X109414150Y-80734520D01*
X109436329Y-80724030D01*
X109459428Y-80715765D01*
X109483227Y-80709804D01*
X109507495Y-80706204D01*
X109531999Y-80705000D01*
X110432001Y-80705000D01*
X110456505Y-80706204D01*
X110456505Y-80706204D01*
G37*
D12*
G04 #@! TD*
G04 #@! TO.P,C2,1*
G04 #@! TO.N,+12V*
X109982000Y-81280000D03*
D10*
G04 #@! TO.N,GND*
G04 #@! TO.C,C2*
G36*
X110456505Y-78656204D02*
X110480773Y-78659804D01*
X110504572Y-78665765D01*
X110527671Y-78674030D01*
X110549850Y-78684520D01*
X110570893Y-78697132D01*
X110590599Y-78711747D01*
X110608777Y-78728223D01*
X110625253Y-78746401D01*
X110639868Y-78766107D01*
X110652480Y-78787150D01*
X110662970Y-78809329D01*
X110671235Y-78832428D01*
X110677196Y-78856227D01*
X110680796Y-78880495D01*
X110682000Y-78904999D01*
X110682000Y-79555001D01*
X110680796Y-79579505D01*
X110677196Y-79603773D01*
X110671235Y-79627572D01*
X110662970Y-79650671D01*
X110652480Y-79672850D01*
X110639868Y-79693893D01*
X110625253Y-79713599D01*
X110608777Y-79731777D01*
X110590599Y-79748253D01*
X110570893Y-79762868D01*
X110549850Y-79775480D01*
X110527671Y-79785970D01*
X110504572Y-79794235D01*
X110480773Y-79800196D01*
X110456505Y-79803796D01*
X110432001Y-79805000D01*
X109531999Y-79805000D01*
X109507495Y-79803796D01*
X109483227Y-79800196D01*
X109459428Y-79794235D01*
X109436329Y-79785970D01*
X109414150Y-79775480D01*
X109393107Y-79762868D01*
X109373401Y-79748253D01*
X109355223Y-79731777D01*
X109338747Y-79713599D01*
X109324132Y-79693893D01*
X109311520Y-79672850D01*
X109301030Y-79650671D01*
X109292765Y-79627572D01*
X109286804Y-79603773D01*
X109283204Y-79579505D01*
X109282000Y-79555001D01*
X109282000Y-78904999D01*
X109283204Y-78880495D01*
X109286804Y-78856227D01*
X109292765Y-78832428D01*
X109301030Y-78809329D01*
X109311520Y-78787150D01*
X109324132Y-78766107D01*
X109338747Y-78746401D01*
X109355223Y-78728223D01*
X109373401Y-78711747D01*
X109393107Y-78697132D01*
X109414150Y-78684520D01*
X109436329Y-78674030D01*
X109459428Y-78665765D01*
X109483227Y-78659804D01*
X109507495Y-78656204D01*
X109531999Y-78655000D01*
X110432001Y-78655000D01*
X110456505Y-78656204D01*
X110456505Y-78656204D01*
G37*
D12*
G04 #@! TD*
G04 #@! TO.P,C2,2*
G04 #@! TO.N,GND*
X109982000Y-79230000D03*
D10*
G04 #@! TO.N,GND*
G04 #@! TO.C,C3*
G36*
X163034505Y-89106204D02*
X163058773Y-89109804D01*
X163082572Y-89115765D01*
X163105671Y-89124030D01*
X163127850Y-89134520D01*
X163148893Y-89147132D01*
X163168599Y-89161747D01*
X163186777Y-89178223D01*
X163203253Y-89196401D01*
X163217868Y-89216107D01*
X163230480Y-89237150D01*
X163240970Y-89259329D01*
X163249235Y-89282428D01*
X163255196Y-89306227D01*
X163258796Y-89330495D01*
X163260000Y-89354999D01*
X163260000Y-90005001D01*
X163258796Y-90029505D01*
X163255196Y-90053773D01*
X163249235Y-90077572D01*
X163240970Y-90100671D01*
X163230480Y-90122850D01*
X163217868Y-90143893D01*
X163203253Y-90163599D01*
X163186777Y-90181777D01*
X163168599Y-90198253D01*
X163148893Y-90212868D01*
X163127850Y-90225480D01*
X163105671Y-90235970D01*
X163082572Y-90244235D01*
X163058773Y-90250196D01*
X163034505Y-90253796D01*
X163010001Y-90255000D01*
X162109999Y-90255000D01*
X162085495Y-90253796D01*
X162061227Y-90250196D01*
X162037428Y-90244235D01*
X162014329Y-90235970D01*
X161992150Y-90225480D01*
X161971107Y-90212868D01*
X161951401Y-90198253D01*
X161933223Y-90181777D01*
X161916747Y-90163599D01*
X161902132Y-90143893D01*
X161889520Y-90122850D01*
X161879030Y-90100671D01*
X161870765Y-90077572D01*
X161864804Y-90053773D01*
X161861204Y-90029505D01*
X161860000Y-90005001D01*
X161860000Y-89354999D01*
X161861204Y-89330495D01*
X161864804Y-89306227D01*
X161870765Y-89282428D01*
X161879030Y-89259329D01*
X161889520Y-89237150D01*
X161902132Y-89216107D01*
X161916747Y-89196401D01*
X161933223Y-89178223D01*
X161951401Y-89161747D01*
X161971107Y-89147132D01*
X161992150Y-89134520D01*
X162014329Y-89124030D01*
X162037428Y-89115765D01*
X162061227Y-89109804D01*
X162085495Y-89106204D01*
X162109999Y-89105000D01*
X163010001Y-89105000D01*
X163034505Y-89106204D01*
X163034505Y-89106204D01*
G37*
D12*
G04 #@! TD*
G04 #@! TO.P,C3,2*
G04 #@! TO.N,GND*
X162560000Y-89680000D03*
D10*
G04 #@! TO.N,+5V*
G04 #@! TO.C,C3*
G36*
X163034505Y-87056204D02*
X163058773Y-87059804D01*
X163082572Y-87065765D01*
X163105671Y-87074030D01*
X163127850Y-87084520D01*
X163148893Y-87097132D01*
X163168599Y-87111747D01*
X163186777Y-87128223D01*
X163203253Y-87146401D01*
X163217868Y-87166107D01*
X163230480Y-87187150D01*
X163240970Y-87209329D01*
X163249235Y-87232428D01*
X163255196Y-87256227D01*
X163258796Y-87280495D01*
X163260000Y-87304999D01*
X163260000Y-87955001D01*
X163258796Y-87979505D01*
X163255196Y-88003773D01*
X163249235Y-88027572D01*
X163240970Y-88050671D01*
X163230480Y-88072850D01*
X163217868Y-88093893D01*
X163203253Y-88113599D01*
X163186777Y-88131777D01*
X163168599Y-88148253D01*
X163148893Y-88162868D01*
X163127850Y-88175480D01*
X163105671Y-88185970D01*
X163082572Y-88194235D01*
X163058773Y-88200196D01*
X163034505Y-88203796D01*
X163010001Y-88205000D01*
X162109999Y-88205000D01*
X162085495Y-88203796D01*
X162061227Y-88200196D01*
X162037428Y-88194235D01*
X162014329Y-88185970D01*
X161992150Y-88175480D01*
X161971107Y-88162868D01*
X161951401Y-88148253D01*
X161933223Y-88131777D01*
X161916747Y-88113599D01*
X161902132Y-88093893D01*
X161889520Y-88072850D01*
X161879030Y-88050671D01*
X161870765Y-88027572D01*
X161864804Y-88003773D01*
X161861204Y-87979505D01*
X161860000Y-87955001D01*
X161860000Y-87304999D01*
X161861204Y-87280495D01*
X161864804Y-87256227D01*
X161870765Y-87232428D01*
X161879030Y-87209329D01*
X161889520Y-87187150D01*
X161902132Y-87166107D01*
X161916747Y-87146401D01*
X161933223Y-87128223D01*
X161951401Y-87111747D01*
X161971107Y-87097132D01*
X161992150Y-87084520D01*
X162014329Y-87074030D01*
X162037428Y-87065765D01*
X162061227Y-87059804D01*
X162085495Y-87056204D01*
X162109999Y-87055000D01*
X163010001Y-87055000D01*
X163034505Y-87056204D01*
X163034505Y-87056204D01*
G37*
D12*
G04 #@! TD*
G04 #@! TO.P,C3,1*
G04 #@! TO.N,+5V*
X162560000Y-87630000D03*
D10*
G04 #@! TO.N,GND*
G04 #@! TO.C,C4*
G36*
X163034505Y-64686204D02*
X163058773Y-64689804D01*
X163082572Y-64695765D01*
X163105671Y-64704030D01*
X163127850Y-64714520D01*
X163148893Y-64727132D01*
X163168599Y-64741747D01*
X163186777Y-64758223D01*
X163203253Y-64776401D01*
X163217868Y-64796107D01*
X163230480Y-64817150D01*
X163240970Y-64839329D01*
X163249235Y-64862428D01*
X163255196Y-64886227D01*
X163258796Y-64910495D01*
X163260000Y-64934999D01*
X163260000Y-65585001D01*
X163258796Y-65609505D01*
X163255196Y-65633773D01*
X163249235Y-65657572D01*
X163240970Y-65680671D01*
X163230480Y-65702850D01*
X163217868Y-65723893D01*
X163203253Y-65743599D01*
X163186777Y-65761777D01*
X163168599Y-65778253D01*
X163148893Y-65792868D01*
X163127850Y-65805480D01*
X163105671Y-65815970D01*
X163082572Y-65824235D01*
X163058773Y-65830196D01*
X163034505Y-65833796D01*
X163010001Y-65835000D01*
X162109999Y-65835000D01*
X162085495Y-65833796D01*
X162061227Y-65830196D01*
X162037428Y-65824235D01*
X162014329Y-65815970D01*
X161992150Y-65805480D01*
X161971107Y-65792868D01*
X161951401Y-65778253D01*
X161933223Y-65761777D01*
X161916747Y-65743599D01*
X161902132Y-65723893D01*
X161889520Y-65702850D01*
X161879030Y-65680671D01*
X161870765Y-65657572D01*
X161864804Y-65633773D01*
X161861204Y-65609505D01*
X161860000Y-65585001D01*
X161860000Y-64934999D01*
X161861204Y-64910495D01*
X161864804Y-64886227D01*
X161870765Y-64862428D01*
X161879030Y-64839329D01*
X161889520Y-64817150D01*
X161902132Y-64796107D01*
X161916747Y-64776401D01*
X161933223Y-64758223D01*
X161951401Y-64741747D01*
X161971107Y-64727132D01*
X161992150Y-64714520D01*
X162014329Y-64704030D01*
X162037428Y-64695765D01*
X162061227Y-64689804D01*
X162085495Y-64686204D01*
X162109999Y-64685000D01*
X163010001Y-64685000D01*
X163034505Y-64686204D01*
X163034505Y-64686204D01*
G37*
D12*
G04 #@! TD*
G04 #@! TO.P,C4,1*
G04 #@! TO.N,GND*
X162560000Y-65260000D03*
D10*
G04 #@! TO.N,+VDC*
G04 #@! TO.C,C4*
G36*
X163034505Y-66736204D02*
X163058773Y-66739804D01*
X163082572Y-66745765D01*
X163105671Y-66754030D01*
X163127850Y-66764520D01*
X163148893Y-66777132D01*
X163168599Y-66791747D01*
X163186777Y-66808223D01*
X163203253Y-66826401D01*
X163217868Y-66846107D01*
X163230480Y-66867150D01*
X163240970Y-66889329D01*
X163249235Y-66912428D01*
X163255196Y-66936227D01*
X163258796Y-66960495D01*
X163260000Y-66984999D01*
X163260000Y-67635001D01*
X163258796Y-67659505D01*
X163255196Y-67683773D01*
X163249235Y-67707572D01*
X163240970Y-67730671D01*
X163230480Y-67752850D01*
X163217868Y-67773893D01*
X163203253Y-67793599D01*
X163186777Y-67811777D01*
X163168599Y-67828253D01*
X163148893Y-67842868D01*
X163127850Y-67855480D01*
X163105671Y-67865970D01*
X163082572Y-67874235D01*
X163058773Y-67880196D01*
X163034505Y-67883796D01*
X163010001Y-67885000D01*
X162109999Y-67885000D01*
X162085495Y-67883796D01*
X162061227Y-67880196D01*
X162037428Y-67874235D01*
X162014329Y-67865970D01*
X161992150Y-67855480D01*
X161971107Y-67842868D01*
X161951401Y-67828253D01*
X161933223Y-67811777D01*
X161916747Y-67793599D01*
X161902132Y-67773893D01*
X161889520Y-67752850D01*
X161879030Y-67730671D01*
X161870765Y-67707572D01*
X161864804Y-67683773D01*
X161861204Y-67659505D01*
X161860000Y-67635001D01*
X161860000Y-66984999D01*
X161861204Y-66960495D01*
X161864804Y-66936227D01*
X161870765Y-66912428D01*
X161879030Y-66889329D01*
X161889520Y-66867150D01*
X161902132Y-66846107D01*
X161916747Y-66826401D01*
X161933223Y-66808223D01*
X161951401Y-66791747D01*
X161971107Y-66777132D01*
X161992150Y-66764520D01*
X162014329Y-66754030D01*
X162037428Y-66745765D01*
X162061227Y-66739804D01*
X162085495Y-66736204D01*
X162109999Y-66735000D01*
X163010001Y-66735000D01*
X163034505Y-66736204D01*
X163034505Y-66736204D01*
G37*
D12*
G04 #@! TD*
G04 #@! TO.P,C4,2*
G04 #@! TO.N,+VDC*
X162560000Y-67310000D03*
D13*
G04 #@! TO.P,PS1,3*
G04 #@! TO.N,GND*
X150156000Y-76172000D03*
G04 #@! TO.P,PS1,2*
G04 #@! TO.N,Net-(J1-Pad2)*
X105156000Y-76172000D03*
G04 #@! TO.P,PS1,4*
G04 #@! TO.N,+12V*
X150156000Y-68172000D03*
D14*
G04 #@! TO.P,PS1,1*
G04 #@! TO.N,Net-(F1-Pad1)*
X105156000Y-55372000D03*
G04 #@! TD*
D15*
G04 #@! TO.P,RV1,1*
G04 #@! TO.N,GND*
X118618000Y-83820000D03*
G04 #@! TO.P,RV1,2*
G04 #@! TO.N,Net-(RV1-Pad2)*
X116078000Y-91440000D03*
G04 #@! TO.P,RV1,3*
G04 #@! TO.N,Net-(RV1-Pad3)*
X118618000Y-96520000D03*
G04 #@! TD*
D16*
G04 #@! TO.P,VTR1,1*
G04 #@! TO.N,N/C*
X123190000Y-99060000D03*
D17*
G04 #@! TO.P,VTR1,13*
G04 #@! TO.N,+VDC*
X151130000Y-83820000D03*
G04 #@! TO.P,VTR1,2*
G04 #@! TO.N,Net-(C1-Pad1)*
X125730000Y-99060000D03*
G04 #@! TO.P,VTR1,14*
G04 #@! TO.N,N/C*
X148590000Y-83820000D03*
G04 #@! TO.P,VTR1,3*
G04 #@! TO.N,Net-(C1-Pad1)*
X128270000Y-99060000D03*
G04 #@! TO.P,VTR1,15*
G04 #@! TO.N,GND*
X146050000Y-83820000D03*
G04 #@! TO.P,VTR1,4*
G04 #@! TO.N,N/C*
X130810000Y-99060000D03*
G04 #@! TO.P,VTR1,16*
X143510000Y-83820000D03*
G04 #@! TO.P,VTR1,5*
X133350000Y-99060000D03*
G04 #@! TO.P,VTR1,17*
X140970000Y-83820000D03*
G04 #@! TO.P,VTR1,6*
X135890000Y-99060000D03*
G04 #@! TO.P,VTR1,18*
X138430000Y-83820000D03*
G04 #@! TO.P,VTR1,7*
X138430000Y-99060000D03*
G04 #@! TO.P,VTR1,19*
X135890000Y-83820000D03*
G04 #@! TO.P,VTR1,8*
G04 #@! TO.N,Net-(RV1-Pad2)*
X140970000Y-99060000D03*
G04 #@! TO.P,VTR1,20*
G04 #@! TO.N,N/C*
X133350000Y-83820000D03*
G04 #@! TO.P,VTR1,9*
G04 #@! TO.N,Net-(RV1-Pad3)*
X143510000Y-99060000D03*
G04 #@! TO.P,VTR1,21*
G04 #@! TO.N,N/C*
X130810000Y-83820000D03*
G04 #@! TO.P,VTR1,10*
G04 #@! TO.N,GND*
X146050000Y-99060000D03*
G04 #@! TO.P,VTR1,22*
G04 #@! TO.N,+12V*
X128270000Y-83820000D03*
G04 #@! TO.P,VTR1,11*
G04 #@! TO.N,N/C*
X148590000Y-99060000D03*
G04 #@! TO.P,VTR1,23*
G04 #@! TO.N,+12V*
X125730000Y-83820000D03*
G04 #@! TO.P,VTR1,12*
G04 #@! TO.N,+VDC*
X151130000Y-99060000D03*
G04 #@! TO.P,VTR1,24*
G04 #@! TO.N,N/C*
X123190000Y-83820000D03*
G04 #@! TD*
D18*
G04 #@! TO.P,VTR2,1*
G04 #@! TO.N,+12V*
X109982000Y-87122000D03*
D19*
G04 #@! TO.P,VTR2,2*
G04 #@! TO.N,GND*
X107442000Y-87122000D03*
G04 #@! TO.P,VTR2,3*
G04 #@! TO.N,+5V*
X104902000Y-87122000D03*
G04 #@! TD*
D20*
G04 #@! TO.P,H1,1*
G04 #@! TO.N,Earth*
X93980000Y-96520000D03*
G04 #@! TD*
D19*
G04 #@! TO.P,F1,1*
G04 #@! TO.N,Net-(F1-Pad1)*
X95260000Y-62865000D03*
G04 #@! TO.P,F1,2*
G04 #@! TO.N,Net-(F1-Pad2)*
X95250000Y-67945000D03*
G04 #@! TD*
D10*
G04 #@! TO.N,Earth*
G04 #@! TO.C,J1*
G36*
X96374503Y-80081204D02*
X96398772Y-80084804D01*
X96422570Y-80090765D01*
X96445670Y-80099030D01*
X96467849Y-80109520D01*
X96488892Y-80122133D01*
X96508598Y-80136748D01*
X96526776Y-80153224D01*
X96543252Y-80171402D01*
X96557867Y-80191108D01*
X96570480Y-80212151D01*
X96580970Y-80234330D01*
X96589235Y-80257430D01*
X96595196Y-80281228D01*
X96598796Y-80305497D01*
X96600000Y-80330001D01*
X96600000Y-82529999D01*
X96598796Y-82554503D01*
X96595196Y-82578772D01*
X96589235Y-82602570D01*
X96580970Y-82625670D01*
X96570480Y-82647849D01*
X96557867Y-82668892D01*
X96543252Y-82688598D01*
X96526776Y-82706776D01*
X96508598Y-82723252D01*
X96488892Y-82737867D01*
X96467849Y-82750480D01*
X96445670Y-82760970D01*
X96422570Y-82769235D01*
X96398772Y-82775196D01*
X96374503Y-82778796D01*
X96349999Y-82780000D01*
X94150001Y-82780000D01*
X94125497Y-82778796D01*
X94101228Y-82775196D01*
X94077430Y-82769235D01*
X94054330Y-82760970D01*
X94032151Y-82750480D01*
X94011108Y-82737867D01*
X93991402Y-82723252D01*
X93973224Y-82706776D01*
X93956748Y-82688598D01*
X93942133Y-82668892D01*
X93929520Y-82647849D01*
X93919030Y-82625670D01*
X93910765Y-82602570D01*
X93904804Y-82578772D01*
X93901204Y-82554503D01*
X93900000Y-82529999D01*
X93900000Y-80330001D01*
X93901204Y-80305497D01*
X93904804Y-80281228D01*
X93910765Y-80257430D01*
X93919030Y-80234330D01*
X93929520Y-80212151D01*
X93942133Y-80191108D01*
X93956748Y-80171402D01*
X93973224Y-80153224D01*
X93991402Y-80136748D01*
X94011108Y-80122133D01*
X94032151Y-80109520D01*
X94054330Y-80099030D01*
X94077430Y-80090765D01*
X94101228Y-80084804D01*
X94125497Y-80081204D01*
X94150001Y-80080000D01*
X96349999Y-80080000D01*
X96374503Y-80081204D01*
X96374503Y-80081204D01*
G37*
D21*
G04 #@! TD*
G04 #@! TO.P,J1,1*
G04 #@! TO.N,Earth*
X95250000Y-81430000D03*
G04 #@! TO.P,J1,2*
G04 #@! TO.N,Net-(J1-Pad2)*
X95250000Y-77470000D03*
G04 #@! TO.P,J1,3*
G04 #@! TO.N,Net-(F1-Pad2)*
X95250000Y-73510000D03*
G04 #@! TD*
D22*
G04 #@! TO.P,Q1,1*
G04 #@! TO.N,Net-(Q1-Pad1)*
X101092000Y-99060000D03*
D23*
G04 #@! TO.P,Q1,2*
G04 #@! TO.N,Net-(C1-Pad1)*
X103632000Y-99060000D03*
G04 #@! TO.P,Q1,3*
G04 #@! TO.N,GND*
X106172000Y-99060000D03*
G04 #@! TD*
D24*
G04 #@! TO.P,J2,1*
G04 #@! TO.N,GND*
X159258000Y-82550000D03*
D25*
G04 #@! TO.P,J2,2*
G04 #@! TO.N,+5V*
X159258000Y-80010000D03*
G04 #@! TO.P,J2,3*
G04 #@! TO.N,+12V*
X159258000Y-77470000D03*
G04 #@! TO.P,J2,4*
G04 #@! TO.N,+VDC*
X159258000Y-74930000D03*
G04 #@! TO.P,J2,5*
G04 #@! TO.N,/HVDC_Ctrl*
X159258000Y-72390000D03*
G04 #@! TD*
D26*
G04 #@! TO.N,GND*
X150128000Y-76200000D02*
X150156000Y-76172000D01*
G04 #@! TO.N,+12V*
X125730000Y-83820000D02*
X128270000Y-83820000D01*
X128270000Y-85888500D02*
X132334000Y-89952500D01*
X128270000Y-83820000D02*
X128270000Y-85888500D01*
X109982000Y-81280000D02*
X109982000Y-87122000D01*
G04 #@! TO.N,+5V*
X161544000Y-80010000D02*
X159258000Y-80010000D01*
X162560000Y-87630000D02*
X162560000Y-81026000D01*
X162560000Y-81026000D02*
X161544000Y-80010000D01*
G04 #@! TO.N,+VDC*
X151130000Y-99060000D02*
X151130000Y-83820000D01*
X162560000Y-73914000D02*
X162560000Y-67310000D01*
X159258000Y-74930000D02*
X161544000Y-74930000D01*
X161544000Y-74930000D02*
X162560000Y-73914000D01*
X159258000Y-74930000D02*
X156464000Y-74930000D01*
X156464000Y-74930000D02*
X154432000Y-76962000D01*
X154432000Y-80518000D02*
X151130000Y-83820000D01*
X154432000Y-76962000D02*
X154432000Y-80518000D01*
D27*
G04 #@! TO.N,Net-(F1-Pad1)*
X104648000Y-55372000D02*
X105156000Y-55372000D01*
D26*
G04 #@! TO.N,Net-(C1-Pad1)*
X128270000Y-99060000D02*
X125730000Y-99060000D01*
X128270000Y-96991500D02*
X132334000Y-92927500D01*
X128270000Y-99060000D02*
X128270000Y-96991500D01*
X103632000Y-97060000D02*
X103632000Y-99060000D01*
X106712000Y-93980000D02*
X103632000Y-97060000D01*
X122682000Y-93980000D02*
X106712000Y-93980000D01*
X125730000Y-97028000D02*
X122682000Y-93980000D01*
X125730000Y-99060000D02*
X125730000Y-97028000D01*
G04 #@! TD*
D28*
G04 #@! TO.N,GND*
G36*
X163013698Y-51572958D02*
X163244886Y-51664492D01*
X164240342Y-52659948D01*
X164295067Y-52776244D01*
X164387093Y-53258662D01*
X164390001Y-53351195D01*
X164390000Y-99015333D01*
X164327042Y-99513699D01*
X164235509Y-99744885D01*
X163240051Y-100740343D01*
X163123756Y-100795067D01*
X162641339Y-100887093D01*
X162548836Y-100890000D01*
X91484667Y-100890000D01*
X90986301Y-100827042D01*
X90755115Y-100735509D01*
X89759657Y-99740051D01*
X89704933Y-99623756D01*
X89612907Y-99141339D01*
X89610000Y-99048836D01*
X89610000Y-95796954D01*
X90345000Y-95796954D01*
X90345000Y-97243046D01*
X90898396Y-98579062D01*
X91920938Y-99601604D01*
X93256954Y-100155000D01*
X94703046Y-100155000D01*
X96039062Y-99601604D01*
X97061604Y-98579062D01*
X97276606Y-98060000D01*
X99492060Y-98060000D01*
X99492060Y-100060000D01*
X99541343Y-100307765D01*
X99681691Y-100517809D01*
X99891735Y-100658157D01*
X100139500Y-100707440D01*
X102044500Y-100707440D01*
X102292265Y-100658157D01*
X102502309Y-100517809D01*
X102620509Y-100340912D01*
X103012590Y-100602891D01*
X103632000Y-100726100D01*
X104251411Y-100602891D01*
X104776523Y-100252023D01*
X104911159Y-100050526D01*
X105305076Y-100435973D01*
X105799020Y-100650563D01*
X106045000Y-100530594D01*
X106045000Y-99187000D01*
X106299000Y-99187000D01*
X106299000Y-100530594D01*
X106544980Y-100650563D01*
X107038924Y-100435973D01*
X107481318Y-100003091D01*
X107724380Y-99433864D01*
X107597572Y-99187000D01*
X106299000Y-99187000D01*
X106045000Y-99187000D01*
X106025000Y-99187000D01*
X106025000Y-98933000D01*
X106045000Y-98933000D01*
X106045000Y-97589406D01*
X106299000Y-97589406D01*
X106299000Y-98933000D01*
X107597572Y-98933000D01*
X107724380Y-98686136D01*
X107481318Y-98116909D01*
X107038924Y-97684027D01*
X106544980Y-97469437D01*
X106299000Y-97589406D01*
X106045000Y-97589406D01*
X105799020Y-97469437D01*
X105305076Y-97684027D01*
X104911159Y-98069474D01*
X104776523Y-97867977D01*
X104767000Y-97861614D01*
X104767000Y-97530131D01*
X107182132Y-95115000D01*
X117998823Y-95115000D01*
X117748493Y-95218690D01*
X117316690Y-95650493D01*
X117083000Y-96214670D01*
X117083000Y-96825330D01*
X117316690Y-97389507D01*
X117748493Y-97821310D01*
X118312670Y-98055000D01*
X118923330Y-98055000D01*
X119487507Y-97821310D01*
X119919310Y-97389507D01*
X120153000Y-96825330D01*
X120153000Y-96214670D01*
X119919310Y-95650493D01*
X119487507Y-95218690D01*
X119237177Y-95115000D01*
X122211869Y-95115000D01*
X124595001Y-97498133D01*
X124595000Y-98046640D01*
X124588157Y-98012235D01*
X124447809Y-97802191D01*
X124237765Y-97661843D01*
X123990000Y-97612560D01*
X122390000Y-97612560D01*
X122142235Y-97661843D01*
X121932191Y-97802191D01*
X121791843Y-98012235D01*
X121742560Y-98260000D01*
X121742560Y-99860000D01*
X121791843Y-100107765D01*
X121932191Y-100317809D01*
X122142235Y-100458157D01*
X122390000Y-100507440D01*
X123990000Y-100507440D01*
X124237765Y-100458157D01*
X124447809Y-100317809D01*
X124588157Y-100107765D01*
X124614785Y-99973894D01*
X124695423Y-100094577D01*
X125170091Y-100411740D01*
X125588667Y-100495000D01*
X125871333Y-100495000D01*
X126289909Y-100411740D01*
X126614283Y-100195000D01*
X127385717Y-100195000D01*
X127710091Y-100411740D01*
X128128667Y-100495000D01*
X128411333Y-100495000D01*
X128829909Y-100411740D01*
X129304577Y-100094577D01*
X129540000Y-99742242D01*
X129775423Y-100094577D01*
X130250091Y-100411740D01*
X130668667Y-100495000D01*
X130951333Y-100495000D01*
X131369909Y-100411740D01*
X131844577Y-100094577D01*
X132080000Y-99742242D01*
X132315423Y-100094577D01*
X132790091Y-100411740D01*
X133208667Y-100495000D01*
X133491333Y-100495000D01*
X133909909Y-100411740D01*
X134384577Y-100094577D01*
X134620000Y-99742242D01*
X134855423Y-100094577D01*
X135330091Y-100411740D01*
X135748667Y-100495000D01*
X136031333Y-100495000D01*
X136449909Y-100411740D01*
X136924577Y-100094577D01*
X137160000Y-99742242D01*
X137395423Y-100094577D01*
X137870091Y-100411740D01*
X138288667Y-100495000D01*
X138571333Y-100495000D01*
X138989909Y-100411740D01*
X139464577Y-100094577D01*
X139700000Y-99742242D01*
X139935423Y-100094577D01*
X140410091Y-100411740D01*
X140828667Y-100495000D01*
X141111333Y-100495000D01*
X141529909Y-100411740D01*
X142004577Y-100094577D01*
X142240000Y-99742242D01*
X142475423Y-100094577D01*
X142950091Y-100411740D01*
X143368667Y-100495000D01*
X143651333Y-100495000D01*
X144069909Y-100411740D01*
X144544577Y-100094577D01*
X144800947Y-99710892D01*
X144897611Y-99915134D01*
X145312577Y-100291041D01*
X145700961Y-100451904D01*
X145923000Y-100329915D01*
X145923000Y-99187000D01*
X145903000Y-99187000D01*
X145903000Y-98933000D01*
X145923000Y-98933000D01*
X145923000Y-97790085D01*
X145700961Y-97668096D01*
X145312577Y-97828959D01*
X144897611Y-98204866D01*
X144800947Y-98409108D01*
X144544577Y-98025423D01*
X144069909Y-97708260D01*
X143651333Y-97625000D01*
X143368667Y-97625000D01*
X142950091Y-97708260D01*
X142475423Y-98025423D01*
X142240000Y-98377758D01*
X142004577Y-98025423D01*
X141529909Y-97708260D01*
X141111333Y-97625000D01*
X140828667Y-97625000D01*
X140410091Y-97708260D01*
X139935423Y-98025423D01*
X139700000Y-98377758D01*
X139464577Y-98025423D01*
X138989909Y-97708260D01*
X138571333Y-97625000D01*
X138288667Y-97625000D01*
X137870091Y-97708260D01*
X137395423Y-98025423D01*
X137160000Y-98377758D01*
X136924577Y-98025423D01*
X136449909Y-97708260D01*
X136031333Y-97625000D01*
X135748667Y-97625000D01*
X135330091Y-97708260D01*
X134855423Y-98025423D01*
X134620000Y-98377758D01*
X134384577Y-98025423D01*
X133909909Y-97708260D01*
X133491333Y-97625000D01*
X133208667Y-97625000D01*
X132790091Y-97708260D01*
X132315423Y-98025423D01*
X132080000Y-98377758D01*
X131844577Y-98025423D01*
X131369909Y-97708260D01*
X130951333Y-97625000D01*
X130668667Y-97625000D01*
X130250091Y-97708260D01*
X129775423Y-98025423D01*
X129540000Y-98377758D01*
X129405000Y-98175717D01*
X129405000Y-97461631D01*
X132579192Y-94287440D01*
X133409000Y-94287440D01*
X133752435Y-94219126D01*
X134043586Y-94024586D01*
X134238126Y-93733435D01*
X134306440Y-93390000D01*
X134306440Y-92465000D01*
X134238126Y-92121565D01*
X134043586Y-91830414D01*
X133752435Y-91635874D01*
X133409000Y-91567560D01*
X131259000Y-91567560D01*
X130915565Y-91635874D01*
X130624414Y-91830414D01*
X130429874Y-92121565D01*
X130361560Y-92465000D01*
X130361560Y-93294808D01*
X127546480Y-96109889D01*
X127451712Y-96173211D01*
X127266085Y-96451022D01*
X127200854Y-96548646D01*
X127112765Y-96991500D01*
X127135001Y-97103288D01*
X127135001Y-97925000D01*
X126865000Y-97925000D01*
X126865000Y-97139783D01*
X126887235Y-97028000D01*
X126799146Y-96585145D01*
X126774757Y-96548645D01*
X126548289Y-96209711D01*
X126453521Y-96146389D01*
X123563613Y-93256482D01*
X123500289Y-93161711D01*
X123124855Y-92910854D01*
X122793783Y-92845000D01*
X122682000Y-92822765D01*
X122570217Y-92845000D01*
X116697177Y-92845000D01*
X116947507Y-92741310D01*
X117379310Y-92309507D01*
X117613000Y-91745330D01*
X117613000Y-91134670D01*
X117379310Y-90570493D01*
X116947507Y-90138690D01*
X116383330Y-89905000D01*
X115772670Y-89905000D01*
X115208493Y-90138690D01*
X114776690Y-90570493D01*
X114543000Y-91134670D01*
X114543000Y-91745330D01*
X114776690Y-92309507D01*
X115208493Y-92741310D01*
X115458823Y-92845000D01*
X106823783Y-92845000D01*
X106712000Y-92822765D01*
X106600217Y-92845000D01*
X106269145Y-92910854D01*
X105893711Y-93161711D01*
X105830389Y-93256479D01*
X102908482Y-96178387D01*
X102813711Y-96241711D01*
X102608625Y-96548645D01*
X102562854Y-96617146D01*
X102474765Y-97060000D01*
X102497000Y-97171784D01*
X102497000Y-97598644D01*
X102292265Y-97461843D01*
X102044500Y-97412560D01*
X100139500Y-97412560D01*
X99891735Y-97461843D01*
X99681691Y-97602191D01*
X99541343Y-97812235D01*
X99492060Y-98060000D01*
X97276606Y-98060000D01*
X97615000Y-97243046D01*
X97615000Y-95796954D01*
X97061604Y-94460938D01*
X96039062Y-93438396D01*
X94703046Y-92885000D01*
X93256954Y-92885000D01*
X91920938Y-93438396D01*
X90898396Y-94460938D01*
X90345000Y-95796954D01*
X89610000Y-95796954D01*
X89610000Y-86796778D01*
X103267000Y-86796778D01*
X103267000Y-87447222D01*
X103515914Y-88048153D01*
X103975847Y-88508086D01*
X104576778Y-88757000D01*
X105227222Y-88757000D01*
X105828153Y-88508086D01*
X106254311Y-88081928D01*
X106289468Y-88094927D01*
X107262395Y-87122000D01*
X106289468Y-86149073D01*
X106254311Y-86162072D01*
X106061707Y-85969468D01*
X106469073Y-85969468D01*
X107442000Y-86942395D01*
X107456143Y-86928253D01*
X107635748Y-87107858D01*
X107621605Y-87122000D01*
X107635748Y-87136143D01*
X107456143Y-87315748D01*
X107442000Y-87301605D01*
X106469073Y-88274532D01*
X106567736Y-88541387D01*
X107177461Y-88767908D01*
X107827460Y-88743856D01*
X108316264Y-88541387D01*
X108382400Y-88362509D01*
X108383843Y-88369765D01*
X108524191Y-88579809D01*
X108734235Y-88720157D01*
X108982000Y-88769440D01*
X110982000Y-88769440D01*
X111229765Y-88720157D01*
X111439809Y-88579809D01*
X111580157Y-88369765D01*
X111629440Y-88122000D01*
X111629440Y-86122000D01*
X111580157Y-85874235D01*
X111439809Y-85664191D01*
X111229765Y-85523843D01*
X111117000Y-85501413D01*
X111117000Y-84900159D01*
X117717446Y-84900159D01*
X117803852Y-85156643D01*
X118377336Y-85366458D01*
X118987460Y-85340839D01*
X119432148Y-85156643D01*
X119518554Y-84900159D01*
X118618000Y-83999605D01*
X117717446Y-84900159D01*
X111117000Y-84900159D01*
X111117000Y-83579336D01*
X117071542Y-83579336D01*
X117097161Y-84189460D01*
X117281357Y-84634148D01*
X117537841Y-84720554D01*
X118438395Y-83820000D01*
X118797605Y-83820000D01*
X119698159Y-84720554D01*
X119954643Y-84634148D01*
X120164458Y-84060664D01*
X120154353Y-83820000D01*
X121726887Y-83820000D01*
X121838260Y-84379909D01*
X122155423Y-84854577D01*
X122630091Y-85171740D01*
X123048667Y-85255000D01*
X123331333Y-85255000D01*
X123749909Y-85171740D01*
X124224577Y-84854577D01*
X124460000Y-84502242D01*
X124695423Y-84854577D01*
X125170091Y-85171740D01*
X125588667Y-85255000D01*
X125871333Y-85255000D01*
X126289909Y-85171740D01*
X126614283Y-84955000D01*
X127135001Y-84955000D01*
X127135001Y-85776712D01*
X127112765Y-85888500D01*
X127200854Y-86331354D01*
X127266085Y-86428978D01*
X127451712Y-86706789D01*
X127546480Y-86770111D01*
X130361560Y-89585192D01*
X130361560Y-90415000D01*
X130429874Y-90758435D01*
X130624414Y-91049586D01*
X130915565Y-91244126D01*
X131259000Y-91312440D01*
X133409000Y-91312440D01*
X133752435Y-91244126D01*
X134043586Y-91049586D01*
X134238126Y-90758435D01*
X134306440Y-90415000D01*
X134306440Y-89490000D01*
X134238126Y-89146565D01*
X134043586Y-88855414D01*
X133752435Y-88660874D01*
X133409000Y-88592560D01*
X132579192Y-88592560D01*
X129405000Y-85418369D01*
X129405000Y-84704283D01*
X129540000Y-84502242D01*
X129775423Y-84854577D01*
X130250091Y-85171740D01*
X130668667Y-85255000D01*
X130951333Y-85255000D01*
X131369909Y-85171740D01*
X131844577Y-84854577D01*
X132080000Y-84502242D01*
X132315423Y-84854577D01*
X132790091Y-85171740D01*
X133208667Y-85255000D01*
X133491333Y-85255000D01*
X133909909Y-85171740D01*
X134384577Y-84854577D01*
X134620000Y-84502242D01*
X134855423Y-84854577D01*
X135330091Y-85171740D01*
X135748667Y-85255000D01*
X136031333Y-85255000D01*
X136449909Y-85171740D01*
X136924577Y-84854577D01*
X137160000Y-84502242D01*
X137395423Y-84854577D01*
X137870091Y-85171740D01*
X138288667Y-85255000D01*
X138571333Y-85255000D01*
X138989909Y-85171740D01*
X139464577Y-84854577D01*
X139700000Y-84502242D01*
X139935423Y-84854577D01*
X140410091Y-85171740D01*
X140828667Y-85255000D01*
X141111333Y-85255000D01*
X141529909Y-85171740D01*
X142004577Y-84854577D01*
X142240000Y-84502242D01*
X142475423Y-84854577D01*
X142950091Y-85171740D01*
X143368667Y-85255000D01*
X143651333Y-85255000D01*
X144069909Y-85171740D01*
X144544577Y-84854577D01*
X144800947Y-84470892D01*
X144897611Y-84675134D01*
X145312577Y-85051041D01*
X145700961Y-85211904D01*
X145923000Y-85089915D01*
X145923000Y-83947000D01*
X145903000Y-83947000D01*
X145903000Y-83693000D01*
X145923000Y-83693000D01*
X145923000Y-82550085D01*
X146177000Y-82550085D01*
X146177000Y-83693000D01*
X146197000Y-83693000D01*
X146197000Y-83947000D01*
X146177000Y-83947000D01*
X146177000Y-85089915D01*
X146399039Y-85211904D01*
X146787423Y-85051041D01*
X147202389Y-84675134D01*
X147299053Y-84470892D01*
X147555423Y-84854577D01*
X148030091Y-85171740D01*
X148448667Y-85255000D01*
X148731333Y-85255000D01*
X149149909Y-85171740D01*
X149624577Y-84854577D01*
X149860000Y-84502242D01*
X149995001Y-84704285D01*
X149995000Y-98175717D01*
X149860000Y-98377758D01*
X149624577Y-98025423D01*
X149149909Y-97708260D01*
X148731333Y-97625000D01*
X148448667Y-97625000D01*
X148030091Y-97708260D01*
X147555423Y-98025423D01*
X147299053Y-98409108D01*
X147202389Y-98204866D01*
X146787423Y-97828959D01*
X146399039Y-97668096D01*
X146177000Y-97790085D01*
X146177000Y-98933000D01*
X146197000Y-98933000D01*
X146197000Y-99187000D01*
X146177000Y-99187000D01*
X146177000Y-100329915D01*
X146399039Y-100451904D01*
X146787423Y-100291041D01*
X147202389Y-99915134D01*
X147299053Y-99710892D01*
X147555423Y-100094577D01*
X148030091Y-100411740D01*
X148448667Y-100495000D01*
X148731333Y-100495000D01*
X149149909Y-100411740D01*
X149624577Y-100094577D01*
X149860000Y-99742242D01*
X150095423Y-100094577D01*
X150570091Y-100411740D01*
X150988667Y-100495000D01*
X151271333Y-100495000D01*
X151689909Y-100411740D01*
X152164577Y-100094577D01*
X152481740Y-99619909D01*
X152593113Y-99060000D01*
X152481740Y-98500091D01*
X152265000Y-98175717D01*
X152265000Y-96075431D01*
X157785000Y-96075431D01*
X157785000Y-96964569D01*
X158125259Y-97786026D01*
X158753974Y-98414741D01*
X159575431Y-98755000D01*
X160464569Y-98755000D01*
X161286026Y-98414741D01*
X161914741Y-97786026D01*
X162255000Y-96964569D01*
X162255000Y-96075431D01*
X161914741Y-95253974D01*
X161286026Y-94625259D01*
X160464569Y-94285000D01*
X159575431Y-94285000D01*
X158753974Y-94625259D01*
X158125259Y-95253974D01*
X157785000Y-96075431D01*
X152265000Y-96075431D01*
X152265000Y-89965750D01*
X161225000Y-89965750D01*
X161225000Y-90381309D01*
X161321673Y-90614698D01*
X161500301Y-90793327D01*
X161733690Y-90890000D01*
X162274250Y-90890000D01*
X162433000Y-90731250D01*
X162433000Y-89807000D01*
X162687000Y-89807000D01*
X162687000Y-90731250D01*
X162845750Y-90890000D01*
X163386310Y-90890000D01*
X163619699Y-90793327D01*
X163798327Y-90614698D01*
X163895000Y-90381309D01*
X163895000Y-89965750D01*
X163736250Y-89807000D01*
X162687000Y-89807000D01*
X162433000Y-89807000D01*
X161383750Y-89807000D01*
X161225000Y-89965750D01*
X152265000Y-89965750D01*
X152265000Y-84704283D01*
X152481740Y-84379909D01*
X152557849Y-83997282D01*
X153719381Y-82835750D01*
X157573000Y-82835750D01*
X157573000Y-83726309D01*
X157669673Y-83959698D01*
X157848301Y-84138327D01*
X158081690Y-84235000D01*
X158972250Y-84235000D01*
X159131000Y-84076250D01*
X159131000Y-82677000D01*
X159385000Y-82677000D01*
X159385000Y-84076250D01*
X159543750Y-84235000D01*
X160434310Y-84235000D01*
X160667699Y-84138327D01*
X160846327Y-83959698D01*
X160943000Y-83726309D01*
X160943000Y-82835750D01*
X160784250Y-82677000D01*
X159385000Y-82677000D01*
X159131000Y-82677000D01*
X157731750Y-82677000D01*
X157573000Y-82835750D01*
X153719381Y-82835750D01*
X155155521Y-81399611D01*
X155250289Y-81336289D01*
X155501146Y-80960855D01*
X155539483Y-80768120D01*
X155589235Y-80518001D01*
X155567000Y-80406218D01*
X155567000Y-77432131D01*
X156934132Y-76065000D01*
X158010050Y-76065000D01*
X158145050Y-76200000D01*
X157829526Y-76515524D01*
X157573000Y-77134833D01*
X157573000Y-77805167D01*
X157829526Y-78424476D01*
X158145050Y-78740000D01*
X157829526Y-79055524D01*
X157573000Y-79674833D01*
X157573000Y-80345167D01*
X157829526Y-80964476D01*
X157837512Y-80972462D01*
X157669673Y-81140302D01*
X157573000Y-81373691D01*
X157573000Y-82264250D01*
X157731750Y-82423000D01*
X159131000Y-82423000D01*
X159131000Y-82403000D01*
X159385000Y-82403000D01*
X159385000Y-82423000D01*
X160784250Y-82423000D01*
X160943000Y-82264250D01*
X160943000Y-81373691D01*
X160848273Y-81145000D01*
X161073869Y-81145000D01*
X161425001Y-81496133D01*
X161425000Y-86745863D01*
X161280873Y-86961564D01*
X161212560Y-87304999D01*
X161212560Y-87955001D01*
X161280873Y-88298436D01*
X161475414Y-88589586D01*
X161476597Y-88590377D01*
X161321673Y-88745302D01*
X161225000Y-88978691D01*
X161225000Y-89394250D01*
X161383750Y-89553000D01*
X162433000Y-89553000D01*
X162433000Y-89533000D01*
X162687000Y-89533000D01*
X162687000Y-89553000D01*
X163736250Y-89553000D01*
X163895000Y-89394250D01*
X163895000Y-88978691D01*
X163798327Y-88745302D01*
X163643403Y-88590377D01*
X163644586Y-88589586D01*
X163839127Y-88298436D01*
X163907440Y-87955001D01*
X163907440Y-87304999D01*
X163839127Y-86961564D01*
X163695000Y-86745864D01*
X163695000Y-81137783D01*
X163717235Y-81026000D01*
X163629146Y-80583145D01*
X163542088Y-80452854D01*
X163378289Y-80207711D01*
X163283521Y-80144389D01*
X162425613Y-79286481D01*
X162362289Y-79191711D01*
X161986855Y-78940854D01*
X161655783Y-78875000D01*
X161544000Y-78852765D01*
X161432217Y-78875000D01*
X160505950Y-78875000D01*
X160370950Y-78740000D01*
X160686474Y-78424476D01*
X160943000Y-77805167D01*
X160943000Y-77134833D01*
X160686474Y-76515524D01*
X160370950Y-76200000D01*
X160505950Y-76065000D01*
X161432217Y-76065000D01*
X161544000Y-76087235D01*
X161655783Y-76065000D01*
X161986855Y-75999146D01*
X162362289Y-75748289D01*
X162425613Y-75653519D01*
X163283521Y-74795611D01*
X163378289Y-74732289D01*
X163629146Y-74356855D01*
X163690503Y-74048392D01*
X163717235Y-73914000D01*
X163695000Y-73802217D01*
X163695000Y-68194136D01*
X163839127Y-67978436D01*
X163907440Y-67635001D01*
X163907440Y-66984999D01*
X163839127Y-66641564D01*
X163644586Y-66350414D01*
X163643403Y-66349623D01*
X163798327Y-66194698D01*
X163895000Y-65961309D01*
X163895000Y-65545750D01*
X163736250Y-65387000D01*
X162687000Y-65387000D01*
X162687000Y-65407000D01*
X162433000Y-65407000D01*
X162433000Y-65387000D01*
X161383750Y-65387000D01*
X161225000Y-65545750D01*
X161225000Y-65961309D01*
X161321673Y-66194698D01*
X161476597Y-66349623D01*
X161475414Y-66350414D01*
X161280873Y-66641564D01*
X161212560Y-66984999D01*
X161212560Y-67635001D01*
X161280873Y-67978436D01*
X161425001Y-68194138D01*
X161425000Y-73443868D01*
X161073869Y-73795000D01*
X160505950Y-73795000D01*
X160370950Y-73660000D01*
X160686474Y-73344476D01*
X160943000Y-72725167D01*
X160943000Y-72054833D01*
X160686474Y-71435524D01*
X160212476Y-70961526D01*
X159593167Y-70705000D01*
X158922833Y-70705000D01*
X158303524Y-70961526D01*
X157829526Y-71435524D01*
X157573000Y-72054833D01*
X157573000Y-72725167D01*
X157829526Y-73344476D01*
X158145050Y-73660000D01*
X158010050Y-73795000D01*
X156575783Y-73795000D01*
X156464000Y-73772765D01*
X156021145Y-73860854D01*
X155645711Y-74111711D01*
X155582389Y-74206479D01*
X153708482Y-76080387D01*
X153613711Y-76143711D01*
X153365274Y-76515524D01*
X153362854Y-76519146D01*
X153274765Y-76962000D01*
X153297000Y-77073783D01*
X153297001Y-80047867D01*
X150952718Y-82392151D01*
X150570091Y-82468260D01*
X150095423Y-82785423D01*
X149860000Y-83137758D01*
X149624577Y-82785423D01*
X149149909Y-82468260D01*
X148731333Y-82385000D01*
X148448667Y-82385000D01*
X148030091Y-82468260D01*
X147555423Y-82785423D01*
X147299053Y-83169108D01*
X147202389Y-82964866D01*
X146787423Y-82588959D01*
X146399039Y-82428096D01*
X146177000Y-82550085D01*
X145923000Y-82550085D01*
X145700961Y-82428096D01*
X145312577Y-82588959D01*
X144897611Y-82964866D01*
X144800947Y-83169108D01*
X144544577Y-82785423D01*
X144069909Y-82468260D01*
X143651333Y-82385000D01*
X143368667Y-82385000D01*
X142950091Y-82468260D01*
X142475423Y-82785423D01*
X142240000Y-83137758D01*
X142004577Y-82785423D01*
X141529909Y-82468260D01*
X141111333Y-82385000D01*
X140828667Y-82385000D01*
X140410091Y-82468260D01*
X139935423Y-82785423D01*
X139700000Y-83137758D01*
X139464577Y-82785423D01*
X138989909Y-82468260D01*
X138571333Y-82385000D01*
X138288667Y-82385000D01*
X137870091Y-82468260D01*
X137395423Y-82785423D01*
X137160000Y-83137758D01*
X136924577Y-82785423D01*
X136449909Y-82468260D01*
X136031333Y-82385000D01*
X135748667Y-82385000D01*
X135330091Y-82468260D01*
X134855423Y-82785423D01*
X134620000Y-83137758D01*
X134384577Y-82785423D01*
X133909909Y-82468260D01*
X133491333Y-82385000D01*
X133208667Y-82385000D01*
X132790091Y-82468260D01*
X132315423Y-82785423D01*
X132080000Y-83137758D01*
X131844577Y-82785423D01*
X131369909Y-82468260D01*
X130951333Y-82385000D01*
X130668667Y-82385000D01*
X130250091Y-82468260D01*
X129775423Y-82785423D01*
X129540000Y-83137758D01*
X129304577Y-82785423D01*
X128829909Y-82468260D01*
X128411333Y-82385000D01*
X128128667Y-82385000D01*
X127710091Y-82468260D01*
X127385717Y-82685000D01*
X126614283Y-82685000D01*
X126289909Y-82468260D01*
X125871333Y-82385000D01*
X125588667Y-82385000D01*
X125170091Y-82468260D01*
X124695423Y-82785423D01*
X124460000Y-83137758D01*
X124224577Y-82785423D01*
X123749909Y-82468260D01*
X123331333Y-82385000D01*
X123048667Y-82385000D01*
X122630091Y-82468260D01*
X122155423Y-82785423D01*
X121838260Y-83260091D01*
X121726887Y-83820000D01*
X120154353Y-83820000D01*
X120138839Y-83450540D01*
X119954643Y-83005852D01*
X119698159Y-82919446D01*
X118797605Y-83820000D01*
X118438395Y-83820000D01*
X117537841Y-82919446D01*
X117281357Y-83005852D01*
X117071542Y-83579336D01*
X111117000Y-83579336D01*
X111117000Y-82739841D01*
X117717446Y-82739841D01*
X118618000Y-83640395D01*
X119518554Y-82739841D01*
X119432148Y-82483357D01*
X118858664Y-82273542D01*
X118248540Y-82299161D01*
X117803852Y-82483357D01*
X117717446Y-82739841D01*
X111117000Y-82739841D01*
X111117000Y-82164136D01*
X111261127Y-81948436D01*
X111329440Y-81605001D01*
X111329440Y-80954999D01*
X111261127Y-80611564D01*
X111066586Y-80320414D01*
X111065403Y-80319623D01*
X111220327Y-80164698D01*
X111317000Y-79931309D01*
X111317000Y-79515750D01*
X111158250Y-79357000D01*
X110109000Y-79357000D01*
X110109000Y-79377000D01*
X109855000Y-79377000D01*
X109855000Y-79357000D01*
X108805750Y-79357000D01*
X108647000Y-79515750D01*
X108647000Y-79931309D01*
X108743673Y-80164698D01*
X108898597Y-80319623D01*
X108897414Y-80320414D01*
X108702873Y-80611564D01*
X108634560Y-80954999D01*
X108634560Y-81605001D01*
X108702873Y-81948436D01*
X108847000Y-82164137D01*
X108847001Y-85501413D01*
X108734235Y-85523843D01*
X108524191Y-85664191D01*
X108383843Y-85874235D01*
X108382400Y-85881491D01*
X108316264Y-85702613D01*
X107706539Y-85476092D01*
X107056540Y-85500144D01*
X106567736Y-85702613D01*
X106469073Y-85969468D01*
X106061707Y-85969468D01*
X105828153Y-85735914D01*
X105227222Y-85487000D01*
X104576778Y-85487000D01*
X103975847Y-85735914D01*
X103515914Y-86195847D01*
X103267000Y-86796778D01*
X89610000Y-86796778D01*
X89610000Y-80330001D01*
X93252560Y-80330001D01*
X93252560Y-82529999D01*
X93320874Y-82873435D01*
X93515414Y-83164586D01*
X93806565Y-83359126D01*
X94150001Y-83427440D01*
X96349999Y-83427440D01*
X96693435Y-83359126D01*
X96984586Y-83164586D01*
X97179126Y-82873435D01*
X97247440Y-82529999D01*
X97247440Y-80330001D01*
X97179126Y-79986565D01*
X96984586Y-79695414D01*
X96693435Y-79500874D01*
X96349999Y-79432560D01*
X95699016Y-79432560D01*
X96374412Y-79152801D01*
X96932801Y-78594412D01*
X96960023Y-78528691D01*
X108647000Y-78528691D01*
X108647000Y-78944250D01*
X108805750Y-79103000D01*
X109855000Y-79103000D01*
X109855000Y-78178750D01*
X110109000Y-78178750D01*
X110109000Y-79103000D01*
X111158250Y-79103000D01*
X111317000Y-78944250D01*
X111317000Y-78528691D01*
X111220327Y-78295302D01*
X111041699Y-78116673D01*
X110808310Y-78020000D01*
X110267750Y-78020000D01*
X110109000Y-78178750D01*
X109855000Y-78178750D01*
X109696250Y-78020000D01*
X109155690Y-78020000D01*
X108922301Y-78116673D01*
X108743673Y-78295302D01*
X108647000Y-78528691D01*
X96960023Y-78528691D01*
X97235000Y-77864841D01*
X97235000Y-77075159D01*
X96932801Y-76345588D01*
X96374412Y-75787199D01*
X96278141Y-75747322D01*
X103021000Y-75747322D01*
X103021000Y-76596678D01*
X103346034Y-77381380D01*
X103946620Y-77981966D01*
X104731322Y-78307000D01*
X105580678Y-78307000D01*
X106365380Y-77981966D01*
X106661376Y-77685970D01*
X148821635Y-77685970D01*
X148981418Y-78004739D01*
X149772187Y-78314723D01*
X150621387Y-78298497D01*
X151330582Y-78004739D01*
X151490365Y-77685970D01*
X150156000Y-76351605D01*
X148821635Y-77685970D01*
X106661376Y-77685970D01*
X106965966Y-77381380D01*
X107291000Y-76596678D01*
X107291000Y-75788187D01*
X148013277Y-75788187D01*
X148029503Y-76637387D01*
X148323261Y-77346582D01*
X148642030Y-77506365D01*
X149976395Y-76172000D01*
X150335605Y-76172000D01*
X151669970Y-77506365D01*
X151988739Y-77346582D01*
X152298723Y-76555813D01*
X152282497Y-75706613D01*
X151988739Y-74997418D01*
X151669970Y-74837635D01*
X150335605Y-76172000D01*
X149976395Y-76172000D01*
X148642030Y-74837635D01*
X148323261Y-74997418D01*
X148013277Y-75788187D01*
X107291000Y-75788187D01*
X107291000Y-75747322D01*
X106965966Y-74962620D01*
X106661376Y-74658030D01*
X148821635Y-74658030D01*
X150156000Y-75992395D01*
X151490365Y-74658030D01*
X151330582Y-74339261D01*
X150539813Y-74029277D01*
X149690613Y-74045503D01*
X148981418Y-74339261D01*
X148821635Y-74658030D01*
X106661376Y-74658030D01*
X106365380Y-74362034D01*
X105580678Y-74037000D01*
X104731322Y-74037000D01*
X103946620Y-74362034D01*
X103346034Y-74962620D01*
X103021000Y-75747322D01*
X96278141Y-75747322D01*
X95656912Y-75490000D01*
X96374412Y-75192801D01*
X96932801Y-74634412D01*
X97235000Y-73904841D01*
X97235000Y-73115159D01*
X96932801Y-72385588D01*
X96374412Y-71827199D01*
X95644841Y-71525000D01*
X94855159Y-71525000D01*
X94125588Y-71827199D01*
X93567199Y-72385588D01*
X93265000Y-73115159D01*
X93265000Y-73904841D01*
X93567199Y-74634412D01*
X94125588Y-75192801D01*
X94843088Y-75490000D01*
X94125588Y-75787199D01*
X93567199Y-76345588D01*
X93265000Y-77075159D01*
X93265000Y-77864841D01*
X93567199Y-78594412D01*
X94125588Y-79152801D01*
X94800984Y-79432560D01*
X94150001Y-79432560D01*
X93806565Y-79500874D01*
X93515414Y-79695414D01*
X93320874Y-79986565D01*
X93252560Y-80330001D01*
X89610000Y-80330001D01*
X89610000Y-67619778D01*
X93615000Y-67619778D01*
X93615000Y-68270222D01*
X93863914Y-68871153D01*
X94323847Y-69331086D01*
X94924778Y-69580000D01*
X95575222Y-69580000D01*
X96176153Y-69331086D01*
X96636086Y-68871153D01*
X96885000Y-68270222D01*
X96885000Y-67747322D01*
X148021000Y-67747322D01*
X148021000Y-68596678D01*
X148346034Y-69381380D01*
X148946620Y-69981966D01*
X149731322Y-70307000D01*
X150580678Y-70307000D01*
X151365380Y-69981966D01*
X151965966Y-69381380D01*
X152291000Y-68596678D01*
X152291000Y-67747322D01*
X151965966Y-66962620D01*
X151365380Y-66362034D01*
X150580678Y-66037000D01*
X149731322Y-66037000D01*
X148946620Y-66362034D01*
X148346034Y-66962620D01*
X148021000Y-67747322D01*
X96885000Y-67747322D01*
X96885000Y-67619778D01*
X96636086Y-67018847D01*
X96176153Y-66558914D01*
X95575222Y-66310000D01*
X94924778Y-66310000D01*
X94323847Y-66558914D01*
X93863914Y-67018847D01*
X93615000Y-67619778D01*
X89610000Y-67619778D01*
X89610000Y-64558691D01*
X161225000Y-64558691D01*
X161225000Y-64974250D01*
X161383750Y-65133000D01*
X162433000Y-65133000D01*
X162433000Y-64208750D01*
X162687000Y-64208750D01*
X162687000Y-65133000D01*
X163736250Y-65133000D01*
X163895000Y-64974250D01*
X163895000Y-64558691D01*
X163798327Y-64325302D01*
X163619699Y-64146673D01*
X163386310Y-64050000D01*
X162845750Y-64050000D01*
X162687000Y-64208750D01*
X162433000Y-64208750D01*
X162274250Y-64050000D01*
X161733690Y-64050000D01*
X161500301Y-64146673D01*
X161321673Y-64325302D01*
X161225000Y-64558691D01*
X89610000Y-64558691D01*
X89610000Y-62539778D01*
X93625000Y-62539778D01*
X93625000Y-63190222D01*
X93873914Y-63791153D01*
X94333847Y-64251086D01*
X94934778Y-64500000D01*
X95585222Y-64500000D01*
X96186153Y-64251086D01*
X96646086Y-63791153D01*
X96895000Y-63190222D01*
X96895000Y-62539778D01*
X96646086Y-61938847D01*
X96186153Y-61478914D01*
X95585222Y-61230000D01*
X94934778Y-61230000D01*
X94333847Y-61478914D01*
X93873914Y-61938847D01*
X93625000Y-62539778D01*
X89610000Y-62539778D01*
X89610000Y-55435431D01*
X91745000Y-55435431D01*
X91745000Y-56324569D01*
X92085259Y-57146026D01*
X92713974Y-57774741D01*
X93535431Y-58115000D01*
X94424569Y-58115000D01*
X95246026Y-57774741D01*
X95874741Y-57146026D01*
X96215000Y-56324569D01*
X96215000Y-55435431D01*
X96188726Y-55372000D01*
X102980969Y-55372000D01*
X103008560Y-55510709D01*
X103008560Y-56872000D01*
X103057843Y-57119765D01*
X103198191Y-57329809D01*
X103408235Y-57470157D01*
X103656000Y-57519440D01*
X106656000Y-57519440D01*
X106903765Y-57470157D01*
X107113809Y-57329809D01*
X107254157Y-57119765D01*
X107303440Y-56872000D01*
X107303440Y-55435431D01*
X157785000Y-55435431D01*
X157785000Y-56324569D01*
X158125259Y-57146026D01*
X158753974Y-57774741D01*
X159575431Y-58115000D01*
X160464569Y-58115000D01*
X161286026Y-57774741D01*
X161914741Y-57146026D01*
X162255000Y-56324569D01*
X162255000Y-55435431D01*
X161914741Y-54613974D01*
X161286026Y-53985259D01*
X160464569Y-53645000D01*
X159575431Y-53645000D01*
X158753974Y-53985259D01*
X158125259Y-54613974D01*
X157785000Y-55435431D01*
X107303440Y-55435431D01*
X107303440Y-53872000D01*
X107254157Y-53624235D01*
X107113809Y-53414191D01*
X106903765Y-53273843D01*
X106656000Y-53224560D01*
X103656000Y-53224560D01*
X103408235Y-53273843D01*
X103198191Y-53414191D01*
X103057843Y-53624235D01*
X103008560Y-53872000D01*
X103008560Y-55233291D01*
X102980969Y-55372000D01*
X96188726Y-55372000D01*
X95874741Y-54613974D01*
X95246026Y-53985259D01*
X94424569Y-53645000D01*
X93535431Y-53645000D01*
X92713974Y-53985259D01*
X92085259Y-54613974D01*
X91745000Y-55435431D01*
X89610000Y-55435431D01*
X89610000Y-53384666D01*
X89672958Y-52886302D01*
X89764492Y-52655114D01*
X90759948Y-51659658D01*
X90876244Y-51604933D01*
X91358662Y-51512907D01*
X91451164Y-51510000D01*
X162515334Y-51510000D01*
X163013698Y-51572958D01*
X163013698Y-51572958D01*
G37*
X163013698Y-51572958D02*
X163244886Y-51664492D01*
X164240342Y-52659948D01*
X164295067Y-52776244D01*
X164387093Y-53258662D01*
X164390001Y-53351195D01*
X164390000Y-99015333D01*
X164327042Y-99513699D01*
X164235509Y-99744885D01*
X163240051Y-100740343D01*
X163123756Y-100795067D01*
X162641339Y-100887093D01*
X162548836Y-100890000D01*
X91484667Y-100890000D01*
X90986301Y-100827042D01*
X90755115Y-100735509D01*
X89759657Y-99740051D01*
X89704933Y-99623756D01*
X89612907Y-99141339D01*
X89610000Y-99048836D01*
X89610000Y-95796954D01*
X90345000Y-95796954D01*
X90345000Y-97243046D01*
X90898396Y-98579062D01*
X91920938Y-99601604D01*
X93256954Y-100155000D01*
X94703046Y-100155000D01*
X96039062Y-99601604D01*
X97061604Y-98579062D01*
X97276606Y-98060000D01*
X99492060Y-98060000D01*
X99492060Y-100060000D01*
X99541343Y-100307765D01*
X99681691Y-100517809D01*
X99891735Y-100658157D01*
X100139500Y-100707440D01*
X102044500Y-100707440D01*
X102292265Y-100658157D01*
X102502309Y-100517809D01*
X102620509Y-100340912D01*
X103012590Y-100602891D01*
X103632000Y-100726100D01*
X104251411Y-100602891D01*
X104776523Y-100252023D01*
X104911159Y-100050526D01*
X105305076Y-100435973D01*
X105799020Y-100650563D01*
X106045000Y-100530594D01*
X106045000Y-99187000D01*
X106299000Y-99187000D01*
X106299000Y-100530594D01*
X106544980Y-100650563D01*
X107038924Y-100435973D01*
X107481318Y-100003091D01*
X107724380Y-99433864D01*
X107597572Y-99187000D01*
X106299000Y-99187000D01*
X106045000Y-99187000D01*
X106025000Y-99187000D01*
X106025000Y-98933000D01*
X106045000Y-98933000D01*
X106045000Y-97589406D01*
X106299000Y-97589406D01*
X106299000Y-98933000D01*
X107597572Y-98933000D01*
X107724380Y-98686136D01*
X107481318Y-98116909D01*
X107038924Y-97684027D01*
X106544980Y-97469437D01*
X106299000Y-97589406D01*
X106045000Y-97589406D01*
X105799020Y-97469437D01*
X105305076Y-97684027D01*
X104911159Y-98069474D01*
X104776523Y-97867977D01*
X104767000Y-97861614D01*
X104767000Y-97530131D01*
X107182132Y-95115000D01*
X117998823Y-95115000D01*
X117748493Y-95218690D01*
X117316690Y-95650493D01*
X117083000Y-96214670D01*
X117083000Y-96825330D01*
X117316690Y-97389507D01*
X117748493Y-97821310D01*
X118312670Y-98055000D01*
X118923330Y-98055000D01*
X119487507Y-97821310D01*
X119919310Y-97389507D01*
X120153000Y-96825330D01*
X120153000Y-96214670D01*
X119919310Y-95650493D01*
X119487507Y-95218690D01*
X119237177Y-95115000D01*
X122211869Y-95115000D01*
X124595001Y-97498133D01*
X124595000Y-98046640D01*
X124588157Y-98012235D01*
X124447809Y-97802191D01*
X124237765Y-97661843D01*
X123990000Y-97612560D01*
X122390000Y-97612560D01*
X122142235Y-97661843D01*
X121932191Y-97802191D01*
X121791843Y-98012235D01*
X121742560Y-98260000D01*
X121742560Y-99860000D01*
X121791843Y-100107765D01*
X121932191Y-100317809D01*
X122142235Y-100458157D01*
X122390000Y-100507440D01*
X123990000Y-100507440D01*
X124237765Y-100458157D01*
X124447809Y-100317809D01*
X124588157Y-100107765D01*
X124614785Y-99973894D01*
X124695423Y-100094577D01*
X125170091Y-100411740D01*
X125588667Y-100495000D01*
X125871333Y-100495000D01*
X126289909Y-100411740D01*
X126614283Y-100195000D01*
X127385717Y-100195000D01*
X127710091Y-100411740D01*
X128128667Y-100495000D01*
X128411333Y-100495000D01*
X128829909Y-100411740D01*
X129304577Y-100094577D01*
X129540000Y-99742242D01*
X129775423Y-100094577D01*
X130250091Y-100411740D01*
X130668667Y-100495000D01*
X130951333Y-100495000D01*
X131369909Y-100411740D01*
X131844577Y-100094577D01*
X132080000Y-99742242D01*
X132315423Y-100094577D01*
X132790091Y-100411740D01*
X133208667Y-100495000D01*
X133491333Y-100495000D01*
X133909909Y-100411740D01*
X134384577Y-100094577D01*
X134620000Y-99742242D01*
X134855423Y-100094577D01*
X135330091Y-100411740D01*
X135748667Y-100495000D01*
X136031333Y-100495000D01*
X136449909Y-100411740D01*
X136924577Y-100094577D01*
X137160000Y-99742242D01*
X137395423Y-100094577D01*
X137870091Y-100411740D01*
X138288667Y-100495000D01*
X138571333Y-100495000D01*
X138989909Y-100411740D01*
X139464577Y-100094577D01*
X139700000Y-99742242D01*
X139935423Y-100094577D01*
X140410091Y-100411740D01*
X140828667Y-100495000D01*
X141111333Y-100495000D01*
X141529909Y-100411740D01*
X142004577Y-100094577D01*
X142240000Y-99742242D01*
X142475423Y-100094577D01*
X142950091Y-100411740D01*
X143368667Y-100495000D01*
X143651333Y-100495000D01*
X144069909Y-100411740D01*
X144544577Y-100094577D01*
X144800947Y-99710892D01*
X144897611Y-99915134D01*
X145312577Y-100291041D01*
X145700961Y-100451904D01*
X145923000Y-100329915D01*
X145923000Y-99187000D01*
X145903000Y-99187000D01*
X145903000Y-98933000D01*
X145923000Y-98933000D01*
X145923000Y-97790085D01*
X145700961Y-97668096D01*
X145312577Y-97828959D01*
X144897611Y-98204866D01*
X144800947Y-98409108D01*
X144544577Y-98025423D01*
X144069909Y-97708260D01*
X143651333Y-97625000D01*
X143368667Y-97625000D01*
X142950091Y-97708260D01*
X142475423Y-98025423D01*
X142240000Y-98377758D01*
X142004577Y-98025423D01*
X141529909Y-97708260D01*
X141111333Y-97625000D01*
X140828667Y-97625000D01*
X140410091Y-97708260D01*
X139935423Y-98025423D01*
X139700000Y-98377758D01*
X139464577Y-98025423D01*
X138989909Y-97708260D01*
X138571333Y-97625000D01*
X138288667Y-97625000D01*
X137870091Y-97708260D01*
X137395423Y-98025423D01*
X137160000Y-98377758D01*
X136924577Y-98025423D01*
X136449909Y-97708260D01*
X136031333Y-97625000D01*
X135748667Y-97625000D01*
X135330091Y-97708260D01*
X134855423Y-98025423D01*
X134620000Y-98377758D01*
X134384577Y-98025423D01*
X133909909Y-97708260D01*
X133491333Y-97625000D01*
X133208667Y-97625000D01*
X132790091Y-97708260D01*
X132315423Y-98025423D01*
X132080000Y-98377758D01*
X131844577Y-98025423D01*
X131369909Y-97708260D01*
X130951333Y-97625000D01*
X130668667Y-97625000D01*
X130250091Y-97708260D01*
X129775423Y-98025423D01*
X129540000Y-98377758D01*
X129405000Y-98175717D01*
X129405000Y-97461631D01*
X132579192Y-94287440D01*
X133409000Y-94287440D01*
X133752435Y-94219126D01*
X134043586Y-94024586D01*
X134238126Y-93733435D01*
X134306440Y-93390000D01*
X134306440Y-92465000D01*
X134238126Y-92121565D01*
X134043586Y-91830414D01*
X133752435Y-91635874D01*
X133409000Y-91567560D01*
X131259000Y-91567560D01*
X130915565Y-91635874D01*
X130624414Y-91830414D01*
X130429874Y-92121565D01*
X130361560Y-92465000D01*
X130361560Y-93294808D01*
X127546480Y-96109889D01*
X127451712Y-96173211D01*
X127266085Y-96451022D01*
X127200854Y-96548646D01*
X127112765Y-96991500D01*
X127135001Y-97103288D01*
X127135001Y-97925000D01*
X126865000Y-97925000D01*
X126865000Y-97139783D01*
X126887235Y-97028000D01*
X126799146Y-96585145D01*
X126774757Y-96548645D01*
X126548289Y-96209711D01*
X126453521Y-96146389D01*
X123563613Y-93256482D01*
X123500289Y-93161711D01*
X123124855Y-92910854D01*
X122793783Y-92845000D01*
X122682000Y-92822765D01*
X122570217Y-92845000D01*
X116697177Y-92845000D01*
X116947507Y-92741310D01*
X117379310Y-92309507D01*
X117613000Y-91745330D01*
X117613000Y-91134670D01*
X117379310Y-90570493D01*
X116947507Y-90138690D01*
X116383330Y-89905000D01*
X115772670Y-89905000D01*
X115208493Y-90138690D01*
X114776690Y-90570493D01*
X114543000Y-91134670D01*
X114543000Y-91745330D01*
X114776690Y-92309507D01*
X115208493Y-92741310D01*
X115458823Y-92845000D01*
X106823783Y-92845000D01*
X106712000Y-92822765D01*
X106600217Y-92845000D01*
X106269145Y-92910854D01*
X105893711Y-93161711D01*
X105830389Y-93256479D01*
X102908482Y-96178387D01*
X102813711Y-96241711D01*
X102608625Y-96548645D01*
X102562854Y-96617146D01*
X102474765Y-97060000D01*
X102497000Y-97171784D01*
X102497000Y-97598644D01*
X102292265Y-97461843D01*
X102044500Y-97412560D01*
X100139500Y-97412560D01*
X99891735Y-97461843D01*
X99681691Y-97602191D01*
X99541343Y-97812235D01*
X99492060Y-98060000D01*
X97276606Y-98060000D01*
X97615000Y-97243046D01*
X97615000Y-95796954D01*
X97061604Y-94460938D01*
X96039062Y-93438396D01*
X94703046Y-92885000D01*
X93256954Y-92885000D01*
X91920938Y-93438396D01*
X90898396Y-94460938D01*
X90345000Y-95796954D01*
X89610000Y-95796954D01*
X89610000Y-86796778D01*
X103267000Y-86796778D01*
X103267000Y-87447222D01*
X103515914Y-88048153D01*
X103975847Y-88508086D01*
X104576778Y-88757000D01*
X105227222Y-88757000D01*
X105828153Y-88508086D01*
X106254311Y-88081928D01*
X106289468Y-88094927D01*
X107262395Y-87122000D01*
X106289468Y-86149073D01*
X106254311Y-86162072D01*
X106061707Y-85969468D01*
X106469073Y-85969468D01*
X107442000Y-86942395D01*
X107456143Y-86928253D01*
X107635748Y-87107858D01*
X107621605Y-87122000D01*
X107635748Y-87136143D01*
X107456143Y-87315748D01*
X107442000Y-87301605D01*
X106469073Y-88274532D01*
X106567736Y-88541387D01*
X107177461Y-88767908D01*
X107827460Y-88743856D01*
X108316264Y-88541387D01*
X108382400Y-88362509D01*
X108383843Y-88369765D01*
X108524191Y-88579809D01*
X108734235Y-88720157D01*
X108982000Y-88769440D01*
X110982000Y-88769440D01*
X111229765Y-88720157D01*
X111439809Y-88579809D01*
X111580157Y-88369765D01*
X111629440Y-88122000D01*
X111629440Y-86122000D01*
X111580157Y-85874235D01*
X111439809Y-85664191D01*
X111229765Y-85523843D01*
X111117000Y-85501413D01*
X111117000Y-84900159D01*
X117717446Y-84900159D01*
X117803852Y-85156643D01*
X118377336Y-85366458D01*
X118987460Y-85340839D01*
X119432148Y-85156643D01*
X119518554Y-84900159D01*
X118618000Y-83999605D01*
X117717446Y-84900159D01*
X111117000Y-84900159D01*
X111117000Y-83579336D01*
X117071542Y-83579336D01*
X117097161Y-84189460D01*
X117281357Y-84634148D01*
X117537841Y-84720554D01*
X118438395Y-83820000D01*
X118797605Y-83820000D01*
X119698159Y-84720554D01*
X119954643Y-84634148D01*
X120164458Y-84060664D01*
X120154353Y-83820000D01*
X121726887Y-83820000D01*
X121838260Y-84379909D01*
X122155423Y-84854577D01*
X122630091Y-85171740D01*
X123048667Y-85255000D01*
X123331333Y-85255000D01*
X123749909Y-85171740D01*
X124224577Y-84854577D01*
X124460000Y-84502242D01*
X124695423Y-84854577D01*
X125170091Y-85171740D01*
X125588667Y-85255000D01*
X125871333Y-85255000D01*
X126289909Y-85171740D01*
X126614283Y-84955000D01*
X127135001Y-84955000D01*
X127135001Y-85776712D01*
X127112765Y-85888500D01*
X127200854Y-86331354D01*
X127266085Y-86428978D01*
X127451712Y-86706789D01*
X127546480Y-86770111D01*
X130361560Y-89585192D01*
X130361560Y-90415000D01*
X130429874Y-90758435D01*
X130624414Y-91049586D01*
X130915565Y-91244126D01*
X131259000Y-91312440D01*
X133409000Y-91312440D01*
X133752435Y-91244126D01*
X134043586Y-91049586D01*
X134238126Y-90758435D01*
X134306440Y-90415000D01*
X134306440Y-89490000D01*
X134238126Y-89146565D01*
X134043586Y-88855414D01*
X133752435Y-88660874D01*
X133409000Y-88592560D01*
X132579192Y-88592560D01*
X129405000Y-85418369D01*
X129405000Y-84704283D01*
X129540000Y-84502242D01*
X129775423Y-84854577D01*
X130250091Y-85171740D01*
X130668667Y-85255000D01*
X130951333Y-85255000D01*
X131369909Y-85171740D01*
X131844577Y-84854577D01*
X132080000Y-84502242D01*
X132315423Y-84854577D01*
X132790091Y-85171740D01*
X133208667Y-85255000D01*
X133491333Y-85255000D01*
X133909909Y-85171740D01*
X134384577Y-84854577D01*
X134620000Y-84502242D01*
X134855423Y-84854577D01*
X135330091Y-85171740D01*
X135748667Y-85255000D01*
X136031333Y-85255000D01*
X136449909Y-85171740D01*
X136924577Y-84854577D01*
X137160000Y-84502242D01*
X137395423Y-84854577D01*
X137870091Y-85171740D01*
X138288667Y-85255000D01*
X138571333Y-85255000D01*
X138989909Y-85171740D01*
X139464577Y-84854577D01*
X139700000Y-84502242D01*
X139935423Y-84854577D01*
X140410091Y-85171740D01*
X140828667Y-85255000D01*
X141111333Y-85255000D01*
X141529909Y-85171740D01*
X142004577Y-84854577D01*
X142240000Y-84502242D01*
X142475423Y-84854577D01*
X142950091Y-85171740D01*
X143368667Y-85255000D01*
X143651333Y-85255000D01*
X144069909Y-85171740D01*
X144544577Y-84854577D01*
X144800947Y-84470892D01*
X144897611Y-84675134D01*
X145312577Y-85051041D01*
X145700961Y-85211904D01*
X145923000Y-85089915D01*
X145923000Y-83947000D01*
X145903000Y-83947000D01*
X145903000Y-83693000D01*
X145923000Y-83693000D01*
X145923000Y-82550085D01*
X146177000Y-82550085D01*
X146177000Y-83693000D01*
X146197000Y-83693000D01*
X146197000Y-83947000D01*
X146177000Y-83947000D01*
X146177000Y-85089915D01*
X146399039Y-85211904D01*
X146787423Y-85051041D01*
X147202389Y-84675134D01*
X147299053Y-84470892D01*
X147555423Y-84854577D01*
X148030091Y-85171740D01*
X148448667Y-85255000D01*
X148731333Y-85255000D01*
X149149909Y-85171740D01*
X149624577Y-84854577D01*
X149860000Y-84502242D01*
X149995001Y-84704285D01*
X149995000Y-98175717D01*
X149860000Y-98377758D01*
X149624577Y-98025423D01*
X149149909Y-97708260D01*
X148731333Y-97625000D01*
X148448667Y-97625000D01*
X148030091Y-97708260D01*
X147555423Y-98025423D01*
X147299053Y-98409108D01*
X147202389Y-98204866D01*
X146787423Y-97828959D01*
X146399039Y-97668096D01*
X146177000Y-97790085D01*
X146177000Y-98933000D01*
X146197000Y-98933000D01*
X146197000Y-99187000D01*
X146177000Y-99187000D01*
X146177000Y-100329915D01*
X146399039Y-100451904D01*
X146787423Y-100291041D01*
X147202389Y-99915134D01*
X147299053Y-99710892D01*
X147555423Y-100094577D01*
X148030091Y-100411740D01*
X148448667Y-100495000D01*
X148731333Y-100495000D01*
X149149909Y-100411740D01*
X149624577Y-100094577D01*
X149860000Y-99742242D01*
X150095423Y-100094577D01*
X150570091Y-100411740D01*
X150988667Y-100495000D01*
X151271333Y-100495000D01*
X151689909Y-100411740D01*
X152164577Y-100094577D01*
X152481740Y-99619909D01*
X152593113Y-99060000D01*
X152481740Y-98500091D01*
X152265000Y-98175717D01*
X152265000Y-96075431D01*
X157785000Y-96075431D01*
X157785000Y-96964569D01*
X158125259Y-97786026D01*
X158753974Y-98414741D01*
X159575431Y-98755000D01*
X160464569Y-98755000D01*
X161286026Y-98414741D01*
X161914741Y-97786026D01*
X162255000Y-96964569D01*
X162255000Y-96075431D01*
X161914741Y-95253974D01*
X161286026Y-94625259D01*
X160464569Y-94285000D01*
X159575431Y-94285000D01*
X158753974Y-94625259D01*
X158125259Y-95253974D01*
X157785000Y-96075431D01*
X152265000Y-96075431D01*
X152265000Y-89965750D01*
X161225000Y-89965750D01*
X161225000Y-90381309D01*
X161321673Y-90614698D01*
X161500301Y-90793327D01*
X161733690Y-90890000D01*
X162274250Y-90890000D01*
X162433000Y-90731250D01*
X162433000Y-89807000D01*
X162687000Y-89807000D01*
X162687000Y-90731250D01*
X162845750Y-90890000D01*
X163386310Y-90890000D01*
X163619699Y-90793327D01*
X163798327Y-90614698D01*
X163895000Y-90381309D01*
X163895000Y-89965750D01*
X163736250Y-89807000D01*
X162687000Y-89807000D01*
X162433000Y-89807000D01*
X161383750Y-89807000D01*
X161225000Y-89965750D01*
X152265000Y-89965750D01*
X152265000Y-84704283D01*
X152481740Y-84379909D01*
X152557849Y-83997282D01*
X153719381Y-82835750D01*
X157573000Y-82835750D01*
X157573000Y-83726309D01*
X157669673Y-83959698D01*
X157848301Y-84138327D01*
X158081690Y-84235000D01*
X158972250Y-84235000D01*
X159131000Y-84076250D01*
X159131000Y-82677000D01*
X159385000Y-82677000D01*
X159385000Y-84076250D01*
X159543750Y-84235000D01*
X160434310Y-84235000D01*
X160667699Y-84138327D01*
X160846327Y-83959698D01*
X160943000Y-83726309D01*
X160943000Y-82835750D01*
X160784250Y-82677000D01*
X159385000Y-82677000D01*
X159131000Y-82677000D01*
X157731750Y-82677000D01*
X157573000Y-82835750D01*
X153719381Y-82835750D01*
X155155521Y-81399611D01*
X155250289Y-81336289D01*
X155501146Y-80960855D01*
X155539483Y-80768120D01*
X155589235Y-80518001D01*
X155567000Y-80406218D01*
X155567000Y-77432131D01*
X156934132Y-76065000D01*
X158010050Y-76065000D01*
X158145050Y-76200000D01*
X157829526Y-76515524D01*
X157573000Y-77134833D01*
X157573000Y-77805167D01*
X157829526Y-78424476D01*
X158145050Y-78740000D01*
X157829526Y-79055524D01*
X157573000Y-79674833D01*
X157573000Y-80345167D01*
X157829526Y-80964476D01*
X157837512Y-80972462D01*
X157669673Y-81140302D01*
X157573000Y-81373691D01*
X157573000Y-82264250D01*
X157731750Y-82423000D01*
X159131000Y-82423000D01*
X159131000Y-82403000D01*
X159385000Y-82403000D01*
X159385000Y-82423000D01*
X160784250Y-82423000D01*
X160943000Y-82264250D01*
X160943000Y-81373691D01*
X160848273Y-81145000D01*
X161073869Y-81145000D01*
X161425001Y-81496133D01*
X161425000Y-86745863D01*
X161280873Y-86961564D01*
X161212560Y-87304999D01*
X161212560Y-87955001D01*
X161280873Y-88298436D01*
X161475414Y-88589586D01*
X161476597Y-88590377D01*
X161321673Y-88745302D01*
X161225000Y-88978691D01*
X161225000Y-89394250D01*
X161383750Y-89553000D01*
X162433000Y-89553000D01*
X162433000Y-89533000D01*
X162687000Y-89533000D01*
X162687000Y-89553000D01*
X163736250Y-89553000D01*
X163895000Y-89394250D01*
X163895000Y-88978691D01*
X163798327Y-88745302D01*
X163643403Y-88590377D01*
X163644586Y-88589586D01*
X163839127Y-88298436D01*
X163907440Y-87955001D01*
X163907440Y-87304999D01*
X163839127Y-86961564D01*
X163695000Y-86745864D01*
X163695000Y-81137783D01*
X163717235Y-81026000D01*
X163629146Y-80583145D01*
X163542088Y-80452854D01*
X163378289Y-80207711D01*
X163283521Y-80144389D01*
X162425613Y-79286481D01*
X162362289Y-79191711D01*
X161986855Y-78940854D01*
X161655783Y-78875000D01*
X161544000Y-78852765D01*
X161432217Y-78875000D01*
X160505950Y-78875000D01*
X160370950Y-78740000D01*
X160686474Y-78424476D01*
X160943000Y-77805167D01*
X160943000Y-77134833D01*
X160686474Y-76515524D01*
X160370950Y-76200000D01*
X160505950Y-76065000D01*
X161432217Y-76065000D01*
X161544000Y-76087235D01*
X161655783Y-76065000D01*
X161986855Y-75999146D01*
X162362289Y-75748289D01*
X162425613Y-75653519D01*
X163283521Y-74795611D01*
X163378289Y-74732289D01*
X163629146Y-74356855D01*
X163690503Y-74048392D01*
X163717235Y-73914000D01*
X163695000Y-73802217D01*
X163695000Y-68194136D01*
X163839127Y-67978436D01*
X163907440Y-67635001D01*
X163907440Y-66984999D01*
X163839127Y-66641564D01*
X163644586Y-66350414D01*
X163643403Y-66349623D01*
X163798327Y-66194698D01*
X163895000Y-65961309D01*
X163895000Y-65545750D01*
X163736250Y-65387000D01*
X162687000Y-65387000D01*
X162687000Y-65407000D01*
X162433000Y-65407000D01*
X162433000Y-65387000D01*
X161383750Y-65387000D01*
X161225000Y-65545750D01*
X161225000Y-65961309D01*
X161321673Y-66194698D01*
X161476597Y-66349623D01*
X161475414Y-66350414D01*
X161280873Y-66641564D01*
X161212560Y-66984999D01*
X161212560Y-67635001D01*
X161280873Y-67978436D01*
X161425001Y-68194138D01*
X161425000Y-73443868D01*
X161073869Y-73795000D01*
X160505950Y-73795000D01*
X160370950Y-73660000D01*
X160686474Y-73344476D01*
X160943000Y-72725167D01*
X160943000Y-72054833D01*
X160686474Y-71435524D01*
X160212476Y-70961526D01*
X159593167Y-70705000D01*
X158922833Y-70705000D01*
X158303524Y-70961526D01*
X157829526Y-71435524D01*
X157573000Y-72054833D01*
X157573000Y-72725167D01*
X157829526Y-73344476D01*
X158145050Y-73660000D01*
X158010050Y-73795000D01*
X156575783Y-73795000D01*
X156464000Y-73772765D01*
X156021145Y-73860854D01*
X155645711Y-74111711D01*
X155582389Y-74206479D01*
X153708482Y-76080387D01*
X153613711Y-76143711D01*
X153365274Y-76515524D01*
X153362854Y-76519146D01*
X153274765Y-76962000D01*
X153297000Y-77073783D01*
X153297001Y-80047867D01*
X150952718Y-82392151D01*
X150570091Y-82468260D01*
X150095423Y-82785423D01*
X149860000Y-83137758D01*
X149624577Y-82785423D01*
X149149909Y-82468260D01*
X148731333Y-82385000D01*
X148448667Y-82385000D01*
X148030091Y-82468260D01*
X147555423Y-82785423D01*
X147299053Y-83169108D01*
X147202389Y-82964866D01*
X146787423Y-82588959D01*
X146399039Y-82428096D01*
X146177000Y-82550085D01*
X145923000Y-82550085D01*
X145700961Y-82428096D01*
X145312577Y-82588959D01*
X144897611Y-82964866D01*
X144800947Y-83169108D01*
X144544577Y-82785423D01*
X144069909Y-82468260D01*
X143651333Y-82385000D01*
X143368667Y-82385000D01*
X142950091Y-82468260D01*
X142475423Y-82785423D01*
X142240000Y-83137758D01*
X142004577Y-82785423D01*
X141529909Y-82468260D01*
X141111333Y-82385000D01*
X140828667Y-82385000D01*
X140410091Y-82468260D01*
X139935423Y-82785423D01*
X139700000Y-83137758D01*
X139464577Y-82785423D01*
X138989909Y-82468260D01*
X138571333Y-82385000D01*
X138288667Y-82385000D01*
X137870091Y-82468260D01*
X137395423Y-82785423D01*
X137160000Y-83137758D01*
X136924577Y-82785423D01*
X136449909Y-82468260D01*
X136031333Y-82385000D01*
X135748667Y-82385000D01*
X135330091Y-82468260D01*
X134855423Y-82785423D01*
X134620000Y-83137758D01*
X134384577Y-82785423D01*
X133909909Y-82468260D01*
X133491333Y-82385000D01*
X133208667Y-82385000D01*
X132790091Y-82468260D01*
X132315423Y-82785423D01*
X132080000Y-83137758D01*
X131844577Y-82785423D01*
X131369909Y-82468260D01*
X130951333Y-82385000D01*
X130668667Y-82385000D01*
X130250091Y-82468260D01*
X129775423Y-82785423D01*
X129540000Y-83137758D01*
X129304577Y-82785423D01*
X128829909Y-82468260D01*
X128411333Y-82385000D01*
X128128667Y-82385000D01*
X127710091Y-82468260D01*
X127385717Y-82685000D01*
X126614283Y-82685000D01*
X126289909Y-82468260D01*
X125871333Y-82385000D01*
X125588667Y-82385000D01*
X125170091Y-82468260D01*
X124695423Y-82785423D01*
X124460000Y-83137758D01*
X124224577Y-82785423D01*
X123749909Y-82468260D01*
X123331333Y-82385000D01*
X123048667Y-82385000D01*
X122630091Y-82468260D01*
X122155423Y-82785423D01*
X121838260Y-83260091D01*
X121726887Y-83820000D01*
X120154353Y-83820000D01*
X120138839Y-83450540D01*
X119954643Y-83005852D01*
X119698159Y-82919446D01*
X118797605Y-83820000D01*
X118438395Y-83820000D01*
X117537841Y-82919446D01*
X117281357Y-83005852D01*
X117071542Y-83579336D01*
X111117000Y-83579336D01*
X111117000Y-82739841D01*
X117717446Y-82739841D01*
X118618000Y-83640395D01*
X119518554Y-82739841D01*
X119432148Y-82483357D01*
X118858664Y-82273542D01*
X118248540Y-82299161D01*
X117803852Y-82483357D01*
X117717446Y-82739841D01*
X111117000Y-82739841D01*
X111117000Y-82164136D01*
X111261127Y-81948436D01*
X111329440Y-81605001D01*
X111329440Y-80954999D01*
X111261127Y-80611564D01*
X111066586Y-80320414D01*
X111065403Y-80319623D01*
X111220327Y-80164698D01*
X111317000Y-79931309D01*
X111317000Y-79515750D01*
X111158250Y-79357000D01*
X110109000Y-79357000D01*
X110109000Y-79377000D01*
X109855000Y-79377000D01*
X109855000Y-79357000D01*
X108805750Y-79357000D01*
X108647000Y-79515750D01*
X108647000Y-79931309D01*
X108743673Y-80164698D01*
X108898597Y-80319623D01*
X108897414Y-80320414D01*
X108702873Y-80611564D01*
X108634560Y-80954999D01*
X108634560Y-81605001D01*
X108702873Y-81948436D01*
X108847000Y-82164137D01*
X108847001Y-85501413D01*
X108734235Y-85523843D01*
X108524191Y-85664191D01*
X108383843Y-85874235D01*
X108382400Y-85881491D01*
X108316264Y-85702613D01*
X107706539Y-85476092D01*
X107056540Y-85500144D01*
X106567736Y-85702613D01*
X106469073Y-85969468D01*
X106061707Y-85969468D01*
X105828153Y-85735914D01*
X105227222Y-85487000D01*
X104576778Y-85487000D01*
X103975847Y-85735914D01*
X103515914Y-86195847D01*
X103267000Y-86796778D01*
X89610000Y-86796778D01*
X89610000Y-80330001D01*
X93252560Y-80330001D01*
X93252560Y-82529999D01*
X93320874Y-82873435D01*
X93515414Y-83164586D01*
X93806565Y-83359126D01*
X94150001Y-83427440D01*
X96349999Y-83427440D01*
X96693435Y-83359126D01*
X96984586Y-83164586D01*
X97179126Y-82873435D01*
X97247440Y-82529999D01*
X97247440Y-80330001D01*
X97179126Y-79986565D01*
X96984586Y-79695414D01*
X96693435Y-79500874D01*
X96349999Y-79432560D01*
X95699016Y-79432560D01*
X96374412Y-79152801D01*
X96932801Y-78594412D01*
X96960023Y-78528691D01*
X108647000Y-78528691D01*
X108647000Y-78944250D01*
X108805750Y-79103000D01*
X109855000Y-79103000D01*
X109855000Y-78178750D01*
X110109000Y-78178750D01*
X110109000Y-79103000D01*
X111158250Y-79103000D01*
X111317000Y-78944250D01*
X111317000Y-78528691D01*
X111220327Y-78295302D01*
X111041699Y-78116673D01*
X110808310Y-78020000D01*
X110267750Y-78020000D01*
X110109000Y-78178750D01*
X109855000Y-78178750D01*
X109696250Y-78020000D01*
X109155690Y-78020000D01*
X108922301Y-78116673D01*
X108743673Y-78295302D01*
X108647000Y-78528691D01*
X96960023Y-78528691D01*
X97235000Y-77864841D01*
X97235000Y-77075159D01*
X96932801Y-76345588D01*
X96374412Y-75787199D01*
X96278141Y-75747322D01*
X103021000Y-75747322D01*
X103021000Y-76596678D01*
X103346034Y-77381380D01*
X103946620Y-77981966D01*
X104731322Y-78307000D01*
X105580678Y-78307000D01*
X106365380Y-77981966D01*
X106661376Y-77685970D01*
X148821635Y-77685970D01*
X148981418Y-78004739D01*
X149772187Y-78314723D01*
X150621387Y-78298497D01*
X151330582Y-78004739D01*
X151490365Y-77685970D01*
X150156000Y-76351605D01*
X148821635Y-77685970D01*
X106661376Y-77685970D01*
X106965966Y-77381380D01*
X107291000Y-76596678D01*
X107291000Y-75788187D01*
X148013277Y-75788187D01*
X148029503Y-76637387D01*
X148323261Y-77346582D01*
X148642030Y-77506365D01*
X149976395Y-76172000D01*
X150335605Y-76172000D01*
X151669970Y-77506365D01*
X151988739Y-77346582D01*
X152298723Y-76555813D01*
X152282497Y-75706613D01*
X151988739Y-74997418D01*
X151669970Y-74837635D01*
X150335605Y-76172000D01*
X149976395Y-76172000D01*
X148642030Y-74837635D01*
X148323261Y-74997418D01*
X148013277Y-75788187D01*
X107291000Y-75788187D01*
X107291000Y-75747322D01*
X106965966Y-74962620D01*
X106661376Y-74658030D01*
X148821635Y-74658030D01*
X150156000Y-75992395D01*
X151490365Y-74658030D01*
X151330582Y-74339261D01*
X150539813Y-74029277D01*
X149690613Y-74045503D01*
X148981418Y-74339261D01*
X148821635Y-74658030D01*
X106661376Y-74658030D01*
X106365380Y-74362034D01*
X105580678Y-74037000D01*
X104731322Y-74037000D01*
X103946620Y-74362034D01*
X103346034Y-74962620D01*
X103021000Y-75747322D01*
X96278141Y-75747322D01*
X95656912Y-75490000D01*
X96374412Y-75192801D01*
X96932801Y-74634412D01*
X97235000Y-73904841D01*
X97235000Y-73115159D01*
X96932801Y-72385588D01*
X96374412Y-71827199D01*
X95644841Y-71525000D01*
X94855159Y-71525000D01*
X94125588Y-71827199D01*
X93567199Y-72385588D01*
X93265000Y-73115159D01*
X93265000Y-73904841D01*
X93567199Y-74634412D01*
X94125588Y-75192801D01*
X94843088Y-75490000D01*
X94125588Y-75787199D01*
X93567199Y-76345588D01*
X93265000Y-77075159D01*
X93265000Y-77864841D01*
X93567199Y-78594412D01*
X94125588Y-79152801D01*
X94800984Y-79432560D01*
X94150001Y-79432560D01*
X93806565Y-79500874D01*
X93515414Y-79695414D01*
X93320874Y-79986565D01*
X93252560Y-80330001D01*
X89610000Y-80330001D01*
X89610000Y-67619778D01*
X93615000Y-67619778D01*
X93615000Y-68270222D01*
X93863914Y-68871153D01*
X94323847Y-69331086D01*
X94924778Y-69580000D01*
X95575222Y-69580000D01*
X96176153Y-69331086D01*
X96636086Y-68871153D01*
X96885000Y-68270222D01*
X96885000Y-67747322D01*
X148021000Y-67747322D01*
X148021000Y-68596678D01*
X148346034Y-69381380D01*
X148946620Y-69981966D01*
X149731322Y-70307000D01*
X150580678Y-70307000D01*
X151365380Y-69981966D01*
X151965966Y-69381380D01*
X152291000Y-68596678D01*
X152291000Y-67747322D01*
X151965966Y-66962620D01*
X151365380Y-66362034D01*
X150580678Y-66037000D01*
X149731322Y-66037000D01*
X148946620Y-66362034D01*
X148346034Y-66962620D01*
X148021000Y-67747322D01*
X96885000Y-67747322D01*
X96885000Y-67619778D01*
X96636086Y-67018847D01*
X96176153Y-66558914D01*
X95575222Y-66310000D01*
X94924778Y-66310000D01*
X94323847Y-66558914D01*
X93863914Y-67018847D01*
X93615000Y-67619778D01*
X89610000Y-67619778D01*
X89610000Y-64558691D01*
X161225000Y-64558691D01*
X161225000Y-64974250D01*
X161383750Y-65133000D01*
X162433000Y-65133000D01*
X162433000Y-64208750D01*
X162687000Y-64208750D01*
X162687000Y-65133000D01*
X163736250Y-65133000D01*
X163895000Y-64974250D01*
X163895000Y-64558691D01*
X163798327Y-64325302D01*
X163619699Y-64146673D01*
X163386310Y-64050000D01*
X162845750Y-64050000D01*
X162687000Y-64208750D01*
X162433000Y-64208750D01*
X162274250Y-64050000D01*
X161733690Y-64050000D01*
X161500301Y-64146673D01*
X161321673Y-64325302D01*
X161225000Y-64558691D01*
X89610000Y-64558691D01*
X89610000Y-62539778D01*
X93625000Y-62539778D01*
X93625000Y-63190222D01*
X93873914Y-63791153D01*
X94333847Y-64251086D01*
X94934778Y-64500000D01*
X95585222Y-64500000D01*
X96186153Y-64251086D01*
X96646086Y-63791153D01*
X96895000Y-63190222D01*
X96895000Y-62539778D01*
X96646086Y-61938847D01*
X96186153Y-61478914D01*
X95585222Y-61230000D01*
X94934778Y-61230000D01*
X94333847Y-61478914D01*
X93873914Y-61938847D01*
X93625000Y-62539778D01*
X89610000Y-62539778D01*
X89610000Y-55435431D01*
X91745000Y-55435431D01*
X91745000Y-56324569D01*
X92085259Y-57146026D01*
X92713974Y-57774741D01*
X93535431Y-58115000D01*
X94424569Y-58115000D01*
X95246026Y-57774741D01*
X95874741Y-57146026D01*
X96215000Y-56324569D01*
X96215000Y-55435431D01*
X96188726Y-55372000D01*
X102980969Y-55372000D01*
X103008560Y-55510709D01*
X103008560Y-56872000D01*
X103057843Y-57119765D01*
X103198191Y-57329809D01*
X103408235Y-57470157D01*
X103656000Y-57519440D01*
X106656000Y-57519440D01*
X106903765Y-57470157D01*
X107113809Y-57329809D01*
X107254157Y-57119765D01*
X107303440Y-56872000D01*
X107303440Y-55435431D01*
X157785000Y-55435431D01*
X157785000Y-56324569D01*
X158125259Y-57146026D01*
X158753974Y-57774741D01*
X159575431Y-58115000D01*
X160464569Y-58115000D01*
X161286026Y-57774741D01*
X161914741Y-57146026D01*
X162255000Y-56324569D01*
X162255000Y-55435431D01*
X161914741Y-54613974D01*
X161286026Y-53985259D01*
X160464569Y-53645000D01*
X159575431Y-53645000D01*
X158753974Y-53985259D01*
X158125259Y-54613974D01*
X157785000Y-55435431D01*
X107303440Y-55435431D01*
X107303440Y-53872000D01*
X107254157Y-53624235D01*
X107113809Y-53414191D01*
X106903765Y-53273843D01*
X106656000Y-53224560D01*
X103656000Y-53224560D01*
X103408235Y-53273843D01*
X103198191Y-53414191D01*
X103057843Y-53624235D01*
X103008560Y-53872000D01*
X103008560Y-55233291D01*
X102980969Y-55372000D01*
X96188726Y-55372000D01*
X95874741Y-54613974D01*
X95246026Y-53985259D01*
X94424569Y-53645000D01*
X93535431Y-53645000D01*
X92713974Y-53985259D01*
X92085259Y-54613974D01*
X91745000Y-55435431D01*
X89610000Y-55435431D01*
X89610000Y-53384666D01*
X89672958Y-52886302D01*
X89764492Y-52655114D01*
X90759948Y-51659658D01*
X90876244Y-51604933D01*
X91358662Y-51512907D01*
X91451164Y-51510000D01*
X162515334Y-51510000D01*
X163013698Y-51572958D01*
G04 #@! TD*
M02*
