G04 #@! TF.GenerationSoftware,KiCad,Pcbnew,(5.0.2)-1*
G04 #@! TF.CreationDate,2019-02-12T20:31:54-06:00*
G04 #@! TF.ProjectId,Nixie-PSU,4e697869-652d-4505-9355-2e6b69636164,rev?*
G04 #@! TF.SameCoordinates,Original*
G04 #@! TF.FileFunction,Paste,Top*
G04 #@! TF.FilePolarity,Positive*
%FSLAX46Y46*%
G04 Gerber Fmt 4.6, Leading zero omitted, Abs format (unit mm)*
G04 Created by KiCad (PCBNEW (5.0.2)-1) date 2/12/2019 8:31:54 PM*
%MOMM*%
%LPD*%
G01*
G04 APERTURE LIST*
%ADD10C,0.100000*%
%ADD11C,1.150000*%
G04 APERTURE END LIST*
D10*
G04 #@! TO.C,R1*
G36*
X159732505Y-64686204D02*
X159756773Y-64689804D01*
X159780572Y-64695765D01*
X159803671Y-64704030D01*
X159825850Y-64714520D01*
X159846893Y-64727132D01*
X159866599Y-64741747D01*
X159884777Y-64758223D01*
X159901253Y-64776401D01*
X159915868Y-64796107D01*
X159928480Y-64817150D01*
X159938970Y-64839329D01*
X159947235Y-64862428D01*
X159953196Y-64886227D01*
X159956796Y-64910495D01*
X159958000Y-64934999D01*
X159958000Y-65585001D01*
X159956796Y-65609505D01*
X159953196Y-65633773D01*
X159947235Y-65657572D01*
X159938970Y-65680671D01*
X159928480Y-65702850D01*
X159915868Y-65723893D01*
X159901253Y-65743599D01*
X159884777Y-65761777D01*
X159866599Y-65778253D01*
X159846893Y-65792868D01*
X159825850Y-65805480D01*
X159803671Y-65815970D01*
X159780572Y-65824235D01*
X159756773Y-65830196D01*
X159732505Y-65833796D01*
X159708001Y-65835000D01*
X158807999Y-65835000D01*
X158783495Y-65833796D01*
X158759227Y-65830196D01*
X158735428Y-65824235D01*
X158712329Y-65815970D01*
X158690150Y-65805480D01*
X158669107Y-65792868D01*
X158649401Y-65778253D01*
X158631223Y-65761777D01*
X158614747Y-65743599D01*
X158600132Y-65723893D01*
X158587520Y-65702850D01*
X158577030Y-65680671D01*
X158568765Y-65657572D01*
X158562804Y-65633773D01*
X158559204Y-65609505D01*
X158558000Y-65585001D01*
X158558000Y-64934999D01*
X158559204Y-64910495D01*
X158562804Y-64886227D01*
X158568765Y-64862428D01*
X158577030Y-64839329D01*
X158587520Y-64817150D01*
X158600132Y-64796107D01*
X158614747Y-64776401D01*
X158631223Y-64758223D01*
X158649401Y-64741747D01*
X158669107Y-64727132D01*
X158690150Y-64714520D01*
X158712329Y-64704030D01*
X158735428Y-64695765D01*
X158759227Y-64689804D01*
X158783495Y-64686204D01*
X158807999Y-64685000D01*
X159708001Y-64685000D01*
X159732505Y-64686204D01*
X159732505Y-64686204D01*
G37*
D11*
X159258000Y-65260000D03*
D10*
G36*
X159732505Y-66736204D02*
X159756773Y-66739804D01*
X159780572Y-66745765D01*
X159803671Y-66754030D01*
X159825850Y-66764520D01*
X159846893Y-66777132D01*
X159866599Y-66791747D01*
X159884777Y-66808223D01*
X159901253Y-66826401D01*
X159915868Y-66846107D01*
X159928480Y-66867150D01*
X159938970Y-66889329D01*
X159947235Y-66912428D01*
X159953196Y-66936227D01*
X159956796Y-66960495D01*
X159958000Y-66984999D01*
X159958000Y-67635001D01*
X159956796Y-67659505D01*
X159953196Y-67683773D01*
X159947235Y-67707572D01*
X159938970Y-67730671D01*
X159928480Y-67752850D01*
X159915868Y-67773893D01*
X159901253Y-67793599D01*
X159884777Y-67811777D01*
X159866599Y-67828253D01*
X159846893Y-67842868D01*
X159825850Y-67855480D01*
X159803671Y-67865970D01*
X159780572Y-67874235D01*
X159756773Y-67880196D01*
X159732505Y-67883796D01*
X159708001Y-67885000D01*
X158807999Y-67885000D01*
X158783495Y-67883796D01*
X158759227Y-67880196D01*
X158735428Y-67874235D01*
X158712329Y-67865970D01*
X158690150Y-67855480D01*
X158669107Y-67842868D01*
X158649401Y-67828253D01*
X158631223Y-67811777D01*
X158614747Y-67793599D01*
X158600132Y-67773893D01*
X158587520Y-67752850D01*
X158577030Y-67730671D01*
X158568765Y-67707572D01*
X158562804Y-67683773D01*
X158559204Y-67659505D01*
X158558000Y-67635001D01*
X158558000Y-66984999D01*
X158559204Y-66960495D01*
X158562804Y-66936227D01*
X158568765Y-66912428D01*
X158577030Y-66889329D01*
X158587520Y-66867150D01*
X158600132Y-66846107D01*
X158614747Y-66826401D01*
X158631223Y-66808223D01*
X158649401Y-66791747D01*
X158669107Y-66777132D01*
X158690150Y-66764520D01*
X158712329Y-66754030D01*
X158735428Y-66745765D01*
X158759227Y-66739804D01*
X158783495Y-66736204D01*
X158807999Y-66735000D01*
X159708001Y-66735000D01*
X159732505Y-66736204D01*
X159732505Y-66736204D01*
G37*
D11*
X159258000Y-67310000D03*
G04 #@! TD*
M02*
