M48
;DRILL file {KiCad (5.0.2)-1} date 2/12/2019 8:31:57 PM
;FORMAT={-:-/ absolute / inch / decimal}
FMAT,2
INCH,TZ
T1C0.0315
T2C0.0394
T3C0.0433
T4C0.0472
T5C0.0591
T6C0.0669
T7C0.1181
%
G90
G05
T1
X4.85Y-3.3
X4.85Y-3.9
X4.95Y-3.3
X4.95Y-3.9
X5.05Y-3.3
X5.05Y-3.9
X5.15Y-3.3
X5.15Y-3.9
X5.25Y-3.3
X5.25Y-3.9
X5.35Y-3.3
X5.35Y-3.9
X5.45Y-3.3
X5.45Y-3.9
X5.55Y-3.3
X5.55Y-3.9
X5.65Y-3.3
X5.65Y-3.9
X5.75Y-3.3
X5.75Y-3.9
X5.85Y-3.3
X5.85Y-3.9
X5.95Y-3.3
X5.95Y-3.9
T2
X4.13Y-3.43
X4.23Y-3.43
X4.33Y-3.43
X3.75Y-2.675
X3.7504Y-2.475
X4.57Y-3.6
X4.67Y-3.3
X4.67Y-3.8
T3
X6.27Y-2.85
X6.27Y-2.95
X6.27Y-3.05
X6.27Y-3.15
X6.27Y-3.25
T4
X3.98Y-3.9
X4.08Y-3.9
X4.18Y-3.9
T5
X4.14Y-2.18
X4.14Y-2.9989
X5.9117Y-2.6839
X5.9117Y-2.9989
T6
X3.75Y-2.8941
X3.75Y-3.05
X3.75Y-3.2059
T7
X3.7Y-3.8
T0
M30
