G04 #@! TF.GenerationSoftware,KiCad,Pcbnew,(5.0.2)-1*
G04 #@! TF.CreationDate,2019-02-12T20:31:54-06:00*
G04 #@! TF.ProjectId,Nixie-PSU,4e697869-652d-4505-9355-2e6b69636164,rev?*
G04 #@! TF.SameCoordinates,Original*
G04 #@! TF.FileFunction,Soldermask,Top*
G04 #@! TF.FilePolarity,Negative*
%FSLAX46Y46*%
G04 Gerber Fmt 4.6, Leading zero omitted, Abs format (unit mm)*
G04 Created by KiCad (PCBNEW (5.0.2)-1) date 2/12/2019 8:31:54 PM*
%MOMM*%
%LPD*%
G01*
G04 APERTURE LIST*
%ADD10C,0.100000*%
G04 APERTURE END LIST*
D10*
G36*
X103828719Y-98023520D02*
X104017880Y-98080901D01*
X104192212Y-98174083D01*
X104345015Y-98299485D01*
X104470417Y-98452288D01*
X104563599Y-98626619D01*
X104620980Y-98815780D01*
X104635500Y-98963206D01*
X104635500Y-99156793D01*
X104620980Y-99304219D01*
X104563599Y-99493380D01*
X104470417Y-99667712D01*
X104345015Y-99820515D01*
X104192212Y-99945917D01*
X104017881Y-100039099D01*
X103828720Y-100096480D01*
X103632000Y-100115855D01*
X103435281Y-100096480D01*
X103246120Y-100039099D01*
X103071788Y-99945917D01*
X102918985Y-99820515D01*
X102793583Y-99667712D01*
X102700401Y-99493381D01*
X102643020Y-99304220D01*
X102628500Y-99156794D01*
X102628500Y-98963207D01*
X102643020Y-98815781D01*
X102700401Y-98626620D01*
X102793583Y-98452288D01*
X102918985Y-98299485D01*
X103071788Y-98174083D01*
X103246119Y-98080901D01*
X103435280Y-98023520D01*
X103632000Y-98004145D01*
X103828719Y-98023520D01*
X103828719Y-98023520D01*
G37*
G36*
X106368719Y-98023520D02*
X106557880Y-98080901D01*
X106732212Y-98174083D01*
X106885015Y-98299485D01*
X107010417Y-98452288D01*
X107103599Y-98626619D01*
X107160980Y-98815780D01*
X107175500Y-98963206D01*
X107175500Y-99156793D01*
X107160980Y-99304219D01*
X107103599Y-99493380D01*
X107010417Y-99667712D01*
X106885015Y-99820515D01*
X106732212Y-99945917D01*
X106557881Y-100039099D01*
X106368720Y-100096480D01*
X106172000Y-100115855D01*
X105975281Y-100096480D01*
X105786120Y-100039099D01*
X105611788Y-99945917D01*
X105458985Y-99820515D01*
X105333583Y-99667712D01*
X105240401Y-99493381D01*
X105183020Y-99304220D01*
X105168500Y-99156794D01*
X105168500Y-98963207D01*
X105183020Y-98815781D01*
X105240401Y-98626620D01*
X105333583Y-98452288D01*
X105458985Y-98299485D01*
X105611788Y-98174083D01*
X105786119Y-98080901D01*
X105975280Y-98023520D01*
X106172000Y-98004145D01*
X106368719Y-98023520D01*
X106368719Y-98023520D01*
G37*
G36*
X102095500Y-100111000D02*
X100088500Y-100111000D01*
X100088500Y-98009000D01*
X102095500Y-98009000D01*
X102095500Y-100111000D01*
X102095500Y-100111000D01*
G37*
G36*
X143676821Y-98221313D02*
X143676824Y-98221314D01*
X143676825Y-98221314D01*
X143837239Y-98269975D01*
X143837241Y-98269976D01*
X143837244Y-98269977D01*
X143985078Y-98348995D01*
X144114659Y-98455341D01*
X144221005Y-98584922D01*
X144300023Y-98732756D01*
X144300024Y-98732759D01*
X144300025Y-98732761D01*
X144347682Y-98889866D01*
X144348687Y-98893179D01*
X144365117Y-99060000D01*
X144348687Y-99226821D01*
X144348686Y-99226824D01*
X144348686Y-99226825D01*
X144325209Y-99304220D01*
X144300023Y-99387244D01*
X144221005Y-99535078D01*
X144114659Y-99664659D01*
X143985078Y-99771005D01*
X143837244Y-99850023D01*
X143837241Y-99850024D01*
X143837239Y-99850025D01*
X143676825Y-99898686D01*
X143676824Y-99898686D01*
X143676821Y-99898687D01*
X143551804Y-99911000D01*
X143468196Y-99911000D01*
X143343179Y-99898687D01*
X143343176Y-99898686D01*
X143343175Y-99898686D01*
X143182761Y-99850025D01*
X143182759Y-99850024D01*
X143182756Y-99850023D01*
X143034922Y-99771005D01*
X142905341Y-99664659D01*
X142798995Y-99535078D01*
X142719977Y-99387244D01*
X142694792Y-99304220D01*
X142671314Y-99226825D01*
X142671314Y-99226824D01*
X142671313Y-99226821D01*
X142654883Y-99060000D01*
X142671313Y-98893179D01*
X142672318Y-98889866D01*
X142719975Y-98732761D01*
X142719976Y-98732759D01*
X142719977Y-98732756D01*
X142798995Y-98584922D01*
X142905341Y-98455341D01*
X143034922Y-98348995D01*
X143182756Y-98269977D01*
X143182759Y-98269976D01*
X143182761Y-98269975D01*
X143343175Y-98221314D01*
X143343176Y-98221314D01*
X143343179Y-98221313D01*
X143468196Y-98209000D01*
X143551804Y-98209000D01*
X143676821Y-98221313D01*
X143676821Y-98221313D01*
G37*
G36*
X141136821Y-98221313D02*
X141136824Y-98221314D01*
X141136825Y-98221314D01*
X141297239Y-98269975D01*
X141297241Y-98269976D01*
X141297244Y-98269977D01*
X141445078Y-98348995D01*
X141574659Y-98455341D01*
X141681005Y-98584922D01*
X141760023Y-98732756D01*
X141760024Y-98732759D01*
X141760025Y-98732761D01*
X141807682Y-98889866D01*
X141808687Y-98893179D01*
X141825117Y-99060000D01*
X141808687Y-99226821D01*
X141808686Y-99226824D01*
X141808686Y-99226825D01*
X141785209Y-99304220D01*
X141760023Y-99387244D01*
X141681005Y-99535078D01*
X141574659Y-99664659D01*
X141445078Y-99771005D01*
X141297244Y-99850023D01*
X141297241Y-99850024D01*
X141297239Y-99850025D01*
X141136825Y-99898686D01*
X141136824Y-99898686D01*
X141136821Y-99898687D01*
X141011804Y-99911000D01*
X140928196Y-99911000D01*
X140803179Y-99898687D01*
X140803176Y-99898686D01*
X140803175Y-99898686D01*
X140642761Y-99850025D01*
X140642759Y-99850024D01*
X140642756Y-99850023D01*
X140494922Y-99771005D01*
X140365341Y-99664659D01*
X140258995Y-99535078D01*
X140179977Y-99387244D01*
X140154792Y-99304220D01*
X140131314Y-99226825D01*
X140131314Y-99226824D01*
X140131313Y-99226821D01*
X140114883Y-99060000D01*
X140131313Y-98893179D01*
X140132318Y-98889866D01*
X140179975Y-98732761D01*
X140179976Y-98732759D01*
X140179977Y-98732756D01*
X140258995Y-98584922D01*
X140365341Y-98455341D01*
X140494922Y-98348995D01*
X140642756Y-98269977D01*
X140642759Y-98269976D01*
X140642761Y-98269975D01*
X140803175Y-98221314D01*
X140803176Y-98221314D01*
X140803179Y-98221313D01*
X140928196Y-98209000D01*
X141011804Y-98209000D01*
X141136821Y-98221313D01*
X141136821Y-98221313D01*
G37*
G36*
X138596821Y-98221313D02*
X138596824Y-98221314D01*
X138596825Y-98221314D01*
X138757239Y-98269975D01*
X138757241Y-98269976D01*
X138757244Y-98269977D01*
X138905078Y-98348995D01*
X139034659Y-98455341D01*
X139141005Y-98584922D01*
X139220023Y-98732756D01*
X139220024Y-98732759D01*
X139220025Y-98732761D01*
X139267682Y-98889866D01*
X139268687Y-98893179D01*
X139285117Y-99060000D01*
X139268687Y-99226821D01*
X139268686Y-99226824D01*
X139268686Y-99226825D01*
X139245209Y-99304220D01*
X139220023Y-99387244D01*
X139141005Y-99535078D01*
X139034659Y-99664659D01*
X138905078Y-99771005D01*
X138757244Y-99850023D01*
X138757241Y-99850024D01*
X138757239Y-99850025D01*
X138596825Y-99898686D01*
X138596824Y-99898686D01*
X138596821Y-99898687D01*
X138471804Y-99911000D01*
X138388196Y-99911000D01*
X138263179Y-99898687D01*
X138263176Y-99898686D01*
X138263175Y-99898686D01*
X138102761Y-99850025D01*
X138102759Y-99850024D01*
X138102756Y-99850023D01*
X137954922Y-99771005D01*
X137825341Y-99664659D01*
X137718995Y-99535078D01*
X137639977Y-99387244D01*
X137614792Y-99304220D01*
X137591314Y-99226825D01*
X137591314Y-99226824D01*
X137591313Y-99226821D01*
X137574883Y-99060000D01*
X137591313Y-98893179D01*
X137592318Y-98889866D01*
X137639975Y-98732761D01*
X137639976Y-98732759D01*
X137639977Y-98732756D01*
X137718995Y-98584922D01*
X137825341Y-98455341D01*
X137954922Y-98348995D01*
X138102756Y-98269977D01*
X138102759Y-98269976D01*
X138102761Y-98269975D01*
X138263175Y-98221314D01*
X138263176Y-98221314D01*
X138263179Y-98221313D01*
X138388196Y-98209000D01*
X138471804Y-98209000D01*
X138596821Y-98221313D01*
X138596821Y-98221313D01*
G37*
G36*
X136056821Y-98221313D02*
X136056824Y-98221314D01*
X136056825Y-98221314D01*
X136217239Y-98269975D01*
X136217241Y-98269976D01*
X136217244Y-98269977D01*
X136365078Y-98348995D01*
X136494659Y-98455341D01*
X136601005Y-98584922D01*
X136680023Y-98732756D01*
X136680024Y-98732759D01*
X136680025Y-98732761D01*
X136727682Y-98889866D01*
X136728687Y-98893179D01*
X136745117Y-99060000D01*
X136728687Y-99226821D01*
X136728686Y-99226824D01*
X136728686Y-99226825D01*
X136705209Y-99304220D01*
X136680023Y-99387244D01*
X136601005Y-99535078D01*
X136494659Y-99664659D01*
X136365078Y-99771005D01*
X136217244Y-99850023D01*
X136217241Y-99850024D01*
X136217239Y-99850025D01*
X136056825Y-99898686D01*
X136056824Y-99898686D01*
X136056821Y-99898687D01*
X135931804Y-99911000D01*
X135848196Y-99911000D01*
X135723179Y-99898687D01*
X135723176Y-99898686D01*
X135723175Y-99898686D01*
X135562761Y-99850025D01*
X135562759Y-99850024D01*
X135562756Y-99850023D01*
X135414922Y-99771005D01*
X135285341Y-99664659D01*
X135178995Y-99535078D01*
X135099977Y-99387244D01*
X135074792Y-99304220D01*
X135051314Y-99226825D01*
X135051314Y-99226824D01*
X135051313Y-99226821D01*
X135034883Y-99060000D01*
X135051313Y-98893179D01*
X135052318Y-98889866D01*
X135099975Y-98732761D01*
X135099976Y-98732759D01*
X135099977Y-98732756D01*
X135178995Y-98584922D01*
X135285341Y-98455341D01*
X135414922Y-98348995D01*
X135562756Y-98269977D01*
X135562759Y-98269976D01*
X135562761Y-98269975D01*
X135723175Y-98221314D01*
X135723176Y-98221314D01*
X135723179Y-98221313D01*
X135848196Y-98209000D01*
X135931804Y-98209000D01*
X136056821Y-98221313D01*
X136056821Y-98221313D01*
G37*
G36*
X146216821Y-98221313D02*
X146216824Y-98221314D01*
X146216825Y-98221314D01*
X146377239Y-98269975D01*
X146377241Y-98269976D01*
X146377244Y-98269977D01*
X146525078Y-98348995D01*
X146654659Y-98455341D01*
X146761005Y-98584922D01*
X146840023Y-98732756D01*
X146840024Y-98732759D01*
X146840025Y-98732761D01*
X146887682Y-98889866D01*
X146888687Y-98893179D01*
X146905117Y-99060000D01*
X146888687Y-99226821D01*
X146888686Y-99226824D01*
X146888686Y-99226825D01*
X146865209Y-99304220D01*
X146840023Y-99387244D01*
X146761005Y-99535078D01*
X146654659Y-99664659D01*
X146525078Y-99771005D01*
X146377244Y-99850023D01*
X146377241Y-99850024D01*
X146377239Y-99850025D01*
X146216825Y-99898686D01*
X146216824Y-99898686D01*
X146216821Y-99898687D01*
X146091804Y-99911000D01*
X146008196Y-99911000D01*
X145883179Y-99898687D01*
X145883176Y-99898686D01*
X145883175Y-99898686D01*
X145722761Y-99850025D01*
X145722759Y-99850024D01*
X145722756Y-99850023D01*
X145574922Y-99771005D01*
X145445341Y-99664659D01*
X145338995Y-99535078D01*
X145259977Y-99387244D01*
X145234792Y-99304220D01*
X145211314Y-99226825D01*
X145211314Y-99226824D01*
X145211313Y-99226821D01*
X145194883Y-99060000D01*
X145211313Y-98893179D01*
X145212318Y-98889866D01*
X145259975Y-98732761D01*
X145259976Y-98732759D01*
X145259977Y-98732756D01*
X145338995Y-98584922D01*
X145445341Y-98455341D01*
X145574922Y-98348995D01*
X145722756Y-98269977D01*
X145722759Y-98269976D01*
X145722761Y-98269975D01*
X145883175Y-98221314D01*
X145883176Y-98221314D01*
X145883179Y-98221313D01*
X146008196Y-98209000D01*
X146091804Y-98209000D01*
X146216821Y-98221313D01*
X146216821Y-98221313D01*
G37*
G36*
X130976821Y-98221313D02*
X130976824Y-98221314D01*
X130976825Y-98221314D01*
X131137239Y-98269975D01*
X131137241Y-98269976D01*
X131137244Y-98269977D01*
X131285078Y-98348995D01*
X131414659Y-98455341D01*
X131521005Y-98584922D01*
X131600023Y-98732756D01*
X131600024Y-98732759D01*
X131600025Y-98732761D01*
X131647682Y-98889866D01*
X131648687Y-98893179D01*
X131665117Y-99060000D01*
X131648687Y-99226821D01*
X131648686Y-99226824D01*
X131648686Y-99226825D01*
X131625209Y-99304220D01*
X131600023Y-99387244D01*
X131521005Y-99535078D01*
X131414659Y-99664659D01*
X131285078Y-99771005D01*
X131137244Y-99850023D01*
X131137241Y-99850024D01*
X131137239Y-99850025D01*
X130976825Y-99898686D01*
X130976824Y-99898686D01*
X130976821Y-99898687D01*
X130851804Y-99911000D01*
X130768196Y-99911000D01*
X130643179Y-99898687D01*
X130643176Y-99898686D01*
X130643175Y-99898686D01*
X130482761Y-99850025D01*
X130482759Y-99850024D01*
X130482756Y-99850023D01*
X130334922Y-99771005D01*
X130205341Y-99664659D01*
X130098995Y-99535078D01*
X130019977Y-99387244D01*
X129994792Y-99304220D01*
X129971314Y-99226825D01*
X129971314Y-99226824D01*
X129971313Y-99226821D01*
X129954883Y-99060000D01*
X129971313Y-98893179D01*
X129972318Y-98889866D01*
X130019975Y-98732761D01*
X130019976Y-98732759D01*
X130019977Y-98732756D01*
X130098995Y-98584922D01*
X130205341Y-98455341D01*
X130334922Y-98348995D01*
X130482756Y-98269977D01*
X130482759Y-98269976D01*
X130482761Y-98269975D01*
X130643175Y-98221314D01*
X130643176Y-98221314D01*
X130643179Y-98221313D01*
X130768196Y-98209000D01*
X130851804Y-98209000D01*
X130976821Y-98221313D01*
X130976821Y-98221313D01*
G37*
G36*
X125896821Y-98221313D02*
X125896824Y-98221314D01*
X125896825Y-98221314D01*
X126057239Y-98269975D01*
X126057241Y-98269976D01*
X126057244Y-98269977D01*
X126205078Y-98348995D01*
X126334659Y-98455341D01*
X126441005Y-98584922D01*
X126520023Y-98732756D01*
X126520024Y-98732759D01*
X126520025Y-98732761D01*
X126567682Y-98889866D01*
X126568687Y-98893179D01*
X126585117Y-99060000D01*
X126568687Y-99226821D01*
X126568686Y-99226824D01*
X126568686Y-99226825D01*
X126545209Y-99304220D01*
X126520023Y-99387244D01*
X126441005Y-99535078D01*
X126334659Y-99664659D01*
X126205078Y-99771005D01*
X126057244Y-99850023D01*
X126057241Y-99850024D01*
X126057239Y-99850025D01*
X125896825Y-99898686D01*
X125896824Y-99898686D01*
X125896821Y-99898687D01*
X125771804Y-99911000D01*
X125688196Y-99911000D01*
X125563179Y-99898687D01*
X125563176Y-99898686D01*
X125563175Y-99898686D01*
X125402761Y-99850025D01*
X125402759Y-99850024D01*
X125402756Y-99850023D01*
X125254922Y-99771005D01*
X125125341Y-99664659D01*
X125018995Y-99535078D01*
X124939977Y-99387244D01*
X124914792Y-99304220D01*
X124891314Y-99226825D01*
X124891314Y-99226824D01*
X124891313Y-99226821D01*
X124874883Y-99060000D01*
X124891313Y-98893179D01*
X124892318Y-98889866D01*
X124939975Y-98732761D01*
X124939976Y-98732759D01*
X124939977Y-98732756D01*
X125018995Y-98584922D01*
X125125341Y-98455341D01*
X125254922Y-98348995D01*
X125402756Y-98269977D01*
X125402759Y-98269976D01*
X125402761Y-98269975D01*
X125563175Y-98221314D01*
X125563176Y-98221314D01*
X125563179Y-98221313D01*
X125688196Y-98209000D01*
X125771804Y-98209000D01*
X125896821Y-98221313D01*
X125896821Y-98221313D01*
G37*
G36*
X124041000Y-99911000D02*
X122339000Y-99911000D01*
X122339000Y-98209000D01*
X124041000Y-98209000D01*
X124041000Y-99911000D01*
X124041000Y-99911000D01*
G37*
G36*
X151296821Y-98221313D02*
X151296824Y-98221314D01*
X151296825Y-98221314D01*
X151457239Y-98269975D01*
X151457241Y-98269976D01*
X151457244Y-98269977D01*
X151605078Y-98348995D01*
X151734659Y-98455341D01*
X151841005Y-98584922D01*
X151920023Y-98732756D01*
X151920024Y-98732759D01*
X151920025Y-98732761D01*
X151967682Y-98889866D01*
X151968687Y-98893179D01*
X151985117Y-99060000D01*
X151968687Y-99226821D01*
X151968686Y-99226824D01*
X151968686Y-99226825D01*
X151945209Y-99304220D01*
X151920023Y-99387244D01*
X151841005Y-99535078D01*
X151734659Y-99664659D01*
X151605078Y-99771005D01*
X151457244Y-99850023D01*
X151457241Y-99850024D01*
X151457239Y-99850025D01*
X151296825Y-99898686D01*
X151296824Y-99898686D01*
X151296821Y-99898687D01*
X151171804Y-99911000D01*
X151088196Y-99911000D01*
X150963179Y-99898687D01*
X150963176Y-99898686D01*
X150963175Y-99898686D01*
X150802761Y-99850025D01*
X150802759Y-99850024D01*
X150802756Y-99850023D01*
X150654922Y-99771005D01*
X150525341Y-99664659D01*
X150418995Y-99535078D01*
X150339977Y-99387244D01*
X150314792Y-99304220D01*
X150291314Y-99226825D01*
X150291314Y-99226824D01*
X150291313Y-99226821D01*
X150274883Y-99060000D01*
X150291313Y-98893179D01*
X150292318Y-98889866D01*
X150339975Y-98732761D01*
X150339976Y-98732759D01*
X150339977Y-98732756D01*
X150418995Y-98584922D01*
X150525341Y-98455341D01*
X150654922Y-98348995D01*
X150802756Y-98269977D01*
X150802759Y-98269976D01*
X150802761Y-98269975D01*
X150963175Y-98221314D01*
X150963176Y-98221314D01*
X150963179Y-98221313D01*
X151088196Y-98209000D01*
X151171804Y-98209000D01*
X151296821Y-98221313D01*
X151296821Y-98221313D01*
G37*
G36*
X148756821Y-98221313D02*
X148756824Y-98221314D01*
X148756825Y-98221314D01*
X148917239Y-98269975D01*
X148917241Y-98269976D01*
X148917244Y-98269977D01*
X149065078Y-98348995D01*
X149194659Y-98455341D01*
X149301005Y-98584922D01*
X149380023Y-98732756D01*
X149380024Y-98732759D01*
X149380025Y-98732761D01*
X149427682Y-98889866D01*
X149428687Y-98893179D01*
X149445117Y-99060000D01*
X149428687Y-99226821D01*
X149428686Y-99226824D01*
X149428686Y-99226825D01*
X149405209Y-99304220D01*
X149380023Y-99387244D01*
X149301005Y-99535078D01*
X149194659Y-99664659D01*
X149065078Y-99771005D01*
X148917244Y-99850023D01*
X148917241Y-99850024D01*
X148917239Y-99850025D01*
X148756825Y-99898686D01*
X148756824Y-99898686D01*
X148756821Y-99898687D01*
X148631804Y-99911000D01*
X148548196Y-99911000D01*
X148423179Y-99898687D01*
X148423176Y-99898686D01*
X148423175Y-99898686D01*
X148262761Y-99850025D01*
X148262759Y-99850024D01*
X148262756Y-99850023D01*
X148114922Y-99771005D01*
X147985341Y-99664659D01*
X147878995Y-99535078D01*
X147799977Y-99387244D01*
X147774792Y-99304220D01*
X147751314Y-99226825D01*
X147751314Y-99226824D01*
X147751313Y-99226821D01*
X147734883Y-99060000D01*
X147751313Y-98893179D01*
X147752318Y-98889866D01*
X147799975Y-98732761D01*
X147799976Y-98732759D01*
X147799977Y-98732756D01*
X147878995Y-98584922D01*
X147985341Y-98455341D01*
X148114922Y-98348995D01*
X148262756Y-98269977D01*
X148262759Y-98269976D01*
X148262761Y-98269975D01*
X148423175Y-98221314D01*
X148423176Y-98221314D01*
X148423179Y-98221313D01*
X148548196Y-98209000D01*
X148631804Y-98209000D01*
X148756821Y-98221313D01*
X148756821Y-98221313D01*
G37*
G36*
X133516821Y-98221313D02*
X133516824Y-98221314D01*
X133516825Y-98221314D01*
X133677239Y-98269975D01*
X133677241Y-98269976D01*
X133677244Y-98269977D01*
X133825078Y-98348995D01*
X133954659Y-98455341D01*
X134061005Y-98584922D01*
X134140023Y-98732756D01*
X134140024Y-98732759D01*
X134140025Y-98732761D01*
X134187682Y-98889866D01*
X134188687Y-98893179D01*
X134205117Y-99060000D01*
X134188687Y-99226821D01*
X134188686Y-99226824D01*
X134188686Y-99226825D01*
X134165209Y-99304220D01*
X134140023Y-99387244D01*
X134061005Y-99535078D01*
X133954659Y-99664659D01*
X133825078Y-99771005D01*
X133677244Y-99850023D01*
X133677241Y-99850024D01*
X133677239Y-99850025D01*
X133516825Y-99898686D01*
X133516824Y-99898686D01*
X133516821Y-99898687D01*
X133391804Y-99911000D01*
X133308196Y-99911000D01*
X133183179Y-99898687D01*
X133183176Y-99898686D01*
X133183175Y-99898686D01*
X133022761Y-99850025D01*
X133022759Y-99850024D01*
X133022756Y-99850023D01*
X132874922Y-99771005D01*
X132745341Y-99664659D01*
X132638995Y-99535078D01*
X132559977Y-99387244D01*
X132534792Y-99304220D01*
X132511314Y-99226825D01*
X132511314Y-99226824D01*
X132511313Y-99226821D01*
X132494883Y-99060000D01*
X132511313Y-98893179D01*
X132512318Y-98889866D01*
X132559975Y-98732761D01*
X132559976Y-98732759D01*
X132559977Y-98732756D01*
X132638995Y-98584922D01*
X132745341Y-98455341D01*
X132874922Y-98348995D01*
X133022756Y-98269977D01*
X133022759Y-98269976D01*
X133022761Y-98269975D01*
X133183175Y-98221314D01*
X133183176Y-98221314D01*
X133183179Y-98221313D01*
X133308196Y-98209000D01*
X133391804Y-98209000D01*
X133516821Y-98221313D01*
X133516821Y-98221313D01*
G37*
G36*
X128436821Y-98221313D02*
X128436824Y-98221314D01*
X128436825Y-98221314D01*
X128597239Y-98269975D01*
X128597241Y-98269976D01*
X128597244Y-98269977D01*
X128745078Y-98348995D01*
X128874659Y-98455341D01*
X128981005Y-98584922D01*
X129060023Y-98732756D01*
X129060024Y-98732759D01*
X129060025Y-98732761D01*
X129107682Y-98889866D01*
X129108687Y-98893179D01*
X129125117Y-99060000D01*
X129108687Y-99226821D01*
X129108686Y-99226824D01*
X129108686Y-99226825D01*
X129085209Y-99304220D01*
X129060023Y-99387244D01*
X128981005Y-99535078D01*
X128874659Y-99664659D01*
X128745078Y-99771005D01*
X128597244Y-99850023D01*
X128597241Y-99850024D01*
X128597239Y-99850025D01*
X128436825Y-99898686D01*
X128436824Y-99898686D01*
X128436821Y-99898687D01*
X128311804Y-99911000D01*
X128228196Y-99911000D01*
X128103179Y-99898687D01*
X128103176Y-99898686D01*
X128103175Y-99898686D01*
X127942761Y-99850025D01*
X127942759Y-99850024D01*
X127942756Y-99850023D01*
X127794922Y-99771005D01*
X127665341Y-99664659D01*
X127558995Y-99535078D01*
X127479977Y-99387244D01*
X127454792Y-99304220D01*
X127431314Y-99226825D01*
X127431314Y-99226824D01*
X127431313Y-99226821D01*
X127414883Y-99060000D01*
X127431313Y-98893179D01*
X127432318Y-98889866D01*
X127479975Y-98732761D01*
X127479976Y-98732759D01*
X127479977Y-98732756D01*
X127558995Y-98584922D01*
X127665341Y-98455341D01*
X127794922Y-98348995D01*
X127942756Y-98269977D01*
X127942759Y-98269976D01*
X127942761Y-98269975D01*
X128103175Y-98221314D01*
X128103176Y-98221314D01*
X128103179Y-98221313D01*
X128228196Y-98209000D01*
X128311804Y-98209000D01*
X128436821Y-98221313D01*
X128436821Y-98221313D01*
G37*
G36*
X94869941Y-93586248D02*
X94869943Y-93586249D01*
X94869944Y-93586249D01*
X95425190Y-93816239D01*
X95425191Y-93816240D01*
X95924902Y-94150136D01*
X96349864Y-94575098D01*
X96349866Y-94575101D01*
X96683761Y-95074810D01*
X96903599Y-95605547D01*
X96913752Y-95630059D01*
X97031000Y-96219501D01*
X97031000Y-96820499D01*
X96923136Y-97362766D01*
X96913751Y-97409944D01*
X96683761Y-97965190D01*
X96683760Y-97965191D01*
X96349864Y-98464902D01*
X95924902Y-98889864D01*
X95924899Y-98889866D01*
X95425190Y-99223761D01*
X94869944Y-99453751D01*
X94869943Y-99453751D01*
X94869941Y-99453752D01*
X94280499Y-99571000D01*
X93679501Y-99571000D01*
X93090059Y-99453752D01*
X93090057Y-99453751D01*
X93090056Y-99453751D01*
X92534810Y-99223761D01*
X92035101Y-98889866D01*
X92035098Y-98889864D01*
X91610136Y-98464902D01*
X91276240Y-97965191D01*
X91276239Y-97965190D01*
X91046249Y-97409944D01*
X91036865Y-97362766D01*
X90929000Y-96820499D01*
X90929000Y-96219501D01*
X91046248Y-95630059D01*
X91056401Y-95605547D01*
X91276239Y-95074810D01*
X91610134Y-94575101D01*
X91610136Y-94575098D01*
X92035098Y-94150136D01*
X92534809Y-93816240D01*
X92534810Y-93816239D01*
X93090056Y-93586249D01*
X93090057Y-93586249D01*
X93090059Y-93586248D01*
X93679501Y-93469000D01*
X94280499Y-93469000D01*
X94869941Y-93586248D01*
X94869941Y-93586248D01*
G37*
G36*
X160395256Y-94911298D02*
X160501579Y-94932447D01*
X160802042Y-95056903D01*
X161068852Y-95235180D01*
X161072454Y-95237587D01*
X161302413Y-95467546D01*
X161302415Y-95467549D01*
X161483097Y-95737958D01*
X161607553Y-96038421D01*
X161613742Y-96069534D01*
X161671000Y-96357389D01*
X161671000Y-96682611D01*
X161643572Y-96820499D01*
X161607553Y-97001579D01*
X161483097Y-97302042D01*
X161304820Y-97568852D01*
X161302413Y-97572454D01*
X161072454Y-97802413D01*
X161072451Y-97802415D01*
X160802042Y-97983097D01*
X160501579Y-98107553D01*
X160395256Y-98128702D01*
X160182611Y-98171000D01*
X159857389Y-98171000D01*
X159644744Y-98128702D01*
X159538421Y-98107553D01*
X159237958Y-97983097D01*
X158967549Y-97802415D01*
X158967546Y-97802413D01*
X158737587Y-97572454D01*
X158735180Y-97568852D01*
X158556903Y-97302042D01*
X158432447Y-97001579D01*
X158396428Y-96820499D01*
X158369000Y-96682611D01*
X158369000Y-96357389D01*
X158426258Y-96069534D01*
X158432447Y-96038421D01*
X158556903Y-95737958D01*
X158737585Y-95467549D01*
X158737587Y-95467546D01*
X158967546Y-95237587D01*
X158971148Y-95235180D01*
X159237958Y-95056903D01*
X159538421Y-94932447D01*
X159644744Y-94911298D01*
X159857389Y-94869000D01*
X160182611Y-94869000D01*
X160395256Y-94911298D01*
X160395256Y-94911298D01*
G37*
G36*
X118895396Y-95605546D02*
X119068466Y-95677234D01*
X119224230Y-95781312D01*
X119356688Y-95913770D01*
X119460766Y-96069534D01*
X119532454Y-96242604D01*
X119569000Y-96426333D01*
X119569000Y-96613667D01*
X119532454Y-96797396D01*
X119460766Y-96970466D01*
X119356688Y-97126230D01*
X119224230Y-97258688D01*
X119068466Y-97362766D01*
X118895396Y-97434454D01*
X118711667Y-97471000D01*
X118524333Y-97471000D01*
X118340604Y-97434454D01*
X118167534Y-97362766D01*
X118011770Y-97258688D01*
X117879312Y-97126230D01*
X117775234Y-96970466D01*
X117703546Y-96797396D01*
X117667000Y-96613667D01*
X117667000Y-96426333D01*
X117703546Y-96242604D01*
X117775234Y-96069534D01*
X117879312Y-95913770D01*
X118011770Y-95781312D01*
X118167534Y-95677234D01*
X118340604Y-95605546D01*
X118524333Y-95569000D01*
X118711667Y-95569000D01*
X118895396Y-95605546D01*
X118895396Y-95605546D01*
G37*
G36*
X116355396Y-90525546D02*
X116528466Y-90597234D01*
X116684230Y-90701312D01*
X116816688Y-90833770D01*
X116920766Y-90989534D01*
X116992454Y-91162604D01*
X117029000Y-91346333D01*
X117029000Y-91533667D01*
X116992454Y-91717396D01*
X116920766Y-91890466D01*
X116816688Y-92046230D01*
X116684230Y-92178688D01*
X116528466Y-92282766D01*
X116355396Y-92354454D01*
X116171667Y-92391000D01*
X115984333Y-92391000D01*
X115800604Y-92354454D01*
X115627534Y-92282766D01*
X115471770Y-92178688D01*
X115339312Y-92046230D01*
X115235234Y-91890466D01*
X115163546Y-91717396D01*
X115127000Y-91533667D01*
X115127000Y-91346333D01*
X115163546Y-91162604D01*
X115235234Y-90989534D01*
X115339312Y-90833770D01*
X115471770Y-90701312D01*
X115627534Y-90597234D01*
X115800604Y-90525546D01*
X115984333Y-90489000D01*
X116171667Y-90489000D01*
X116355396Y-90525546D01*
X116355396Y-90525546D01*
G37*
G36*
X111033000Y-88173000D02*
X108931000Y-88173000D01*
X108931000Y-86071000D01*
X111033000Y-86071000D01*
X111033000Y-88173000D01*
X111033000Y-88173000D01*
G37*
G36*
X107748565Y-86111389D02*
X107939834Y-86190615D01*
X108111976Y-86305637D01*
X108258363Y-86452024D01*
X108373385Y-86624166D01*
X108452611Y-86815435D01*
X108493000Y-87018484D01*
X108493000Y-87225516D01*
X108452611Y-87428565D01*
X108373385Y-87619834D01*
X108258363Y-87791976D01*
X108111976Y-87938363D01*
X107939834Y-88053385D01*
X107748565Y-88132611D01*
X107545516Y-88173000D01*
X107338484Y-88173000D01*
X107135435Y-88132611D01*
X106944166Y-88053385D01*
X106772024Y-87938363D01*
X106625637Y-87791976D01*
X106510615Y-87619834D01*
X106431389Y-87428565D01*
X106391000Y-87225516D01*
X106391000Y-87018484D01*
X106431389Y-86815435D01*
X106510615Y-86624166D01*
X106625637Y-86452024D01*
X106772024Y-86305637D01*
X106944166Y-86190615D01*
X107135435Y-86111389D01*
X107338484Y-86071000D01*
X107545516Y-86071000D01*
X107748565Y-86111389D01*
X107748565Y-86111389D01*
G37*
G36*
X105208565Y-86111389D02*
X105399834Y-86190615D01*
X105571976Y-86305637D01*
X105718363Y-86452024D01*
X105833385Y-86624166D01*
X105912611Y-86815435D01*
X105953000Y-87018484D01*
X105953000Y-87225516D01*
X105912611Y-87428565D01*
X105833385Y-87619834D01*
X105718363Y-87791976D01*
X105571976Y-87938363D01*
X105399834Y-88053385D01*
X105208565Y-88132611D01*
X105005516Y-88173000D01*
X104798484Y-88173000D01*
X104595435Y-88132611D01*
X104404166Y-88053385D01*
X104232024Y-87938363D01*
X104085637Y-87791976D01*
X103970615Y-87619834D01*
X103891389Y-87428565D01*
X103851000Y-87225516D01*
X103851000Y-87018484D01*
X103891389Y-86815435D01*
X103970615Y-86624166D01*
X104085637Y-86452024D01*
X104232024Y-86305637D01*
X104404166Y-86190615D01*
X104595435Y-86111389D01*
X104798484Y-86071000D01*
X105005516Y-86071000D01*
X105208565Y-86111389D01*
X105208565Y-86111389D01*
G37*
G36*
X118895396Y-82905546D02*
X119068466Y-82977234D01*
X119224230Y-83081312D01*
X119356688Y-83213770D01*
X119460766Y-83369534D01*
X119532454Y-83542604D01*
X119569000Y-83726333D01*
X119569000Y-83913667D01*
X119532454Y-84097396D01*
X119460766Y-84270466D01*
X119356688Y-84426230D01*
X119224230Y-84558688D01*
X119068466Y-84662766D01*
X118895396Y-84734454D01*
X118711667Y-84771000D01*
X118524333Y-84771000D01*
X118340604Y-84734454D01*
X118167534Y-84662766D01*
X118011770Y-84558688D01*
X117879312Y-84426230D01*
X117775234Y-84270466D01*
X117703546Y-84097396D01*
X117667000Y-83913667D01*
X117667000Y-83726333D01*
X117703546Y-83542604D01*
X117775234Y-83369534D01*
X117879312Y-83213770D01*
X118011770Y-83081312D01*
X118167534Y-82977234D01*
X118340604Y-82905546D01*
X118524333Y-82869000D01*
X118711667Y-82869000D01*
X118895396Y-82905546D01*
X118895396Y-82905546D01*
G37*
G36*
X125896821Y-82981313D02*
X125896824Y-82981314D01*
X125896825Y-82981314D01*
X126057239Y-83029975D01*
X126057241Y-83029976D01*
X126057244Y-83029977D01*
X126205078Y-83108995D01*
X126334659Y-83215341D01*
X126441005Y-83344922D01*
X126520023Y-83492756D01*
X126520024Y-83492759D01*
X126520025Y-83492761D01*
X126568026Y-83651000D01*
X126568687Y-83653179D01*
X126585117Y-83820000D01*
X126568687Y-83986821D01*
X126568686Y-83986824D01*
X126568686Y-83986825D01*
X126535145Y-84097396D01*
X126520023Y-84147244D01*
X126441005Y-84295078D01*
X126334659Y-84424659D01*
X126205078Y-84531005D01*
X126057244Y-84610023D01*
X126057241Y-84610024D01*
X126057239Y-84610025D01*
X125896825Y-84658686D01*
X125896824Y-84658686D01*
X125896821Y-84658687D01*
X125771804Y-84671000D01*
X125688196Y-84671000D01*
X125563179Y-84658687D01*
X125563176Y-84658686D01*
X125563175Y-84658686D01*
X125402761Y-84610025D01*
X125402759Y-84610024D01*
X125402756Y-84610023D01*
X125254922Y-84531005D01*
X125125341Y-84424659D01*
X125018995Y-84295078D01*
X124939977Y-84147244D01*
X124924856Y-84097396D01*
X124891314Y-83986825D01*
X124891314Y-83986824D01*
X124891313Y-83986821D01*
X124874883Y-83820000D01*
X124891313Y-83653179D01*
X124891974Y-83651000D01*
X124939975Y-83492761D01*
X124939976Y-83492759D01*
X124939977Y-83492756D01*
X125018995Y-83344922D01*
X125125341Y-83215341D01*
X125254922Y-83108995D01*
X125402756Y-83029977D01*
X125402759Y-83029976D01*
X125402761Y-83029975D01*
X125563175Y-82981314D01*
X125563176Y-82981314D01*
X125563179Y-82981313D01*
X125688196Y-82969000D01*
X125771804Y-82969000D01*
X125896821Y-82981313D01*
X125896821Y-82981313D01*
G37*
G36*
X151296821Y-82981313D02*
X151296824Y-82981314D01*
X151296825Y-82981314D01*
X151457239Y-83029975D01*
X151457241Y-83029976D01*
X151457244Y-83029977D01*
X151605078Y-83108995D01*
X151734659Y-83215341D01*
X151841005Y-83344922D01*
X151920023Y-83492756D01*
X151920024Y-83492759D01*
X151920025Y-83492761D01*
X151968026Y-83651000D01*
X151968687Y-83653179D01*
X151985117Y-83820000D01*
X151968687Y-83986821D01*
X151968686Y-83986824D01*
X151968686Y-83986825D01*
X151935145Y-84097396D01*
X151920023Y-84147244D01*
X151841005Y-84295078D01*
X151734659Y-84424659D01*
X151605078Y-84531005D01*
X151457244Y-84610023D01*
X151457241Y-84610024D01*
X151457239Y-84610025D01*
X151296825Y-84658686D01*
X151296824Y-84658686D01*
X151296821Y-84658687D01*
X151171804Y-84671000D01*
X151088196Y-84671000D01*
X150963179Y-84658687D01*
X150963176Y-84658686D01*
X150963175Y-84658686D01*
X150802761Y-84610025D01*
X150802759Y-84610024D01*
X150802756Y-84610023D01*
X150654922Y-84531005D01*
X150525341Y-84424659D01*
X150418995Y-84295078D01*
X150339977Y-84147244D01*
X150324856Y-84097396D01*
X150291314Y-83986825D01*
X150291314Y-83986824D01*
X150291313Y-83986821D01*
X150274883Y-83820000D01*
X150291313Y-83653179D01*
X150291974Y-83651000D01*
X150339975Y-83492761D01*
X150339976Y-83492759D01*
X150339977Y-83492756D01*
X150418995Y-83344922D01*
X150525341Y-83215341D01*
X150654922Y-83108995D01*
X150802756Y-83029977D01*
X150802759Y-83029976D01*
X150802761Y-83029975D01*
X150963175Y-82981314D01*
X150963176Y-82981314D01*
X150963179Y-82981313D01*
X151088196Y-82969000D01*
X151171804Y-82969000D01*
X151296821Y-82981313D01*
X151296821Y-82981313D01*
G37*
G36*
X128436821Y-82981313D02*
X128436824Y-82981314D01*
X128436825Y-82981314D01*
X128597239Y-83029975D01*
X128597241Y-83029976D01*
X128597244Y-83029977D01*
X128745078Y-83108995D01*
X128874659Y-83215341D01*
X128981005Y-83344922D01*
X129060023Y-83492756D01*
X129060024Y-83492759D01*
X129060025Y-83492761D01*
X129108026Y-83651000D01*
X129108687Y-83653179D01*
X129125117Y-83820000D01*
X129108687Y-83986821D01*
X129108686Y-83986824D01*
X129108686Y-83986825D01*
X129075145Y-84097396D01*
X129060023Y-84147244D01*
X128981005Y-84295078D01*
X128874659Y-84424659D01*
X128745078Y-84531005D01*
X128597244Y-84610023D01*
X128597241Y-84610024D01*
X128597239Y-84610025D01*
X128436825Y-84658686D01*
X128436824Y-84658686D01*
X128436821Y-84658687D01*
X128311804Y-84671000D01*
X128228196Y-84671000D01*
X128103179Y-84658687D01*
X128103176Y-84658686D01*
X128103175Y-84658686D01*
X127942761Y-84610025D01*
X127942759Y-84610024D01*
X127942756Y-84610023D01*
X127794922Y-84531005D01*
X127665341Y-84424659D01*
X127558995Y-84295078D01*
X127479977Y-84147244D01*
X127464856Y-84097396D01*
X127431314Y-83986825D01*
X127431314Y-83986824D01*
X127431313Y-83986821D01*
X127414883Y-83820000D01*
X127431313Y-83653179D01*
X127431974Y-83651000D01*
X127479975Y-83492761D01*
X127479976Y-83492759D01*
X127479977Y-83492756D01*
X127558995Y-83344922D01*
X127665341Y-83215341D01*
X127794922Y-83108995D01*
X127942756Y-83029977D01*
X127942759Y-83029976D01*
X127942761Y-83029975D01*
X128103175Y-82981314D01*
X128103176Y-82981314D01*
X128103179Y-82981313D01*
X128228196Y-82969000D01*
X128311804Y-82969000D01*
X128436821Y-82981313D01*
X128436821Y-82981313D01*
G37*
G36*
X141136821Y-82981313D02*
X141136824Y-82981314D01*
X141136825Y-82981314D01*
X141297239Y-83029975D01*
X141297241Y-83029976D01*
X141297244Y-83029977D01*
X141445078Y-83108995D01*
X141574659Y-83215341D01*
X141681005Y-83344922D01*
X141760023Y-83492756D01*
X141760024Y-83492759D01*
X141760025Y-83492761D01*
X141808026Y-83651000D01*
X141808687Y-83653179D01*
X141825117Y-83820000D01*
X141808687Y-83986821D01*
X141808686Y-83986824D01*
X141808686Y-83986825D01*
X141775145Y-84097396D01*
X141760023Y-84147244D01*
X141681005Y-84295078D01*
X141574659Y-84424659D01*
X141445078Y-84531005D01*
X141297244Y-84610023D01*
X141297241Y-84610024D01*
X141297239Y-84610025D01*
X141136825Y-84658686D01*
X141136824Y-84658686D01*
X141136821Y-84658687D01*
X141011804Y-84671000D01*
X140928196Y-84671000D01*
X140803179Y-84658687D01*
X140803176Y-84658686D01*
X140803175Y-84658686D01*
X140642761Y-84610025D01*
X140642759Y-84610024D01*
X140642756Y-84610023D01*
X140494922Y-84531005D01*
X140365341Y-84424659D01*
X140258995Y-84295078D01*
X140179977Y-84147244D01*
X140164856Y-84097396D01*
X140131314Y-83986825D01*
X140131314Y-83986824D01*
X140131313Y-83986821D01*
X140114883Y-83820000D01*
X140131313Y-83653179D01*
X140131974Y-83651000D01*
X140179975Y-83492761D01*
X140179976Y-83492759D01*
X140179977Y-83492756D01*
X140258995Y-83344922D01*
X140365341Y-83215341D01*
X140494922Y-83108995D01*
X140642756Y-83029977D01*
X140642759Y-83029976D01*
X140642761Y-83029975D01*
X140803175Y-82981314D01*
X140803176Y-82981314D01*
X140803179Y-82981313D01*
X140928196Y-82969000D01*
X141011804Y-82969000D01*
X141136821Y-82981313D01*
X141136821Y-82981313D01*
G37*
G36*
X148756821Y-82981313D02*
X148756824Y-82981314D01*
X148756825Y-82981314D01*
X148917239Y-83029975D01*
X148917241Y-83029976D01*
X148917244Y-83029977D01*
X149065078Y-83108995D01*
X149194659Y-83215341D01*
X149301005Y-83344922D01*
X149380023Y-83492756D01*
X149380024Y-83492759D01*
X149380025Y-83492761D01*
X149428026Y-83651000D01*
X149428687Y-83653179D01*
X149445117Y-83820000D01*
X149428687Y-83986821D01*
X149428686Y-83986824D01*
X149428686Y-83986825D01*
X149395145Y-84097396D01*
X149380023Y-84147244D01*
X149301005Y-84295078D01*
X149194659Y-84424659D01*
X149065078Y-84531005D01*
X148917244Y-84610023D01*
X148917241Y-84610024D01*
X148917239Y-84610025D01*
X148756825Y-84658686D01*
X148756824Y-84658686D01*
X148756821Y-84658687D01*
X148631804Y-84671000D01*
X148548196Y-84671000D01*
X148423179Y-84658687D01*
X148423176Y-84658686D01*
X148423175Y-84658686D01*
X148262761Y-84610025D01*
X148262759Y-84610024D01*
X148262756Y-84610023D01*
X148114922Y-84531005D01*
X147985341Y-84424659D01*
X147878995Y-84295078D01*
X147799977Y-84147244D01*
X147784856Y-84097396D01*
X147751314Y-83986825D01*
X147751314Y-83986824D01*
X147751313Y-83986821D01*
X147734883Y-83820000D01*
X147751313Y-83653179D01*
X147751974Y-83651000D01*
X147799975Y-83492761D01*
X147799976Y-83492759D01*
X147799977Y-83492756D01*
X147878995Y-83344922D01*
X147985341Y-83215341D01*
X148114922Y-83108995D01*
X148262756Y-83029977D01*
X148262759Y-83029976D01*
X148262761Y-83029975D01*
X148423175Y-82981314D01*
X148423176Y-82981314D01*
X148423179Y-82981313D01*
X148548196Y-82969000D01*
X148631804Y-82969000D01*
X148756821Y-82981313D01*
X148756821Y-82981313D01*
G37*
G36*
X130976821Y-82981313D02*
X130976824Y-82981314D01*
X130976825Y-82981314D01*
X131137239Y-83029975D01*
X131137241Y-83029976D01*
X131137244Y-83029977D01*
X131285078Y-83108995D01*
X131414659Y-83215341D01*
X131521005Y-83344922D01*
X131600023Y-83492756D01*
X131600024Y-83492759D01*
X131600025Y-83492761D01*
X131648026Y-83651000D01*
X131648687Y-83653179D01*
X131665117Y-83820000D01*
X131648687Y-83986821D01*
X131648686Y-83986824D01*
X131648686Y-83986825D01*
X131615145Y-84097396D01*
X131600023Y-84147244D01*
X131521005Y-84295078D01*
X131414659Y-84424659D01*
X131285078Y-84531005D01*
X131137244Y-84610023D01*
X131137241Y-84610024D01*
X131137239Y-84610025D01*
X130976825Y-84658686D01*
X130976824Y-84658686D01*
X130976821Y-84658687D01*
X130851804Y-84671000D01*
X130768196Y-84671000D01*
X130643179Y-84658687D01*
X130643176Y-84658686D01*
X130643175Y-84658686D01*
X130482761Y-84610025D01*
X130482759Y-84610024D01*
X130482756Y-84610023D01*
X130334922Y-84531005D01*
X130205341Y-84424659D01*
X130098995Y-84295078D01*
X130019977Y-84147244D01*
X130004856Y-84097396D01*
X129971314Y-83986825D01*
X129971314Y-83986824D01*
X129971313Y-83986821D01*
X129954883Y-83820000D01*
X129971313Y-83653179D01*
X129971974Y-83651000D01*
X130019975Y-83492761D01*
X130019976Y-83492759D01*
X130019977Y-83492756D01*
X130098995Y-83344922D01*
X130205341Y-83215341D01*
X130334922Y-83108995D01*
X130482756Y-83029977D01*
X130482759Y-83029976D01*
X130482761Y-83029975D01*
X130643175Y-82981314D01*
X130643176Y-82981314D01*
X130643179Y-82981313D01*
X130768196Y-82969000D01*
X130851804Y-82969000D01*
X130976821Y-82981313D01*
X130976821Y-82981313D01*
G37*
G36*
X133516821Y-82981313D02*
X133516824Y-82981314D01*
X133516825Y-82981314D01*
X133677239Y-83029975D01*
X133677241Y-83029976D01*
X133677244Y-83029977D01*
X133825078Y-83108995D01*
X133954659Y-83215341D01*
X134061005Y-83344922D01*
X134140023Y-83492756D01*
X134140024Y-83492759D01*
X134140025Y-83492761D01*
X134188026Y-83651000D01*
X134188687Y-83653179D01*
X134205117Y-83820000D01*
X134188687Y-83986821D01*
X134188686Y-83986824D01*
X134188686Y-83986825D01*
X134155145Y-84097396D01*
X134140023Y-84147244D01*
X134061005Y-84295078D01*
X133954659Y-84424659D01*
X133825078Y-84531005D01*
X133677244Y-84610023D01*
X133677241Y-84610024D01*
X133677239Y-84610025D01*
X133516825Y-84658686D01*
X133516824Y-84658686D01*
X133516821Y-84658687D01*
X133391804Y-84671000D01*
X133308196Y-84671000D01*
X133183179Y-84658687D01*
X133183176Y-84658686D01*
X133183175Y-84658686D01*
X133022761Y-84610025D01*
X133022759Y-84610024D01*
X133022756Y-84610023D01*
X132874922Y-84531005D01*
X132745341Y-84424659D01*
X132638995Y-84295078D01*
X132559977Y-84147244D01*
X132544856Y-84097396D01*
X132511314Y-83986825D01*
X132511314Y-83986824D01*
X132511313Y-83986821D01*
X132494883Y-83820000D01*
X132511313Y-83653179D01*
X132511974Y-83651000D01*
X132559975Y-83492761D01*
X132559976Y-83492759D01*
X132559977Y-83492756D01*
X132638995Y-83344922D01*
X132745341Y-83215341D01*
X132874922Y-83108995D01*
X133022756Y-83029977D01*
X133022759Y-83029976D01*
X133022761Y-83029975D01*
X133183175Y-82981314D01*
X133183176Y-82981314D01*
X133183179Y-82981313D01*
X133308196Y-82969000D01*
X133391804Y-82969000D01*
X133516821Y-82981313D01*
X133516821Y-82981313D01*
G37*
G36*
X138596821Y-82981313D02*
X138596824Y-82981314D01*
X138596825Y-82981314D01*
X138757239Y-83029975D01*
X138757241Y-83029976D01*
X138757244Y-83029977D01*
X138905078Y-83108995D01*
X139034659Y-83215341D01*
X139141005Y-83344922D01*
X139220023Y-83492756D01*
X139220024Y-83492759D01*
X139220025Y-83492761D01*
X139268026Y-83651000D01*
X139268687Y-83653179D01*
X139285117Y-83820000D01*
X139268687Y-83986821D01*
X139268686Y-83986824D01*
X139268686Y-83986825D01*
X139235145Y-84097396D01*
X139220023Y-84147244D01*
X139141005Y-84295078D01*
X139034659Y-84424659D01*
X138905078Y-84531005D01*
X138757244Y-84610023D01*
X138757241Y-84610024D01*
X138757239Y-84610025D01*
X138596825Y-84658686D01*
X138596824Y-84658686D01*
X138596821Y-84658687D01*
X138471804Y-84671000D01*
X138388196Y-84671000D01*
X138263179Y-84658687D01*
X138263176Y-84658686D01*
X138263175Y-84658686D01*
X138102761Y-84610025D01*
X138102759Y-84610024D01*
X138102756Y-84610023D01*
X137954922Y-84531005D01*
X137825341Y-84424659D01*
X137718995Y-84295078D01*
X137639977Y-84147244D01*
X137624856Y-84097396D01*
X137591314Y-83986825D01*
X137591314Y-83986824D01*
X137591313Y-83986821D01*
X137574883Y-83820000D01*
X137591313Y-83653179D01*
X137591974Y-83651000D01*
X137639975Y-83492761D01*
X137639976Y-83492759D01*
X137639977Y-83492756D01*
X137718995Y-83344922D01*
X137825341Y-83215341D01*
X137954922Y-83108995D01*
X138102756Y-83029977D01*
X138102759Y-83029976D01*
X138102761Y-83029975D01*
X138263175Y-82981314D01*
X138263176Y-82981314D01*
X138263179Y-82981313D01*
X138388196Y-82969000D01*
X138471804Y-82969000D01*
X138596821Y-82981313D01*
X138596821Y-82981313D01*
G37*
G36*
X136056821Y-82981313D02*
X136056824Y-82981314D01*
X136056825Y-82981314D01*
X136217239Y-83029975D01*
X136217241Y-83029976D01*
X136217244Y-83029977D01*
X136365078Y-83108995D01*
X136494659Y-83215341D01*
X136601005Y-83344922D01*
X136680023Y-83492756D01*
X136680024Y-83492759D01*
X136680025Y-83492761D01*
X136728026Y-83651000D01*
X136728687Y-83653179D01*
X136745117Y-83820000D01*
X136728687Y-83986821D01*
X136728686Y-83986824D01*
X136728686Y-83986825D01*
X136695145Y-84097396D01*
X136680023Y-84147244D01*
X136601005Y-84295078D01*
X136494659Y-84424659D01*
X136365078Y-84531005D01*
X136217244Y-84610023D01*
X136217241Y-84610024D01*
X136217239Y-84610025D01*
X136056825Y-84658686D01*
X136056824Y-84658686D01*
X136056821Y-84658687D01*
X135931804Y-84671000D01*
X135848196Y-84671000D01*
X135723179Y-84658687D01*
X135723176Y-84658686D01*
X135723175Y-84658686D01*
X135562761Y-84610025D01*
X135562759Y-84610024D01*
X135562756Y-84610023D01*
X135414922Y-84531005D01*
X135285341Y-84424659D01*
X135178995Y-84295078D01*
X135099977Y-84147244D01*
X135084856Y-84097396D01*
X135051314Y-83986825D01*
X135051314Y-83986824D01*
X135051313Y-83986821D01*
X135034883Y-83820000D01*
X135051313Y-83653179D01*
X135051974Y-83651000D01*
X135099975Y-83492761D01*
X135099976Y-83492759D01*
X135099977Y-83492756D01*
X135178995Y-83344922D01*
X135285341Y-83215341D01*
X135414922Y-83108995D01*
X135562756Y-83029977D01*
X135562759Y-83029976D01*
X135562761Y-83029975D01*
X135723175Y-82981314D01*
X135723176Y-82981314D01*
X135723179Y-82981313D01*
X135848196Y-82969000D01*
X135931804Y-82969000D01*
X136056821Y-82981313D01*
X136056821Y-82981313D01*
G37*
G36*
X143676821Y-82981313D02*
X143676824Y-82981314D01*
X143676825Y-82981314D01*
X143837239Y-83029975D01*
X143837241Y-83029976D01*
X143837244Y-83029977D01*
X143985078Y-83108995D01*
X144114659Y-83215341D01*
X144221005Y-83344922D01*
X144300023Y-83492756D01*
X144300024Y-83492759D01*
X144300025Y-83492761D01*
X144348026Y-83651000D01*
X144348687Y-83653179D01*
X144365117Y-83820000D01*
X144348687Y-83986821D01*
X144348686Y-83986824D01*
X144348686Y-83986825D01*
X144315145Y-84097396D01*
X144300023Y-84147244D01*
X144221005Y-84295078D01*
X144114659Y-84424659D01*
X143985078Y-84531005D01*
X143837244Y-84610023D01*
X143837241Y-84610024D01*
X143837239Y-84610025D01*
X143676825Y-84658686D01*
X143676824Y-84658686D01*
X143676821Y-84658687D01*
X143551804Y-84671000D01*
X143468196Y-84671000D01*
X143343179Y-84658687D01*
X143343176Y-84658686D01*
X143343175Y-84658686D01*
X143182761Y-84610025D01*
X143182759Y-84610024D01*
X143182756Y-84610023D01*
X143034922Y-84531005D01*
X142905341Y-84424659D01*
X142798995Y-84295078D01*
X142719977Y-84147244D01*
X142704856Y-84097396D01*
X142671314Y-83986825D01*
X142671314Y-83986824D01*
X142671313Y-83986821D01*
X142654883Y-83820000D01*
X142671313Y-83653179D01*
X142671974Y-83651000D01*
X142719975Y-83492761D01*
X142719976Y-83492759D01*
X142719977Y-83492756D01*
X142798995Y-83344922D01*
X142905341Y-83215341D01*
X143034922Y-83108995D01*
X143182756Y-83029977D01*
X143182759Y-83029976D01*
X143182761Y-83029975D01*
X143343175Y-82981314D01*
X143343176Y-82981314D01*
X143343179Y-82981313D01*
X143468196Y-82969000D01*
X143551804Y-82969000D01*
X143676821Y-82981313D01*
X143676821Y-82981313D01*
G37*
G36*
X123356821Y-82981313D02*
X123356824Y-82981314D01*
X123356825Y-82981314D01*
X123517239Y-83029975D01*
X123517241Y-83029976D01*
X123517244Y-83029977D01*
X123665078Y-83108995D01*
X123794659Y-83215341D01*
X123901005Y-83344922D01*
X123980023Y-83492756D01*
X123980024Y-83492759D01*
X123980025Y-83492761D01*
X124028026Y-83651000D01*
X124028687Y-83653179D01*
X124045117Y-83820000D01*
X124028687Y-83986821D01*
X124028686Y-83986824D01*
X124028686Y-83986825D01*
X123995145Y-84097396D01*
X123980023Y-84147244D01*
X123901005Y-84295078D01*
X123794659Y-84424659D01*
X123665078Y-84531005D01*
X123517244Y-84610023D01*
X123517241Y-84610024D01*
X123517239Y-84610025D01*
X123356825Y-84658686D01*
X123356824Y-84658686D01*
X123356821Y-84658687D01*
X123231804Y-84671000D01*
X123148196Y-84671000D01*
X123023179Y-84658687D01*
X123023176Y-84658686D01*
X123023175Y-84658686D01*
X122862761Y-84610025D01*
X122862759Y-84610024D01*
X122862756Y-84610023D01*
X122714922Y-84531005D01*
X122585341Y-84424659D01*
X122478995Y-84295078D01*
X122399977Y-84147244D01*
X122384856Y-84097396D01*
X122351314Y-83986825D01*
X122351314Y-83986824D01*
X122351313Y-83986821D01*
X122334883Y-83820000D01*
X122351313Y-83653179D01*
X122351974Y-83651000D01*
X122399975Y-83492761D01*
X122399976Y-83492759D01*
X122399977Y-83492756D01*
X122478995Y-83344922D01*
X122585341Y-83215341D01*
X122714922Y-83108995D01*
X122862756Y-83029977D01*
X122862759Y-83029976D01*
X122862761Y-83029975D01*
X123023175Y-82981314D01*
X123023176Y-82981314D01*
X123023179Y-82981313D01*
X123148196Y-82969000D01*
X123231804Y-82969000D01*
X123356821Y-82981313D01*
X123356821Y-82981313D01*
G37*
G36*
X146216821Y-82981313D02*
X146216824Y-82981314D01*
X146216825Y-82981314D01*
X146377239Y-83029975D01*
X146377241Y-83029976D01*
X146377244Y-83029977D01*
X146525078Y-83108995D01*
X146654659Y-83215341D01*
X146761005Y-83344922D01*
X146840023Y-83492756D01*
X146840024Y-83492759D01*
X146840025Y-83492761D01*
X146888026Y-83651000D01*
X146888687Y-83653179D01*
X146905117Y-83820000D01*
X146888687Y-83986821D01*
X146888686Y-83986824D01*
X146888686Y-83986825D01*
X146855145Y-84097396D01*
X146840023Y-84147244D01*
X146761005Y-84295078D01*
X146654659Y-84424659D01*
X146525078Y-84531005D01*
X146377244Y-84610023D01*
X146377241Y-84610024D01*
X146377239Y-84610025D01*
X146216825Y-84658686D01*
X146216824Y-84658686D01*
X146216821Y-84658687D01*
X146091804Y-84671000D01*
X146008196Y-84671000D01*
X145883179Y-84658687D01*
X145883176Y-84658686D01*
X145883175Y-84658686D01*
X145722761Y-84610025D01*
X145722759Y-84610024D01*
X145722756Y-84610023D01*
X145574922Y-84531005D01*
X145445341Y-84424659D01*
X145338995Y-84295078D01*
X145259977Y-84147244D01*
X145244856Y-84097396D01*
X145211314Y-83986825D01*
X145211314Y-83986824D01*
X145211313Y-83986821D01*
X145194883Y-83820000D01*
X145211313Y-83653179D01*
X145211974Y-83651000D01*
X145259975Y-83492761D01*
X145259976Y-83492759D01*
X145259977Y-83492756D01*
X145338995Y-83344922D01*
X145445341Y-83215341D01*
X145574922Y-83108995D01*
X145722756Y-83029977D01*
X145722759Y-83029976D01*
X145722761Y-83029975D01*
X145883175Y-82981314D01*
X145883176Y-82981314D01*
X145883179Y-82981313D01*
X146008196Y-82969000D01*
X146091804Y-82969000D01*
X146216821Y-82981313D01*
X146216821Y-82981313D01*
G37*
G36*
X160359000Y-83651000D02*
X158157000Y-83651000D01*
X158157000Y-81449000D01*
X160359000Y-81449000D01*
X160359000Y-83651000D01*
X160359000Y-83651000D01*
G37*
G36*
X96524032Y-80032621D02*
X96553487Y-80041556D01*
X96580624Y-80056062D01*
X96604414Y-80075586D01*
X96623938Y-80099376D01*
X96638444Y-80126513D01*
X96647379Y-80155968D01*
X96651000Y-80192733D01*
X96651000Y-82667267D01*
X96647379Y-82704032D01*
X96638444Y-82733487D01*
X96623938Y-82760624D01*
X96604414Y-82784414D01*
X96580624Y-82803938D01*
X96553487Y-82818444D01*
X96524032Y-82827379D01*
X96487267Y-82831000D01*
X94012733Y-82831000D01*
X93975968Y-82827379D01*
X93946513Y-82818444D01*
X93919376Y-82803938D01*
X93895586Y-82784414D01*
X93876062Y-82760624D01*
X93861556Y-82733487D01*
X93852621Y-82704032D01*
X93849000Y-82667267D01*
X93849000Y-80192733D01*
X93852621Y-80155968D01*
X93861556Y-80126513D01*
X93876062Y-80099376D01*
X93895586Y-80075586D01*
X93919376Y-80056062D01*
X93946513Y-80041556D01*
X93975968Y-80032621D01*
X94012733Y-80029000D01*
X96487267Y-80029000D01*
X96524032Y-80032621D01*
X96524032Y-80032621D01*
G37*
G36*
X159472795Y-78930156D02*
X159579150Y-78951311D01*
X159649990Y-78980654D01*
X159779516Y-79034305D01*
X159959850Y-79154801D01*
X160113199Y-79308150D01*
X160233695Y-79488484D01*
X160287346Y-79618010D01*
X160316689Y-79688850D01*
X160359000Y-79901561D01*
X160359000Y-80118439D01*
X160325184Y-80288445D01*
X160316689Y-80331149D01*
X160233695Y-80531516D01*
X160113199Y-80711850D01*
X159959850Y-80865199D01*
X159779516Y-80985695D01*
X159649990Y-81039346D01*
X159579150Y-81068689D01*
X159472795Y-81089844D01*
X159366440Y-81111000D01*
X159149560Y-81111000D01*
X159043205Y-81089844D01*
X158936850Y-81068689D01*
X158866010Y-81039346D01*
X158736484Y-80985695D01*
X158556150Y-80865199D01*
X158402801Y-80711850D01*
X158282305Y-80531516D01*
X158199311Y-80331149D01*
X158190817Y-80288445D01*
X158157000Y-80118439D01*
X158157000Y-79901561D01*
X158199311Y-79688850D01*
X158228654Y-79618010D01*
X158282305Y-79488484D01*
X158402801Y-79308150D01*
X158556150Y-79154801D01*
X158736484Y-79034305D01*
X158866010Y-78980654D01*
X158936850Y-78951311D01*
X159043205Y-78930156D01*
X159149560Y-78909000D01*
X159366440Y-78909000D01*
X159472795Y-78930156D01*
X159472795Y-78930156D01*
G37*
G36*
X95568433Y-76104893D02*
X95658657Y-76122839D01*
X95764267Y-76166585D01*
X95913621Y-76228449D01*
X96143089Y-76381774D01*
X96338226Y-76576911D01*
X96491551Y-76806379D01*
X96597161Y-77061344D01*
X96651000Y-77332012D01*
X96651000Y-77607988D01*
X96597161Y-77878656D01*
X96491551Y-78133621D01*
X96338226Y-78363089D01*
X96143089Y-78558226D01*
X95913621Y-78711551D01*
X95764267Y-78773415D01*
X95658657Y-78817161D01*
X95568433Y-78835107D01*
X95387988Y-78871000D01*
X95112012Y-78871000D01*
X94931567Y-78835107D01*
X94841343Y-78817161D01*
X94735733Y-78773415D01*
X94586379Y-78711551D01*
X94356911Y-78558226D01*
X94161774Y-78363089D01*
X94008449Y-78133621D01*
X93902839Y-77878656D01*
X93849000Y-77607988D01*
X93849000Y-77332012D01*
X93902839Y-77061344D01*
X94008449Y-76806379D01*
X94161774Y-76576911D01*
X94356911Y-76381774D01*
X94586379Y-76228449D01*
X94735733Y-76166585D01*
X94841343Y-76122839D01*
X94931567Y-76104893D01*
X95112012Y-76069000D01*
X95387988Y-76069000D01*
X95568433Y-76104893D01*
X95568433Y-76104893D01*
G37*
G36*
X159430648Y-76381772D02*
X159579150Y-76411311D01*
X159649990Y-76440654D01*
X159779516Y-76494305D01*
X159779519Y-76494307D01*
X159903149Y-76576914D01*
X159959850Y-76614801D01*
X160113199Y-76768150D01*
X160113201Y-76768153D01*
X160113202Y-76768154D01*
X160138743Y-76806379D01*
X160233695Y-76948484D01*
X160280442Y-77061343D01*
X160316689Y-77148850D01*
X160337845Y-77255206D01*
X160359000Y-77361560D01*
X160359000Y-77578440D01*
X160316689Y-77791149D01*
X160233695Y-77991516D01*
X160233693Y-77991519D01*
X160138743Y-78133622D01*
X160113199Y-78171850D01*
X159959850Y-78325199D01*
X159959847Y-78325201D01*
X159959846Y-78325202D01*
X159903144Y-78363089D01*
X159779516Y-78445695D01*
X159649990Y-78499346D01*
X159579150Y-78528689D01*
X159472794Y-78549845D01*
X159366440Y-78571000D01*
X159149560Y-78571000D01*
X159043206Y-78549845D01*
X158936850Y-78528689D01*
X158866010Y-78499346D01*
X158736484Y-78445695D01*
X158612856Y-78363089D01*
X158556154Y-78325202D01*
X158556153Y-78325201D01*
X158556150Y-78325199D01*
X158402801Y-78171850D01*
X158377258Y-78133622D01*
X158282307Y-77991519D01*
X158282305Y-77991516D01*
X158199311Y-77791149D01*
X158157000Y-77578440D01*
X158157000Y-77361560D01*
X158178155Y-77255206D01*
X158199311Y-77148850D01*
X158235558Y-77061343D01*
X158282305Y-76948484D01*
X158377257Y-76806379D01*
X158402798Y-76768154D01*
X158402799Y-76768153D01*
X158402801Y-76768150D01*
X158556150Y-76614801D01*
X158612852Y-76576914D01*
X158736481Y-76494307D01*
X158736484Y-76494305D01*
X158866010Y-76440654D01*
X158936850Y-76411311D01*
X159085352Y-76381772D01*
X159149560Y-76369000D01*
X159366440Y-76369000D01*
X159430648Y-76381772D01*
X159430648Y-76381772D01*
G37*
G36*
X150508527Y-74660736D02*
X150608410Y-74680604D01*
X150890674Y-74797521D01*
X151144705Y-74967259D01*
X151360741Y-75183295D01*
X151530479Y-75437326D01*
X151611051Y-75631846D01*
X151647396Y-75719591D01*
X151707000Y-76019238D01*
X151707000Y-76324762D01*
X151673275Y-76494307D01*
X151647396Y-76624410D01*
X151530479Y-76906674D01*
X151360741Y-77160705D01*
X151144705Y-77376741D01*
X150890674Y-77546479D01*
X150608410Y-77663396D01*
X150508527Y-77683264D01*
X150308762Y-77723000D01*
X150003238Y-77723000D01*
X149803473Y-77683264D01*
X149703590Y-77663396D01*
X149421326Y-77546479D01*
X149167295Y-77376741D01*
X148951259Y-77160705D01*
X148781521Y-76906674D01*
X148664604Y-76624410D01*
X148638725Y-76494307D01*
X148605000Y-76324762D01*
X148605000Y-76019238D01*
X148664604Y-75719591D01*
X148700949Y-75631846D01*
X148781521Y-75437326D01*
X148951259Y-75183295D01*
X149167295Y-74967259D01*
X149421326Y-74797521D01*
X149703590Y-74680604D01*
X149803473Y-74660736D01*
X150003238Y-74621000D01*
X150308762Y-74621000D01*
X150508527Y-74660736D01*
X150508527Y-74660736D01*
G37*
G36*
X105508527Y-74660736D02*
X105608410Y-74680604D01*
X105890674Y-74797521D01*
X106144705Y-74967259D01*
X106360741Y-75183295D01*
X106530479Y-75437326D01*
X106611051Y-75631846D01*
X106647396Y-75719591D01*
X106707000Y-76019238D01*
X106707000Y-76324762D01*
X106673275Y-76494307D01*
X106647396Y-76624410D01*
X106530479Y-76906674D01*
X106360741Y-77160705D01*
X106144705Y-77376741D01*
X105890674Y-77546479D01*
X105608410Y-77663396D01*
X105508527Y-77683264D01*
X105308762Y-77723000D01*
X105003238Y-77723000D01*
X104803473Y-77683264D01*
X104703590Y-77663396D01*
X104421326Y-77546479D01*
X104167295Y-77376741D01*
X103951259Y-77160705D01*
X103781521Y-76906674D01*
X103664604Y-76624410D01*
X103638725Y-76494307D01*
X103605000Y-76324762D01*
X103605000Y-76019238D01*
X103664604Y-75719591D01*
X103700949Y-75631846D01*
X103781521Y-75437326D01*
X103951259Y-75183295D01*
X104167295Y-74967259D01*
X104421326Y-74797521D01*
X104703590Y-74680604D01*
X104803473Y-74660736D01*
X105003238Y-74621000D01*
X105308762Y-74621000D01*
X105508527Y-74660736D01*
X105508527Y-74660736D01*
G37*
G36*
X159472794Y-73850155D02*
X159579150Y-73871311D01*
X159649990Y-73900654D01*
X159779516Y-73954305D01*
X159959850Y-74074801D01*
X160113199Y-74228150D01*
X160233695Y-74408484D01*
X160316689Y-74608851D01*
X160359000Y-74821560D01*
X160359000Y-75038440D01*
X160316689Y-75251149D01*
X160233695Y-75451516D01*
X160113199Y-75631850D01*
X159959850Y-75785199D01*
X159779516Y-75905695D01*
X159649990Y-75959346D01*
X159579150Y-75988689D01*
X159472795Y-76009844D01*
X159366440Y-76031000D01*
X159149560Y-76031000D01*
X159043205Y-76009844D01*
X158936850Y-75988689D01*
X158866010Y-75959346D01*
X158736484Y-75905695D01*
X158556150Y-75785199D01*
X158402801Y-75631850D01*
X158282305Y-75451516D01*
X158199311Y-75251149D01*
X158157000Y-75038440D01*
X158157000Y-74821560D01*
X158199311Y-74608851D01*
X158282305Y-74408484D01*
X158402801Y-74228150D01*
X158556150Y-74074801D01*
X158736484Y-73954305D01*
X158866010Y-73900654D01*
X158936850Y-73871311D01*
X159043206Y-73850155D01*
X159149560Y-73829000D01*
X159366440Y-73829000D01*
X159472794Y-73850155D01*
X159472794Y-73850155D01*
G37*
G36*
X95568433Y-72144893D02*
X95658657Y-72162839D01*
X95764267Y-72206585D01*
X95913621Y-72268449D01*
X96143089Y-72421774D01*
X96338226Y-72616911D01*
X96491551Y-72846379D01*
X96518533Y-72911519D01*
X96597161Y-73101343D01*
X96651000Y-73372014D01*
X96651000Y-73647986D01*
X96606579Y-73871311D01*
X96597161Y-73918656D01*
X96491551Y-74173621D01*
X96338226Y-74403089D01*
X96143089Y-74598226D01*
X95913621Y-74751551D01*
X95764267Y-74813415D01*
X95658657Y-74857161D01*
X95568433Y-74875107D01*
X95387988Y-74911000D01*
X95112012Y-74911000D01*
X94931567Y-74875107D01*
X94841343Y-74857161D01*
X94735733Y-74813415D01*
X94586379Y-74751551D01*
X94356911Y-74598226D01*
X94161774Y-74403089D01*
X94008449Y-74173621D01*
X93902839Y-73918656D01*
X93893422Y-73871311D01*
X93849000Y-73647986D01*
X93849000Y-73372014D01*
X93902839Y-73101343D01*
X93981467Y-72911519D01*
X94008449Y-72846379D01*
X94161774Y-72616911D01*
X94356911Y-72421774D01*
X94586379Y-72268449D01*
X94735733Y-72206585D01*
X94841343Y-72162839D01*
X94931567Y-72144893D01*
X95112012Y-72109000D01*
X95387988Y-72109000D01*
X95568433Y-72144893D01*
X95568433Y-72144893D01*
G37*
G36*
X159472794Y-71310155D02*
X159579150Y-71331311D01*
X159649990Y-71360654D01*
X159779516Y-71414305D01*
X159959850Y-71534801D01*
X160113199Y-71688150D01*
X160233695Y-71868484D01*
X160316689Y-72068851D01*
X160359000Y-72281560D01*
X160359000Y-72498440D01*
X160316689Y-72711149D01*
X160233695Y-72911516D01*
X160113199Y-73091850D01*
X159959850Y-73245199D01*
X159779516Y-73365695D01*
X159649990Y-73419346D01*
X159579150Y-73448689D01*
X159472794Y-73469845D01*
X159366440Y-73491000D01*
X159149560Y-73491000D01*
X159043206Y-73469845D01*
X158936850Y-73448689D01*
X158866010Y-73419346D01*
X158736484Y-73365695D01*
X158556150Y-73245199D01*
X158402801Y-73091850D01*
X158282305Y-72911516D01*
X158199311Y-72711149D01*
X158157000Y-72498440D01*
X158157000Y-72281560D01*
X158199311Y-72068851D01*
X158282305Y-71868484D01*
X158402801Y-71688150D01*
X158556150Y-71534801D01*
X158736484Y-71414305D01*
X158866010Y-71360654D01*
X158936850Y-71331311D01*
X159043206Y-71310155D01*
X159149560Y-71289000D01*
X159366440Y-71289000D01*
X159472794Y-71310155D01*
X159472794Y-71310155D01*
G37*
G36*
X150508527Y-66660736D02*
X150608410Y-66680604D01*
X150890674Y-66797521D01*
X151144705Y-66967259D01*
X151360741Y-67183295D01*
X151530479Y-67437326D01*
X151647396Y-67719590D01*
X151665651Y-67811364D01*
X151707000Y-68019238D01*
X151707000Y-68324762D01*
X151667264Y-68524527D01*
X151647396Y-68624410D01*
X151530479Y-68906674D01*
X151360741Y-69160705D01*
X151144705Y-69376741D01*
X150890674Y-69546479D01*
X150608410Y-69663396D01*
X150508527Y-69683264D01*
X150308762Y-69723000D01*
X150003238Y-69723000D01*
X149803473Y-69683264D01*
X149703590Y-69663396D01*
X149421326Y-69546479D01*
X149167295Y-69376741D01*
X148951259Y-69160705D01*
X148781521Y-68906674D01*
X148664604Y-68624410D01*
X148644736Y-68524527D01*
X148605000Y-68324762D01*
X148605000Y-68019238D01*
X148646349Y-67811364D01*
X148664604Y-67719590D01*
X148781521Y-67437326D01*
X148951259Y-67183295D01*
X149167295Y-66967259D01*
X149421326Y-66797521D01*
X149703590Y-66680604D01*
X149803473Y-66660736D01*
X150003238Y-66621000D01*
X150308762Y-66621000D01*
X150508527Y-66660736D01*
X150508527Y-66660736D01*
G37*
G36*
X95556565Y-66934389D02*
X95747834Y-67013615D01*
X95919976Y-67128637D01*
X96066363Y-67275024D01*
X96181385Y-67447166D01*
X96260611Y-67638435D01*
X96301000Y-67841484D01*
X96301000Y-68048516D01*
X96260611Y-68251565D01*
X96181385Y-68442834D01*
X96066363Y-68614976D01*
X95919976Y-68761363D01*
X95747834Y-68876385D01*
X95556565Y-68955611D01*
X95353516Y-68996000D01*
X95146484Y-68996000D01*
X94943435Y-68955611D01*
X94752166Y-68876385D01*
X94580024Y-68761363D01*
X94433637Y-68614976D01*
X94318615Y-68442834D01*
X94239389Y-68251565D01*
X94199000Y-68048516D01*
X94199000Y-67841484D01*
X94239389Y-67638435D01*
X94318615Y-67447166D01*
X94433637Y-67275024D01*
X94580024Y-67128637D01*
X94752166Y-67013615D01*
X94943435Y-66934389D01*
X95146484Y-66894000D01*
X95353516Y-66894000D01*
X95556565Y-66934389D01*
X95556565Y-66934389D01*
G37*
G36*
X159846677Y-66688465D02*
X159884364Y-66699898D01*
X159919103Y-66718466D01*
X159949548Y-66743452D01*
X159974534Y-66773897D01*
X159993102Y-66808636D01*
X160004535Y-66846323D01*
X160009000Y-66891661D01*
X160009000Y-67728339D01*
X160004535Y-67773677D01*
X159993102Y-67811364D01*
X159974534Y-67846103D01*
X159949548Y-67876548D01*
X159919103Y-67901534D01*
X159884364Y-67920102D01*
X159846677Y-67931535D01*
X159801339Y-67936000D01*
X158714661Y-67936000D01*
X158669323Y-67931535D01*
X158631636Y-67920102D01*
X158596897Y-67901534D01*
X158566452Y-67876548D01*
X158541466Y-67846103D01*
X158522898Y-67811364D01*
X158511465Y-67773677D01*
X158507000Y-67728339D01*
X158507000Y-66891661D01*
X158511465Y-66846323D01*
X158522898Y-66808636D01*
X158541466Y-66773897D01*
X158566452Y-66743452D01*
X158596897Y-66718466D01*
X158631636Y-66699898D01*
X158669323Y-66688465D01*
X158714661Y-66684000D01*
X159801339Y-66684000D01*
X159846677Y-66688465D01*
X159846677Y-66688465D01*
G37*
G36*
X159846677Y-64638465D02*
X159884364Y-64649898D01*
X159919103Y-64668466D01*
X159949548Y-64693452D01*
X159974534Y-64723897D01*
X159993102Y-64758636D01*
X160004535Y-64796323D01*
X160009000Y-64841661D01*
X160009000Y-65678339D01*
X160004535Y-65723677D01*
X159993102Y-65761364D01*
X159974534Y-65796103D01*
X159949548Y-65826548D01*
X159919103Y-65851534D01*
X159884364Y-65870102D01*
X159846677Y-65881535D01*
X159801339Y-65886000D01*
X158714661Y-65886000D01*
X158669323Y-65881535D01*
X158631636Y-65870102D01*
X158596897Y-65851534D01*
X158566452Y-65826548D01*
X158541466Y-65796103D01*
X158522898Y-65761364D01*
X158511465Y-65723677D01*
X158507000Y-65678339D01*
X158507000Y-64841661D01*
X158511465Y-64796323D01*
X158522898Y-64758636D01*
X158541466Y-64723897D01*
X158566452Y-64693452D01*
X158596897Y-64668466D01*
X158631636Y-64649898D01*
X158669323Y-64638465D01*
X158714661Y-64634000D01*
X159801339Y-64634000D01*
X159846677Y-64638465D01*
X159846677Y-64638465D01*
G37*
G36*
X95566565Y-61854389D02*
X95757834Y-61933615D01*
X95929976Y-62048637D01*
X96076363Y-62195024D01*
X96191385Y-62367166D01*
X96270611Y-62558435D01*
X96311000Y-62761484D01*
X96311000Y-62968516D01*
X96270611Y-63171565D01*
X96191385Y-63362834D01*
X96076363Y-63534976D01*
X95929976Y-63681363D01*
X95757834Y-63796385D01*
X95566565Y-63875611D01*
X95363516Y-63916000D01*
X95156484Y-63916000D01*
X94953435Y-63875611D01*
X94762166Y-63796385D01*
X94590024Y-63681363D01*
X94443637Y-63534976D01*
X94328615Y-63362834D01*
X94249389Y-63171565D01*
X94209000Y-62968516D01*
X94209000Y-62761484D01*
X94249389Y-62558435D01*
X94328615Y-62367166D01*
X94443637Y-62195024D01*
X94590024Y-62048637D01*
X94762166Y-61933615D01*
X94953435Y-61854389D01*
X95156484Y-61814000D01*
X95363516Y-61814000D01*
X95566565Y-61854389D01*
X95566565Y-61854389D01*
G37*
G36*
X94355256Y-54271298D02*
X94461579Y-54292447D01*
X94762042Y-54416903D01*
X95028852Y-54595180D01*
X95032454Y-54597587D01*
X95262413Y-54827546D01*
X95443098Y-55097960D01*
X95567553Y-55398422D01*
X95631000Y-55717389D01*
X95631000Y-56042611D01*
X95567553Y-56361578D01*
X95443098Y-56662040D01*
X95262413Y-56932454D01*
X95032454Y-57162413D01*
X95032451Y-57162415D01*
X94762042Y-57343097D01*
X94461579Y-57467553D01*
X94355256Y-57488702D01*
X94142611Y-57531000D01*
X93817389Y-57531000D01*
X93604744Y-57488702D01*
X93498421Y-57467553D01*
X93197958Y-57343097D01*
X92927549Y-57162415D01*
X92927546Y-57162413D01*
X92697587Y-56932454D01*
X92516902Y-56662040D01*
X92392447Y-56361578D01*
X92329000Y-56042611D01*
X92329000Y-55717389D01*
X92392447Y-55398422D01*
X92516902Y-55097960D01*
X92697587Y-54827546D01*
X92927546Y-54597587D01*
X92931148Y-54595180D01*
X93197958Y-54416903D01*
X93498421Y-54292447D01*
X93604744Y-54271298D01*
X93817389Y-54229000D01*
X94142611Y-54229000D01*
X94355256Y-54271298D01*
X94355256Y-54271298D01*
G37*
G36*
X160395256Y-54271298D02*
X160501579Y-54292447D01*
X160802042Y-54416903D01*
X161068852Y-54595180D01*
X161072454Y-54597587D01*
X161302413Y-54827546D01*
X161483098Y-55097960D01*
X161607553Y-55398422D01*
X161671000Y-55717389D01*
X161671000Y-56042611D01*
X161607553Y-56361578D01*
X161483098Y-56662040D01*
X161302413Y-56932454D01*
X161072454Y-57162413D01*
X161072451Y-57162415D01*
X160802042Y-57343097D01*
X160501579Y-57467553D01*
X160395256Y-57488702D01*
X160182611Y-57531000D01*
X159857389Y-57531000D01*
X159644744Y-57488702D01*
X159538421Y-57467553D01*
X159237958Y-57343097D01*
X158967549Y-57162415D01*
X158967546Y-57162413D01*
X158737587Y-56932454D01*
X158556902Y-56662040D01*
X158432447Y-56361578D01*
X158369000Y-56042611D01*
X158369000Y-55717389D01*
X158432447Y-55398422D01*
X158556902Y-55097960D01*
X158737587Y-54827546D01*
X158967546Y-54597587D01*
X158971148Y-54595180D01*
X159237958Y-54416903D01*
X159538421Y-54292447D01*
X159644744Y-54271298D01*
X159857389Y-54229000D01*
X160182611Y-54229000D01*
X160395256Y-54271298D01*
X160395256Y-54271298D01*
G37*
G36*
X106707000Y-56923000D02*
X103605000Y-56923000D01*
X103605000Y-53821000D01*
X106707000Y-53821000D01*
X106707000Y-56923000D01*
X106707000Y-56923000D01*
G37*
M02*
